<svg id="SvgjsSvg1765" width="360" height="360" xmlns="http://www.w3.org/2000/svg" version="1.1" xmlns:xlink="http://www.w3.org/1999/xlink" xmlns:svgjs="http://svgjs.com/svgjs"><defs id="SvgjsDefs1766"></defs><g id="SvgjsG1767"><svg xmlns="http://www.w3.org/2000/svg" viewBox="0 0 360 325" width="360" height="360"><g data-name="Layer 1" fill="#000000" class="color000 svgShape"><path fill="#ededed" d="M262.05,183.4h69.26a18.37,18.37,0,0,0-13.12,5.4,17.12,17.12,0,0,0-5.44,12.55c0,10.32,8.31,18,18.56,18H262.05c5.12,0,9.75-1.46,13.12-4.82a17.81,17.81,0,0,0,5.43-12.84A18.28,18.28,0,0,0,262.05,183.4Z" class="colore5e9ff svgShape"></path><circle cx="179.07" cy="165.7" r="134.84" fill="#ededed" transform="rotate(-45 179.065 165.699)" class="colore5e9ff svgShape"></circle><path fill="#ededed" d="M73 243.74h55.35a10.33 10.33 0 0110.33 10.33h0a10.34 10.34 0 01-10.33 10.33H73a10.34 10.34 0 01-10.33-10.33h0A10.33 10.33 0 0173 243.74zM59.7 284.36h82a6.7 6.7 0 016.69 6.7h0a6.69 6.69 0 01-6.69 6.69h-82a6.69 6.69 0 01-6.7-6.69h0A6.7 6.7 0 0159.7 284.36zM238.8 297.86h12.51a6.69 6.69 0 016.7 6.69h0a6.7 6.7 0 01-6.7 6.7H238.8a6.7 6.7 0 01-6.7-6.7h0A6.69 6.69 0 01238.8 297.86zM232.58 258.25h60.94a11 11 0 0111 11h0a11 11 0 01-11 11H232.58a11 11 0 01-11-11h0A11 11 0 01232.58 258.25zM235.72 146.29h99.41a18.54 18.54 0 0118.55 18.55h0a18.55 18.55 0 01-18.55 18.56H235.72a18.56 18.56 0 01-18.55-18.56h0A18.55 18.55 0 01235.72 146.29z" class="colore5e9ff svgShape"></path><path fill="#ededed" d="M82.56 264.36h38.56a10.38 10.38 0 00-7.3 3.1 9.49 9.49 0 00-3 7 10 10 0 0010.33 9.95H82.56a9.65 9.65 0 0010.33-9.79A10.22 10.22 0 0082.56 264.36zM198.33 219.44H345.61a12 12 0 0112 12h0a12 12 0 01-12 12H198.33a12 12 0 01-12-12h0A12 12 0 01198.33 219.44zM150.64 130.15H34.16a19.7 19.7 0 01-19.7-19.7h0a19.7 19.7 0 0119.7-19.7H150.64a19.7 19.7 0 0119.7 19.7h0A19.7 19.7 0 01150.64 130.15z" class="colore5e9ff svgShape"></path><rect width="225.26" height="56.94" x="2.36" y="187.27" fill="#ededed" rx="28.47" class="colore5e9ff svgShape"></rect><path fill="#ededed" d="M294.4,84.89H201.47a15.71,15.71,0,0,1-15.72-15.71h0a15.72,15.72,0,0,1,15.72-15.72H294.4a15.72,15.72,0,0,1,15.72,15.72h0A15.71,15.71,0,0,1,294.4,84.89Z" class="colore5e9ff svgShape"></path><path fill="#ededed" d="M184.43 59.31H65.05A14.23 14.23 0 0150.83 45.08h0A14.22 14.22 0 0165.05 30.86H184.43a14.22 14.22 0 0114.22 14.22h0A14.22 14.22 0 01184.43 59.31zM265.81 30.86H243.75a8.55 8.55 0 01-8.56-8.55h0a8.56 8.56 0 018.56-8.56h22.06a8.56 8.56 0 018.56 8.56h0A8.55 8.55 0 01265.81 30.86z" class="colore5e9ff svgShape"></path><path fill="#ffffff" d="M160.41 126.51a5.18 5.18 0 01-3.53-1.35 4 4 0 00-5.35 0 .63.63 0 01-.85-.92 5.28 5.28 0 017 0 4 4 0 005.35 0 5.28 5.28 0 017 0 4 4 0 005.35 0 5.28 5.28 0 017.05 0 .63.63 0 11-.86.92 4 4 0 00-5.34 0 5.27 5.27 0 01-7.05 0 4 4 0 00-5.35 0A5.18 5.18 0 01160.41 126.51zM213.48 89.21A5.19 5.19 0 01210 87.85a4 4 0 00-5.35 0 .63.63 0 01-.85-.92 5.28 5.28 0 017.05 0 4 4 0 005.35 0 5.28 5.28 0 017.05 0 4 4 0 005.34 0 5.28 5.28 0 017 0 .63.63 0 11-.85.92 4 4 0 00-5.34 0 5.26 5.26 0 01-7 0 4 4 0 00-5.35 0A5.19 5.19 0 01213.48 89.21z" class="colorfff svgShape"></path><rect width="50.07" height="40.53" x="187.38" y="100.73" fill="#ffffff" class="colorfff svgShape"></rect><rect width="41.25" height="30.94" x="191.93" y="105.47" fill="#d4d4d4" class="colorb9b8f1 svgShape"></rect><path fill="#081b29" d="M225.76,126.05l-1.12,2-16.38-9.45L191.93,127V124.5l15.84-8.22a1.12,1.12,0,0,1,1.08,0Z" class="color121f55 svgShape"></path><path fill="#081b29" d="M233.17,121v2.67l-7.61-4.94-4.72,4.19-.92.82L218.44,122l.36-.32,5.91-5.25a1.11,1.11,0,0,1,1.36-.1Z" class="color121f55 svgShape"></path><path fill="#56afd3" d="M220.57,111.83a3.92,3.92,0,1,1-3.92-3.92A3.92,3.92,0,0,1,220.57,111.83Z" class="color566cd3 svgShape"></path><path fill="#ffffff" d="M274.48,103.35s-8.9,5.9-8.9,14.9h-9.8c0-9-8.9-14.87-8.9-14.87l13.8-16Z" class="colorfff svgShape"></path><path fill="#56afd3" d="M261.39,101.48V88.64l-.92-1.36-1.08,1.6v12.68a3.18,3.18,0,0,0-1.76,2.77,3.08,3.08,0,0,0,3.08,3.11,2.88,2.88,0,0,0,2.83-3.11C263.54,103.05,263.39,102,261.39,101.48Z" class="color566cd3 svgShape"></path><path fill="#2186af" d="M252.92,223.71v5.67a7.75,7.75,0,0,0,7.76,7.76h0a7.75,7.75,0,0,0,7.76-7.76v-5.67Z" class="color2143af svgShape"></path><path fill="#d4d4d4" d="M266,140V118.36H255.41V140h0a2.48,2.48,0,0,0-2.49,2.49v81.23h15.52V142.48A2.48,2.48,0,0,0,266,140Z" class="colorb9b8f1 svgShape"></path><path fill="#2186af" d="M86.57,223.71v5.67a7.75,7.75,0,0,0,7.76,7.76h0a7.75,7.75,0,0,0,7.76-7.76v-5.67Z" class="color2143af svgShape"></path><path fill="#2186af" d="M86.57,223.71v5.67a7.75,7.75,0,0,0,7.76,7.76h0a7.75,7.75,0,0,0,7.76-7.76v-5.67Z" class="color2143af svgShape"></path><path fill="#d4d4d4" d="M99.6,161.3h0V151H89.06V161.3h0a2.48,2.48,0,0,0-2.49,2.49v59.92h15.52V163.79A2.48,2.48,0,0,0,99.6,161.3Z" class="colorb9b8f1 svgShape"></path><path fill="#ffffff" d="M94.34,87.25h0a7.55,7.55,0,0,0-7.53,7.53v11.86a3.9,3.9,0,0,0,3.89,3.89h0v33.41H98V110.53h.1a3.8,3.8,0,0,0,3.79-3.79v-12A7.51,7.51,0,0,0,94.34,87.25Z" class="colorfff svgShape"></path><path fill="#ffffff" d="M98.86,151H89.8a3.89,3.89,0,0,1-3.89-3.89h0a3.89,3.89,0,0,1,3.89-3.89h9.06a3.89,3.89,0,0,1,3.89,3.89h0A3.89,3.89,0,0,1,98.86,151Z" class="colorfff svgShape"></path><path fill="#56afd3" d="M248.14,229.53V148.18a8.08,8.08,0,0,0-7.95-8.2H116.4a8.08,8.08,0,0,0-8,8.2v81.35Z" class="color566cd3 svgShape"></path><path fill="#56afd3" d="M235 188.53h38.29a7.15 7.15 0 017.15 7.15h0a7.15 7.15 0 01-7.15 7.15H235a7.15 7.15 0 01-7.15-7.15h0A7.15 7.15 0 01235 188.53zM238.57 160.48h20.82a7.15 7.15 0 017.15 7.14h0a7.15 7.15 0 01-7.15 7.15H238.57a7.15 7.15 0 01-7.15-7.15h0A7.15 7.15 0 01238.57 160.48zM225.82 215.56h56.73a5 5 0 014.64 5.22h0c0 2.89-2.08 5.23-4.64 5.23H225.82c-2.56 0-4.63-2.34-4.63-5.23h0C221.19 217.9 223.26 215.56 225.82 215.56zM267.2 147.2h20.52a4.63 4.63 0 014.64 4.63h0a4.63 4.63 0 01-4.64 4.63H267.2a4.63 4.63 0 01-4.64-4.63h0A4.63 4.63 0 01267.2 147.2z" class="color566cd3 svgShape"></path><path fill="#56afd3" d="M240.76,202.16h27.56a7.55,7.55,0,0,0-5.22,2.12,6.29,6.29,0,0,0-2.17,4.73c0,3.9,3.31,6.8,7.39,6.8H240.76A7.39,7.39,0,0,0,246,214a6.69,6.69,0,0,0,2.16-4.91A7.15,7.15,0,0,0,240.76,202.16Z" class="color566cd3 svgShape"></path><rect width="127.32" height="75.88" x="114.64" y="147.32" fill="#ffffff" class="colorfff svgShape"></rect><rect width="13.71" height="21.54" x="223.02" y="151.6" fill="#ededed" class="colore5e9ff svgShape"></rect><rect width="98.82" height="21.54" x="119.87" y="151.6" fill="#ededed" class="colore5e9ff svgShape"></rect><rect width="27.41" height="21.54" x="119.87" y="179.88" fill="#ededed" class="colore5e9ff svgShape"></rect><rect width="84.39" height="9.05" x="152.33" y="192.37" fill="#ededed" class="colore5e9ff svgShape"></rect><rect width="84.39" height="9.05" x="152.33" y="179.88" fill="#ededed" class="colore5e9ff svgShape"></rect><rect width="116.85" height="13.3" x="119.87" y="205.63" fill="#ededed" class="colore5e9ff svgShape"></rect><path fill="#ededed" d="M180.26,143.57a2.08,2.08,0,1,1-2.07-2.13A2.11,2.11,0,0,1,180.26,143.57Z" class="colore5e9ff svgShape"></path><path fill="#081b29" d="M182.6,143.57a.92.92,0,1,1-.91-.93A.92.92,0,0,1,182.6,143.57Z" class="color121f55 svgShape"></path><path fill="#ffffff" d="M100.41,229.53v3.87a3.82,3.82,0,0,0,3.78,3.86H252.41a3.83,3.83,0,0,0,3.78-3.86v-3.87Z" class="colorfff svgShape"></path><rect width="65.19" height="34.9" x="145.7" y="167.81" fill="#00abf0" rx="11.86" class="color8edef2 svgShape"></rect><path fill="#ffffff" d="M167.05 187.4l3.18 1a7.14 7.14 0 01-2.43 3.94 6.92 6.92 0 01-4.31 1.29 7 7 0 01-5.31-2.21 8.46 8.46 0 01-2.07-6 8.81 8.81 0 012.09-6.28 7.13 7.13 0 015.49-2.24 6.75 6.75 0 014.83 1.75 6.42 6.42 0 011.66 3l-3.24.77a3.43 3.43 0 00-1.2-2 3.49 3.49 0 00-2.22-.73 3.7 3.7 0 00-2.92 1.3 6.33 6.33 0 00-1.12 4.19c0 2.05.37 3.51 1.1 4.38a3.6 3.6 0 002.88 1.3 3.22 3.22 0 002.24-.83A4.76 4.76 0 00167.05 187.4zM172.2 188.09l3.19-.31a3.84 3.84 0 001.17 2.35 3.46 3.46 0 002.37.76 3.67 3.67 0 002.38-.67 2 2 0 00.8-1.57 1.51 1.51 0 00-.33-1 2.74 2.74 0 00-1.18-.7c-.39-.13-1.26-.37-2.62-.71a8.9 8.9 0 01-3.7-1.6 4.23 4.23 0 01-1.49-3.26 4.15 4.15 0 01.7-2.32 4.44 4.44 0 012-1.64 8 8 0 013.19-.56 6.85 6.85 0 014.59 1.33 4.74 4.74 0 011.62 3.58l-3.27.14a2.81 2.81 0 00-.9-1.8 3.38 3.38 0 00-2.08-.54 3.74 3.74 0 00-2.23.58 1.18 1.18 0 00-.52 1 1.23 1.23 0 00.49 1 8.52 8.52 0 003 1.09 15.78 15.78 0 013.54 1.16 4.53 4.53 0 011.79 1.65 4.84 4.84 0 01.64 2.58 4.73 4.73 0 01-.77 2.61 4.67 4.67 0 01-2.19 1.81 9.26 9.26 0 01-3.53.59 7 7 0 01-4.72-1.42A6.21 6.21 0 01172.2 188.09zM187.31 188.09l3.18-.31a3.84 3.84 0 001.17 2.35 3.5 3.5 0 002.37.76 3.7 3.7 0 002.39-.67 2 2 0 00.8-1.57 1.52 1.52 0 00-.34-1 2.74 2.74 0 00-1.18-.7c-.38-.13-1.26-.37-2.62-.71a8.84 8.84 0 01-3.69-1.6 4.21 4.21 0 01-1.5-3.26 4.16 4.16 0 01.71-2.32 4.36 4.36 0 012-1.64 8 8 0 013.19-.56 6.88 6.88 0 014.6 1.33 4.77 4.77 0 011.61 3.58l-3.27.14a2.81 2.81 0 00-.9-1.8 3.32 3.32 0 00-2.07-.54 3.77 3.77 0 00-2.24.58 1.2 1.2 0 00-.52 1 1.25 1.25 0 00.49 1 8.6 8.6 0 003 1.09 15.66 15.66 0 013.53 1.16 4.53 4.53 0 011.79 1.65 5.1 5.1 0 01-.12 5.19 4.72 4.72 0 01-2.19 1.81 9.3 9.3 0 01-3.53.59 7 7 0 01-4.72-1.42A6.17 6.17 0 01187.31 188.09z" class="colorfff svgShape"></path><path fill="#00abf0" d="M104.82,237.26h0a5.65,5.65,0,0,0,5.66-5.65V200.77a5.65,5.65,0,0,0-5.66-5.65h0a5.65,5.65,0,0,0-5.65,5.65v30.84A5.65,5.65,0,0,0,104.82,237.26Z" class="color8edef2 svgShape"></path><path fill="#56afd3" d="M102.91,232.21a1.92,1.92,0,1,0,1.91-1.91A1.91,1.91,0,0,0,102.91,232.21Z" class="color566cd3 svgShape"></path><path fill="#081b29" d="M107.65,236.5h0a5.66,5.66,0,0,0,2.07-7.72L94.3,202.08A5.65,5.65,0,0,0,86.58,200h0a5.65,5.65,0,0,0-2.07,7.72l15.42,26.7A5.64,5.64,0,0,0,107.65,236.5Z" class="color121f55 svgShape"></path><path fill="#aaaaaa" d="M97.32,229.92,84.51,207.73A5.65,5.65,0,0,1,86.58,200h0a5.65,5.65,0,0,1,7.72,2.07l12.81,22.19Z" class="colorf7b75d svgShape"></path><path fill="#56afd3" d="M103.47,233.09a1.91,1.91,0,1,0,.7-2.62A1.92,1.92,0,0,0,103.47,233.09Z" class="color566cd3 svgShape"></path><path fill="#081b29" d="M109.72,234.43h0a5.66,5.66,0,0,0-2.07-7.72L81,211.29a5.66,5.66,0,0,0-7.73,2.07h0a5.67,5.67,0,0,0,2.07,7.73L102,236.5A5.66,5.66,0,0,0,109.72,234.43Z" class="color121f55 svgShape"></path><path fill="#d4d4d4" d="M97.48,233.9,75.29,221.09a5.67,5.67,0,0,1-2.07-7.73h0A5.66,5.66,0,0,1,81,211.29l22.19,12.81Z" class="colorb9b8f1 svgShape"></path><path fill="#56afd3" d="M104.39,233.56a1.91,1.91,0,1,0-.7-2.61A1.9,1.9,0,0,0,104.39,233.56Z" class="color566cd3 svgShape"></path><path fill="#081b29" d="M110.48,231.61h0a5.65,5.65,0,0,0-5.66-5.66H74a5.66,5.66,0,0,0-5.66,5.66h0A5.66,5.66,0,0,0,74,237.26h30.83A5.65,5.65,0,0,0,110.48,231.61Z" class="color121f55 svgShape"></path><path fill="#2186af" d="M99.61,237.26H74a5.66,5.66,0,0,1-5.66-5.65h0A5.66,5.66,0,0,1,74,226H99.61Z" class="color2143af svgShape"></path><path fill="#56afd3" d="M105.43,233.52a1.92,1.92,0,1,0-1.92-1.91A1.92,1.92,0,0,0,105.43,233.52Z" class="color566cd3 svgShape"></path><path fill="#ffffff" d="M187,120c.41-.59-.14-1.58.2-2.75,1-3.54-.18-5.08-.18-5.08,0-1.3-1.07-2.44-2.7-3a7.6,7.6,0,0,0-2.59-.45,7.13,7.13,0,0,0-3.69.92,2.9,2.9,0,0,0-1.71,2.5c.06.7.81,1.62,0,2.8-1.88,2.91-1.06,4.58-.06,5.1s2,.52,2.52.83C181.65,122.46,185.59,122.14,187,120Z" class="colorfff svgShape"></path><path fill="#c9c9c9" d="M195.74,133a18.84,18.84,0,0,0,2-.34.93.93,0,0,0-.42-1.82c-3.18.74-5.79.43-7.74-.93a9.4,9.4,0,0,1-3.52-5.94.93.93,0,0,0-1.85.24,11.29,11.29,0,0,0,4.31,7.23A10.29,10.29,0,0,0,195.74,133Z" class="colorf99ab6 svgShape"></path><path fill="#081b29" d="M186.49,125.4a2.76,2.76,0,0,1,.51,0,8,8,0,0,1-.41-1.55,1.49,1.49,0,0,0-1.47-1.28h-.19a1.49,1.49,0,0,0-1.27,1.66,11.9,11.9,0,0,0,.72,2.56A2.13,2.13,0,0,1,186.49,125.4Z" class="color121f55 svgShape"></path><path fill="#c9c9c9" d="M184.73,124.61A1,1,0,0,0,185,123a3.25,3.25,0,0,0-2.36-1h-.24a2.61,2.61,0,0,0-2.07.91C180.76,124.06,183.44,125.11,184.73,124.61Z" class="colorf99ab6 svgShape"></path><path fill="#c9c9c9" d="M183.16,120.07l0,1.05,0,2-1.52,0,0-2.52,0-1A2.51,2.51,0,0,0,183.16,120.07Z" class="colorf99ab6 svgShape"></path><path fill="#c9c9c9" d="M183.16,120.32l0,1.05a2.61,2.61,0,0,1-1.53-.72v-.78A2.51,2.51,0,0,0,183.16,120.32Z" class="colorf99ab6 svgShape"></path><path fill="#c9c9c9" d="M182.78,120.86h0a4.39,4.39,0,0,1-4.35-4.44l0-1.73a4.4,4.4,0,0,1,4.44-4.35h0a4.51,4.51,0,0,1,2.13.57,4.4,4.4,0,0,1,2.22,3.87l0,1.73a4.39,4.39,0,0,1-2.14,3.74A4.47,4.47,0,0,1,182.78,120.86Z" class="colorf99ab6 svgShape"></path><path fill="#aaaaaa" d="M187.5,135.16c.51,2.25-2.27,4.49-4.52,5a4.17,4.17,0,0,1-1.85-8.14C183.38,131.51,187,132.92,187.5,135.16Z" class="colorf7b75d svgShape"></path><path fill="#fefefe" d="M183.07,118.58a1.17,1.17,0,0,0,2.31,0Z" class="colorfffeff svgShape"></path><path fill="#081b29" d="M187.21,125.63a1.56,1.56,0,0,1-1.34,1.84c-.83.09-1.84-1-1.93-1.83s1.15-2.65,1.61-2S187,125,187.21,125.63Z" class="color121f55 svgShape"></path><path fill="#081b29" d="M180.36,122.84a2.51,2.51,0,0,0-.61,1.55s1.35,6.55-1.51,10c0,0,5.16,3.1,9.31,1,0-3-1.82-5-1.53-9.82a3.42,3.42,0,0,0-1-2.6C185,124.52,181.84,122.68,180.36,122.84Z" class="color121f55 svgShape"></path><path fill="#2186af" d="M184.79,156a16.76,16.76,0,0,1,0,2c.07.4,1.87.76,2.1,1.88.3,1.52,2.31,1.68,2.63,1.74.83.17,1.57-.25,1.14-1.06s-1-1.1-1.7-2.24a31.1,31.1,0,0,1-1.6-3.81,1.4,1.4,0,0,0-1.31-.7A1.89,1.89,0,0,0,184.79,156Z" class="color2143af svgShape"></path><path fill="#c9c9c9" d="M187.71,159a10.72,10.72,0,0,1-1.39-4.14c.15-.76,1.62-1.08,1.83-.45.35,1.07.24,3.07,1.52,5C189.65,159.94,188.36,160,187.71,159Z" class="colorf99ab6 svgShape"></path><path fill="#2186af" d="M211.44,143.15a15.55,15.55,0,0,1,1.63-1.17c.28-.29-.51-2,.25-2.8,1-1.16,0-2.86-.17-3.16-.37-.76-1.14-1.1-1.53-.27s-.28,1.47-.79,2.7a31,31,0,0,1-2.09,3.56,1.38,1.38,0,0,0,.22,1.47A1.9,1.9,0,0,0,211.44,143.15Z" class="color2143af svgShape"></path><path fill="#c9c9c9" d="M212.06,139a10.79,10.79,0,0,1-2.48,3.59c-.7.33-1.84-.66-1.46-1.2.65-.92,2.32-2,3.08-4.19C211.66,136.92,212.44,137.94,212.06,139Z" class="colorf99ab6 svgShape"></path><path fill="#aaaaaa" d="M191.84,141.18l-.07,0-9.85-4.52a1.86,1.86,0,0,0-1.56,3.38h0l8.48,3.78-3,10.29,2.58.85,4.3-11.58A1.74,1.74,0,0,0,191.84,141.18Z" class="colorf7b75d svgShape"></path><path fill="#c9c9c9" d="M182.79,135.54a13.89,13.89,0,0,0,1.53-.09.93.93,0,1,0-.19-1.85c-1.71.18-3.93.12-4.7-1.15-1.23-2,1.09-6.45,2-7.84a.94.94,0,0,0-.28-1.29.92.92,0,0,0-1.28.27c-.43.65-4.09,6.45-2,9.82C178.7,134.82,180.36,135.54,182.79,135.54Z" class="colorf99ab6 svgShape"></path><path fill="#ffffff" d="M178,115.17s3.12,1.12,5.06-.24,2.84-3.44,2-4.66-3.12-1.12-5.06.24S178,115.17,178,115.17Z" class="colorfff svgShape"></path><path fill="#aaaaaa" d="M181.83,136.18l4.31.15,4.41.21,5.06.3.65,0h.2l.18,0h.08l.32.05.63.1h0l.16,0h.1l.15,0,.31.08,2.42.6c.79.2,1.55.37,2.26.57l2,.53c1.26.32,2.3.62,3,.82l1.15.33-.53,2.33-1.17-.19c-.74-.13-1.81-.29-3.08-.54l-2.06-.37c-.73-.13-1.49-.3-2.29-.45l-2.44-.49-.31-.06-.16,0-.08,0h0l.13,0h0l-.64-.08-.32,0h-.18l-.65,0-5.06-.2-4.42-.23c-2.58-.14-4.3-.27-4.3-.27Z" class="colorf7b75d svgShape"></path><path fill="#081b29" d="M182.39,137.28a.57.57,0,0,1,.56-.56h20.27c.42,0,.77.25.77.56s-.35.56-.77.56H183a.57.57,0,0,1-.56-.56Z" class="color121f55 svgShape"></path><path fill="#ffffff" d="M181.6,137.28a.58.58,0,0,0,.6.56h7.7a.56.56,0,1,0,0-1.12h-7.7A.58.58,0,0,0,181.6,137.28Z" class="colorfff svgShape"></path><rect width="15.13" height="11.87" x="188.83" y="125.41" fill="#ffffff" rx=".82" class="colorfff svgShape"></rect><rect width="15.13" height="11.87" x="189.46" y="125.41" fill="#ffffff" rx=".82" class="colorfff svgShape"></rect><path fill="#d4d4d4" d="M194.8,131.34h0a.87.87,0,0,1,.87-.87h2.7a.87.87,0,0,1,.87.87h0a.87.87,0,0,1-.87.87h-2.7A.87.87,0,0,1,194.8,131.34Z" class="colorb9b8f1 svgShape"></path><path fill="#081b29" d="M178.82,125.24a2.12,2.12,0,0,1,2.09,1.41,19.26,19.26,0,0,1,1-1.75,1.47,1.47,0,0,0-.43-2,1.53,1.53,0,0,0-.8-.24,1.47,1.47,0,0,0-1.24.67c-.21.33-.66,1.06-1.14,2A2.38,2.38,0,0,1,178.82,125.24Z" class="color121f55 svgShape"></path><path fill="#c9c9c9" d="M188.36,133.79a2.31,2.31,0,0,1,.1,1.55l-3.13,1.38a2.24,2.24,0,1,1,3-2.93Z" class="colorf99ab6 svgShape"></path><path fill="#00abf0" d="M121.07,99.67l.74-.75,1.23,1.24c.25.24.63.45.85.23L125,99.3l-.84-.84c-.25-.24-.17-.43,0-.65l1.18-1.17c.21-.22.42-.32.67-.07l.84.84.93-.94a.81.81,0,0,0-.08-1l-1.23-1.23.59-.59a.59.59,0,0,0,0-.83l-1.34-1.34a.58.58,0,0,0-.83,0l-.59.59L123.26,91a.66.66,0,0,0-.89,0l-.94.94.59.58c.24.25.4.71.18.93L121,94.65c-.21.21-.66,0-.9-.21l-.59-.58L118.44,95c-.21.21-.11.49.13.74l1.09,1.08-.74.74a.56.56,0,0,0,0,.81l1.34,1.34A.57.57,0,0,0,121.07,99.67Z" class="color8edef2 svgShape"></path><path fill="#00c6ff" d="M120.4,90.92l-.75-.76,1.26-1.26c.24-.24.53-.68.31-.9l-1.14-1.15-.91.91c-.25.25-.32.17-.54-.05l-1.17-1.17c-.22-.22-.41-.4-.16-.65l.91-.91-.91-.9c-.22-.22-.75,0-1,.22L115,85.56l-.66-.66a.64.64,0,0,0-.87-.12l-1.34,1.34a.73.73,0,0,0,0,.94l.66.66-1,1a.52.52,0,0,0,0,.77l.91.91.54-.54c.24-.24.79-.43,1-.21l1.18,1.18c.21.22-.07.66-.32.9l-.54.54,1.14,1.15c.22.22.44.15.69-.1l1-1.05.75.76a.6.6,0,0,0,.84,0l1.34-1.34A.51.51,0,0,0,120.4,90.92Z" class="colorb8b9f1 svgShape"></path><path fill="#278bb3" d="M122.35,94.8l0,1.54a.33.33,0,0,1-.1.23.31.31,0,0,1-.24.1l-1.52,0V96l1.19,0V94.8Z" class="color2747b3 svgShape"></path><rect width=".65" height="6.89" x="119.28" y="90.46" fill="#278bb3" transform="rotate(-44.99 119.617 93.906)" class="color2747b3 svgShape"></rect><path fill="#278bb3" d="M118.17,88.21h0l1.52,0v.65l-1.19,0v1.21h-.65V88.54a.32.32,0,0,1,.32-.33Z" class="color2747b3 svgShape"></path><rect width=".65" height="6.89" x="120.29" y="87.52" fill="#278bb3" transform="rotate(-45 120.624 90.976)" class="color2747b3 svgShape"></rect><path fill="#00abf0" d="M212.9,206.86l-2.08,8L204,217.66l1,2.31,7.38-3.08a1.25,1.25,0,0,0,.73-.84l2.24-8.55a1.24,1.24,0,0,0-.89-1.51h0A1.24,1.24,0,0,0,212.9,206.86Z" class="color8edef2 svgShape"></path><path fill="#081b29" d="M208.69,229.65a1.47,1.47,0,0,0,.45-1.85l-.53-1c-.35-.65-.83-1.58-1.43-2.68s-1.15-2.11-1.83-3.31l2.33.51,2.22.46,2,.41c1.23.25,2.26.43,3,.57L216,223a2,2,0,0,0,.81-3.92l-1.12-.27-3-.65-2-.42-2.22-.45c-1.54-.31-3.18-.63-4.83-.94l-.61-.11-.16,0h-.1l-.15,0h0a2.44,2.44,0,0,0-2.63,1.77,2.4,2.4,0,0,0,.14,1.67,1.46,1.46,0,0,0,.19.32l.08.13.17.26,1.31,2c.86,1.32,1.67,2.54,2.38,3.58s1.3,1.9,1.72,2.51.66.94.66.94A1.47,1.47,0,0,0,208.69,229.65Z" class="color121f55 svgShape"></path><g data-name="8. Right shoe" fill="#000000" class="color000 svgShape"><path fill="#aaaaaa" d="M206.86,229.75a2,2,0,1,0-.48-2.8A2,2,0,0,0,206.86,229.75Z" class="colorf7b75d svgShape"></path><path fill="#aaaaaa" d="M205.24,235.5l4.39-6.2a1.45,1.45,0,0,0-.34-2h0c-.66-.46-2.69-.62-3.16,0l-2.47,7.26a1,1,0,0,0,1.31,1.18A.78.78,0,0,0,205.24,235.5Z" class="colorf7b75d svgShape"></path><path fill="#ffffff" d="M205.7 230.07h0a.33.33 0 00-.44-.28l-.74.24a.34.34 0 00-.23.36h0a.34.34 0 00.44.28l.74-.24A.33.33 0 00205.7 230.07zM205.84 231.15h0a.34.34 0 00-.44-.28l-.74.24a.33.33 0 00-.23.36h0a.33.33 0 00.44.28l.73-.24A.34.34 0 00205.84 231.15z" class="colorfff svgShape"></path><path fill="#278bb3" d="M207.32,229.09a1.2,1.2,0,1,0-.28-1.68A1.19,1.19,0,0,0,207.32,229.09Z" class="color2747b3 svgShape"></path></g><path fill="#278bb3" d="M216.62,201.74l.23,1.66.36-.12a.67.67,0,0,0,.46-.64h0a.69.69,0,0,1,.24-.51l.93-.95a2.71,2.71,0,0,0,.75-1.45,1.54,1.54,0,0,0-.23-1.2c-.37-.48.89-1.8,0-2.9-.41-.5-1-.87-1.3-1.4-.87-1.79-2.18-1.65-3.09-1s-1.17-.58-2.76-.38a1.65,1.65,0,0,0-1.64,1.78,2.26,2.26,0,0,0-2.12,2.45,2.77,2.77,0,0,0,2.5,2.66Z" class="color2747b3 svgShape"></path><polygon fill="#c9c9c9" points="214.05 199.97 214.4 203.97 214.64 206.58 217.7 206.31 217 199.93 216.8 198.12 214.05 199.97" class="colorf99ab6 svgShape"></polygon><path fill="#c9c9c9" d="M216.48,202v.64A4.4,4.4,0,0,1,214.4,204l-.17-2Z" class="colorf99ab6 svgShape"></path><path fill="#c9c9c9" d="M213.22,203.83h-.5c-1.08,0-2.35-2.1-2.35-3.19a23.8,23.8,0,0,0,0-2.82,2.1,2.1,0,0,1,2.18-2.19H215a1.67,1.67,0,0,1,1.67,1.67v4C216.67,202.68,214.64,203.83,213.22,203.83Z" class="colorf99ab6 svgShape"></path><path fill="#278bb3" d="M212.92,195.63s-.22,1.81,2.83,1.7c0,0-.09,3.57,1.52,3.82l.28-1.2s.67-3.91-.82-4.58S212.92,195.63,212.92,195.63Z" class="color2747b3 svgShape"></path><path fill="#c9c9c9" d="M218.29,204.61a1.65,1.65,0,0,0-1.16-.23l-1.35.21a3.82,3.82,0,0,0-1.75.74A5.24,5.24,0,0,0,218.29,204.61Z" class="colorf99ab6 svgShape"></path><path fill="#00abf0" d="M220.43,207a3.13,3.13,0,0,0-2.14-2.4,5.24,5.24,0,0,1-4.26.72,3.88,3.88,0,0,0-1.5,3.72l1.43,8.09,7.3-1S220.69,209.43,220.43,207Z" class="color8edef2 svgShape"></path><path fill="#081b29" d="M193.43,230.19l.79-.85c.5-.54,1.21-1.32,2.09-2.23s5.68-5.78,5.68-5.78l.11-.1.22-.19c.16-.11.32-.22.49-.32a4.27,4.27,0,0,1,1.09-.43l.29-.06c.05,0,8.21-.77,8.91-.94,1.23-.3.78-2.63.78-2.63l7.33-1.13a11.89,11.89,0,0,0,.91,2.76,4,4,0,0,1-.41,3.11,4.07,4.07,0,0,1-4.08,2l-.88.08-3,.23-2,.13-2.27.13-2.43.12-2.16.09-.08,0,0,0h0l0,0-.93.84-1.81,1.62c-1.17,1-2.28,2-3.24,2.85s-1.76,1.5-2.32,2l-.89.74a1.47,1.47,0,0,1-2-2.12Z" class="color121f55 svgShape"></path><g data-name="8. Right shoe" fill="#000000" class="color000 svgShape"><path fill="#aaaaaa" d="M192.25,231.1a2,2,0,1,0,2.54-1.27A2,2,0,0,0,192.25,231.1Z" class="colorf7b75d svgShape"></path><path fill="#aaaaaa" d="M186.28,231.23l7.21,2.4a1.45,1.45,0,0,0,1.84-.93h0c.25-.76-.19-2.75-1-3l-7.66-.25A1,1,0,0,0,186,231,.77.77,0,0,0,186.28,231.23Z" class="colorf7b75d svgShape"></path><path fill="#ffffff" d="M191.88 230.53h0a.34.34 0 00.33-.4l-.14-.76a.34.34 0 00-.34-.28h0a.34.34 0 00-.33.4l.15.77A.33.33 0 00191.88 230.53zM190.79 230.53h0a.34.34 0 00.33-.4l-.14-.76a.34.34 0 00-.34-.28h0a.34.34 0 00-.33.4l.15.77A.33.33 0 00190.79 230.53z" class="colorfff svgShape"></path><path fill="#278bb3" d="M193,231.35a1.2,1.2,0,1,0,1.52-.76A1.21,1.21,0,0,0,193,231.35Z" class="color2747b3 svgShape"></path></g><path fill="#fefefe" d="M213.86,201.88a1.12,1.12,0,0,1-2.21,0Z" class="colorfffeff svgShape"></path><path fill="#c9c9c9" d="M199.83,216.42a2.11,2.11,0,0,0,1.29-.72l-.5-3.23a2.15,2.15,0,0,0-3.24,2.16A2.15,2.15,0,0,0,199.83,216.42Z" class="colorf99ab6 svgShape"></path><path fill="#00abf0" d="M220.21,216.62a1.24,1.24,0,0,0,.8-1.55l-2.81-9.13-2.39.73,2.43,7.9-5.91,1.61.66,2.41,7.15-2Z" class="color8edef2 svgShape"></path><polygon fill="#00abf0" points="220.95 214.53 218.85 207.12 218.5 207.21 220.6 214.63 220.95 214.53" class="color61c8e0 svgShape"></polygon><polygon fill="#00abf0" points="217.65 212.38 216.42 207.99 216 208.05 217.23 212.43 217.65 212.38" class="color61c8e0 svgShape"></polygon><path fill="#c9c9c9" d="M209.33,217.15a2.19,2.19,0,0,0,.32,1.45l3.24.43a2.1,2.1,0,0,0,.69-1.31,2.14,2.14,0,1,0-4.25-.57Z" class="colorf99ab6 svgShape"></path><path fill="#081b29" d="M215.12,218.77a.54.54,0,0,0-.54-.53H195.21c-.41,0-.74.24-.74.53s.33.54.74.54h19.37a.54.54,0,0,0,.54-.54Z" class="color121f55 svgShape"></path><path fill="#ffffff" d="M215.88,218.77a.56.56,0,0,1-.58.54h-7.36a.54.54,0,1,1,0-1.07h7.36A.56.56,0,0,1,215.88,218.77Z" class="colorfff svgShape"></path><rect width="14.47" height="11.35" x="194.5" y="207.42" fill="#ffffff" rx=".79" class="colorfff svgShape"></rect><rect width="14.47" height="11.35" x="193.9" y="207.42" fill="#2186af" rx=".79" class="color2143af svgShape"></rect><path fill="#ffffff" d="M203.26,213.1h0a.84.84,0,0,0-.83-.84h-2.59a.84.84,0,0,0-.83.84h0a.83.83,0,0,0,.83.83h2.59A.83.83,0,0,0,203.26,213.1Z" class="colorfff svgShape"></path><g data-name="8. Right shoe" fill="#000000" class="color000 svgShape"><path fill="#aaaaaa" d="M248.61,230.41a2.19,2.19,0,1,0,2.71-1.51A2.2,2.2,0,0,0,248.61,230.41Z" class="colorf7b75d svgShape"></path><path fill="#aaaaaa" d="M242.09,230.83l8,2.28a1.59,1.59,0,0,0,2-1.1h0c.24-.84-.33-3-1.18-3.24l-8.38.08a1,1,0,0,0-.74,1.78A1,1,0,0,0,242.09,230.83Z" class="colorf7b75d svgShape"></path><path fill="#ffffff" d="M248.18 229.8h0a.36.36 0 00.34-.45l-.19-.83a.37.37 0 00-.38-.28h0a.36.36 0 00-.34.45l.19.83A.38.38 0 00248.18 229.8zM247 229.85h0a.36.36 0 00.34-.45l-.19-.83a.37.37 0 00-.38-.28h0a.36.36 0 00-.34.45l.19.83A.37.37 0 00247 229.85z" class="colorfff svgShape"></path></g><path fill="#00abf0" d="M253.13,215.49l.05,0,12-7.06,3.59,3.89L256.17,219l-3,12.83-.09,0-3.37-3L252,217A2.14,2.14,0,0,1,253.13,215.49Z" class="color8edef2 svgShape"></path><g data-name="8. Right shoe" fill="#000000" class="color000 svgShape"><path fill="#aaaaaa" d="M277.25,235.16a2,2,0,0,0,3.94,0,2,2,0,1,0-3.94,0Z" class="colorf7b75d svgShape"></path><path fill="#aaaaaa" d="M271.72,237.14l7.47,0a1.42,1.42,0,0,0,1.42-1.43h0c0-.79-1-2.51-1.82-2.51l-7.22,2.15a.94.94,0,0,0-.2,1.73A.85.85,0,0,0,271.72,237.14Z" class="colorf7b75d svgShape"></path><path fill="#ffffff" d="M276.72 234.74h0a.33.33 0 00.18-.48l-.37-.66a.34.34 0 00-.4-.15h0a.33.33 0 00-.18.47l.37.67A.34.34 0 00276.72 234.74zM275.7 235.08h0a.34.34 0 00.19-.48l-.38-.66a.33.33 0 00-.39-.15h0a.33.33 0 00-.19.47l.38.67A.33.33 0 00275.7 235.08z" class="colorfff svgShape"></path></g><path fill="#00abf0" d="M263.42,206.64l7.94-.86a9.66,9.66,0,0,1,1.27,3.07,4.63,4.63,0,0,1-3.49,5.53c-.61.14-3.62.18-5-1.2C262,211.16,263.42,206.64,263.42,206.64Z" class="color8edef2 svgShape"></path><path fill="#00abf0" d="M268.38,210.89h5.11l-2,12.16,8.63,10-4.48,1.26-8.23-9.23a2.17,2.17,0,0,1-.51-1.75Z" class="color8edef2 svgShape"></path><path fill="#081b29" d="M247.49,205.72l11.83-.21a1.41,1.41,0,0,0,1.24-.77l4.64-9.23-2.52-1.26-4.26,8.46-11,.19Z" class="color121f55 svgShape"></path><polygon fill="#c9c9c9" points="264.39 186.94 264.75 194.42 268.21 194.25 267.71 187.04 267.56 184.98 264.39 186.94" class="colorf99ab6 svgShape"></polygon><path fill="#c9c9c9" d="M267,189.3a4.43,4.43,0,0,1-2.42,2.4l-.12-2.5Z" class="colorf99ab6 svgShape"></path><path fill="#c9c9c9" d="M263.26 191.37c-.14 0-.41-.1-.54-.13-1.29-.36-2.56-2.48-2.51-3.7a25.24 25.24 0 00.12-3.18 2.36 2.36 0 012.56-2.36l2.76.11a1.87 1.87 0 011.8 1.95l-.18 4.47C267.21 190.12 264.83 191.62 263.26 191.37zM269 192.36a1.93 1.93 0 00-1.3-.31l-1.53.17a4.38 4.38 0 00-2 .76A5.88 5.88 0 00269 192.36z" class="colorf99ab6 svgShape"></path><path fill="#081b29" d="M271.33,195.3a3.37,3.37,0,0,0-2.45-3c-2.22.31-4.21.43-5,.61a4.39,4.39,0,0,0-1.87,4.12l.2,13.83c4.15,2.93,11.75,1.75,11.75,1.75C274,206.66,271.46,197.67,271.33,195.3Z" class="color121f55 svgShape"></path><path fill="#081b29" d="M255.81,205.64l9.67.1a1.39,1.39,0,0,0,1.4-1.2l1.59-10.64-2.78-.41-1.41,9.43-8.44-.09Z" class="color121f55 svgShape"></path><path fill="#aaaaaa" d="M264.31,192.86c.63-.15,1.75-.19,3.54-.41-1,2.33-3.67,4.27-4.46,7C263,199,263,193.75,264.31,192.86Z" class="colorf7b75d svgShape"></path><path fill="#278bb3" d="M264.42,193.29c.11-.14.48-.39.49-.53.29,0,.24.07.64,0-1.08,1-.46,2.66-.88,4.17a8.24,8.24,0,0,0-1.28,2.48,8.57,8.57,0,0,1-.13-3.6A5.49,5.49,0,0,1,264.42,193.29Z" class="color2747b3 svgShape"></path><path fill="#00c6ff" d="M264.29,193.54a.94.94,0,0,0,.9.14c.18-.13.35-.8.35-.8l-1.34-.21A2.25,2.25,0,0,0,264.29,193.54Z" class="colorb8b9f1 svgShape"></path><path fill="#081b29" d="M261.91,184.71c-5.33-1.16-1.49-4.55-1.49-4.55s.11,1.26,1.14.85c2-.79,6.28-1.29,7.46,1.29.92,2-.79,6.41-1.12,7.56-.53-.34-.08-5.51-2.27-5.3A12.59,12.59,0,0,1,261.91,184.71Z" class="color121f55 svgShape"></path><path fill="#fefefe" d="M262.72,190.25c-1.09,0-.39-1.84,0-1.82S263.81,190.3,262.72,190.25Z" class="colorfffeff svgShape"></path><polygon fill="#ffffff" points="266.22 194.15 268.93 192.36 268.01 191.35 264.79 192.78 266.22 194.15" class="colorfff svgShape"></polygon><polygon fill="#ffffff" points="263.97 193.46 264.13 192.86 264.64 192.32 264.87 192.78 263.97 193.46" class="colorfff svgShape"></polygon><path fill="#56afd3" d="M266.41,202.36a.6.6,0,0,0-.6-.59h-21.6c-.45,0-.82.27-.82.59s.37.6.82.6h21.6a.6.6,0,0,0,.6-.6Z" class="color566cd3 svgShape"></path><path fill="#ededed" d="M267.26,202.36a.62.62,0,0,1-.64.6h-8.21a.6.6,0,1,1,0-1.19h8.21A.62.62,0,0,1,267.26,202.36Z" class="colore5e9ff svgShape"></path><rect width="16.13" height="12.65" x="243.42" y="189.71" fill="#ededed" rx=".88" class="colore5e9ff svgShape"></rect><rect width="16.13" height="12.65" x="242.75" y="189.71" fill="#ffffff" rx=".88" class="colorfff svgShape"></rect><path fill="#ededed" d="M253.19,196h0a.93.93,0,0,0-.93-.93h-2.89a.92.92,0,0,0-.92.93h0a.92.92,0,0,0,.92.92h2.89A.93.93,0,0,0,253.19,196Z" class="colore5e9ff svgShape"></path><path fill="#c9c9c9" d="M256.72 204.23a2.39 2.39 0 00-.31-1.63l-3.63-.61a2.41 2.41 0 103.94 2.24zM249.05 203.56a2.4 2.4 0 00-.44-1.6l-3.68-.31a2.42 2.42 0 104.12 1.91z" class="colorf99ab6 svgShape"></path><path fill="#2186af" d="M119.79,116.37c-1.29,0-2.34-1.68-2.33-3.75s1.06-3.73,2.36-3.73,2.34,1.68,2.33,3.75S121.09,116.37,119.79,116.37Z" class="color2143af svgShape"></path><path fill="#2186af" d="M131.19,118.13c-1.51-.87-3.18-3-2.54-4.95,1.49-4.47-2-6.07-3.72-6.4a5.17,5.17,0,0,0-4.2.88c-1.56,1.25-1.1,3.4-.23,5.13a1.92,1.92,0,0,0-.85,2.59c1.18,1.89.16,4.44-.54,6-1.13,2.44.45,5.47,3.19,6.85a11,11,0,0,0,9.09,0,6.6,6.6,0,0,0,3.23-2.7C136,122.92,134,119.76,131.19,118.13Z" class="color2143af svgShape"></path><path fill="#c9c9c9" d="M112.26,135.22a17,17,0,0,1-2.07.17,1,1,0,1,1,0-1.91c3.36-.09,5.87-1.08,7.47-2.94a9.73,9.73,0,0,0,2-6.83,1,1,0,0,1,.84-1.07,1,1,0,0,1,1.06.83,11.57,11.57,0,0,1-2.41,8.31A10.57,10.57,0,0,1,112.26,135.22Z" class="colorf99ab6 svgShape"></path><path fill="#00abf0" d="M120.3,122a1.67,1.67,0,0,0-1.42,1.85,9.11,9.11,0,0,1-1.8,6.28,7.89,7.89,0,0,1-4.68,2.46,3.7,3.7,0,0,1,.22,3.33,11.2,11.2,0,0,0,7-3.63,12.31,12.31,0,0,0,2.58-8.85A1.66,1.66,0,0,0,120.3,122Z" class="color8edef2 svgShape"></path><path fill="#c9c9c9" d="M120.56,123.58a1.06,1.06,0,0,1-.3-1.68,3.36,3.36,0,0,1,2.43-1.08h.24a2.66,2.66,0,0,1,2.13.94C124.65,123,121.89,124.09,120.56,123.58Z" class="colorf99ab6 svgShape"></path><path fill="#c9c9c9" d="M122.18,118.9l0,1.08,0,2,1.56,0,0-2.59,0-1A2.6,2.6,0,0,1,122.18,118.9Z" class="colorf99ab6 svgShape"></path><path fill="#c9c9c9" d="M122.18,119.16l0,1.08a2.69,2.69,0,0,0,1.57-.74l0-.8A2.67,2.67,0,0,1,122.18,119.16Z" class="colorf99ab6 svgShape"></path><path fill="#c9c9c9" d="M122.57,119.72h0a4.52,4.52,0,0,0,4.48-4.58l0-1.77a4.51,4.51,0,0,0-1.44-3.27,4.44,4.44,0,0,0-3.13-1.21h0a4.37,4.37,0,0,0-2.19.59,4.52,4.52,0,0,0-2.29,4l0,1.78a4.51,4.51,0,0,0,2.21,3.84A4.61,4.61,0,0,0,122.57,119.72Z" class="colorf99ab6 svgShape"></path><path fill="#081b29" d="M119.13,134.44a4.29,4.29,0,1,0,5.14-3.24A4.29,4.29,0,0,0,119.13,134.44Z" class="color121f55 svgShape"></path><path fill="#fefefe" d="M122.27,117.36a1.21,1.21,0,0,1-2.38,0Z" class="colorfffeff svgShape"></path><path fill="#00abf0" d="M118.28,124.3c-.29.81.53,1.62,1.38,1.72a1.56,1.56,0,0,0,1.72-1.38c.1-.86-1.18-2.74-1.66-2S118.53,123.6,118.28,124.3Z" class="color8edef2 svgShape"></path><path fill="#00abf0" d="M125.06,121.75a2.66,2.66,0,0,1,.64,1.6s-.39,7.05,1.54,10.3l-8.22.69.22-9.76a3.59,3.59,0,0,1,1-2.68C120.3,123.48,123.54,121.58,125.06,121.75Z" class="color8edef2 svgShape"></path><path fill="#2186af" d="M119.52,153.25a1.46,1.46,0,0,0-1.2.95,32.29,32.29,0,0,1-.93,4.15c-.48,1.28-1,1.54-1.31,2.58s.53,1.19,1.34.87c.31-.12,2.32-.65,2.35-2.25a9,9,0,0,1,.26-3.06c.37-1,.69-.44.81-.13s.35.84.44,1a.15.15,0,0,0,.19.07h0a.14.14,0,0,0,.08-.2,7,7,0,0,1-.39-2C121.06,154,120.21,153.22,119.52,153.25Z" class="color2143af svgShape"></path><path fill="#c9c9c9" d="M118.73,158.77a11.12,11.12,0,0,0,.66-4.44c-.29-.75-1.84-.8-1.94-.13-.16,1.15.32,3.16-.63,5.31C116.93,160.07,118.24,159.86,118.73,158.77Z" class="colorf99ab6 svgShape"></path><path fill="#081b29" d="M124.66,139.34,114.54,144l.95-2.28,3.75,12.15a1.39,1.39,0,0,1-2.63.92L112,143a1.78,1.78,0,0,1,.88-2.25l.07,0L123,135.88a1.91,1.91,0,1,1,1.66,3.45Z" class="color121f55 svgShape"></path><path fill="#2186af" d="M112.72,149.43a1.45,1.45,0,0,0-1.5.28,33.11,33.11,0,0,1-2.76,3.23c-1,.91-1.58.92-2.37,1.68s-.08,1.29.78,1.39c.34,0,2.36.51,3.13-.89a9.14,9.14,0,0,1,1.66-2.59c.8-.71.82-.06.78.26s-.08.92-.09,1.13a.13.13,0,0,0,.13.15h0a.14.14,0,0,0,.16-.15,7.1,7.1,0,0,1,.6-2A2,2,0,0,0,112.72,149.43Z" class="color2143af svgShape"></path><path fill="#c9c9c9" d="M109.44,153.94a11,11,0,0,0,2.67-3.62c.09-.79-1.26-1.57-1.66-1-.68.94-1.2,2.94-3,4.41C107.25,154.26,108.51,154.68,109.44,153.94Z" class="colorf99ab6 svgShape"></path><path fill="#081b29" d="M124,139.65l-11.15-.56,1.91-1.58L112.36,150a1.4,1.4,0,0,1-1.63,1.12,1.42,1.42,0,0,1-1.13-1.54L111.05,137a1.79,1.79,0,0,1,1.83-1.58H113l11.15.44a1.92,1.92,0,1,1-.15,3.83Z" class="color121f55 svgShape"></path><path fill="#c9c9c9" d="M124.74,135.39c-.48.08-1,.14-1.56.18a1,1,0,0,1-1-.9,1,1,0,0,1,.89-1c1.78-.12,4-.55,4.58-2,.9-2.25-2.21-6.36-3.37-7.62a1,1,0,0,1,1.41-1.29c.54.58,5.25,5.85,3.74,9.62C128.78,134,127.21,135,124.74,135.39Z" class="colorf99ab6 svgShape"></path><path fill="#00abf0" d="M126.19,122.29a1.68,1.68,0,0,0-1.5-.51,1.62,1.62,0,0,0-1,.55,1.72,1.72,0,0,0,.08,2.26c1.32,1.45,3.89,5.09,3.19,6.83a1.63,1.63,0,0,1-.69.74,1.64,1.64,0,0,0-.78,1.72v0a1.63,1.63,0,0,0,2.38,1.15,4.77,4.77,0,0,0,2.17-2.41C131.7,128.56,127.12,123.3,126.19,122.29Z" class="color8edef2 svgShape"></path><path fill="#c9c9c9" d="M119.09 134.47a2.31 2.31 0 00.67 1.44l3.5-.29a2.3 2.3 0 10-4.17-1.15zM107.18 134.9a2.32 2.32 0 00.6 1.47l3.51-.14a2.34 2.34 0 00.49-1.51 2.3 2.3 0 10-4.6.18z" class="colorf99ab6 svgShape"></path><path fill="#2186af" d="M127.8,112.46c-.5,1.45-2.78,2-5.08,1.16s-3.76-2.64-3.26-4.08,2.79-2,5.09-1.16S128.31,111,127.8,112.46Z" class="color2143af svgShape"></path><path fill="#081b29" d="M125.38,135.79a.57.57,0,0,0-.57-.58H104c-.43,0-.79.26-.79.58s.36.58.79.58h20.86a.57.57,0,0,0,.57-.58Z" class="color121f55 svgShape"></path><path fill="#ffffff" d="M126.2,135.79a.6.6,0,0,1-.62.58h-7.92a.58.58,0,1,1,0-1.16h7.92A.6.6,0,0,1,126.2,135.79Z" class="colorfff svgShape"></path><rect width="15.57" height="12.21" x="103.19" y="123.57" fill="#ffffff" rx=".85" class="colorfff svgShape"></rect><rect width="15.57" height="12.21" x="102.54" y="123.57" fill="#2186af" rx=".85" class="color2143af svgShape"></rect><path fill="#ffffff" d="M112.62,129.68h0a.89.89,0,0,0-.9-.89h-2.78a.89.89,0,0,0-.9.89h0a.89.89,0,0,0,.9.89h2.78A.89.89,0,0,0,112.62,129.68Z" class="colorfff svgShape"></path><path fill="#d4d4d4" d="M139.44,133.24l2.16,3.1a.33.33,0,0,0,.15.25.42.42,0,0,0,.24.07.39.39,0,0,0,.23-.07.38.38,0,0,0,.16-.25l2.15-3.1a.37.37,0,1,0-.6-.42L142,135.6l-1.94-2.78a.37.37,0,1,0-.61.42Z" class="colorb9b8f1 svgShape"></path><path fill="#d4d4d4" d="M139.44,129.92l2.16,3.1a.33.33,0,0,0,.15.25.42.42,0,0,0,.24.07.39.39,0,0,0,.23-.07.38.38,0,0,0,.16-.25l2.15-3.1a.37.37,0,0,0-.6-.42L142,132.29l-1.94-2.79a.37.37,0,0,0-.52-.09A.37.37,0,0,0,139.44,129.92Z" class="colorb9b8f1 svgShape"></path><path fill="#d4d4d4" d="M139.3,126.6l2.15,3.1a.43.43,0,0,0,.16.26.38.38,0,0,0,.23.06.39.39,0,0,0,.24-.06.37.37,0,0,0,.15-.26l2.16-3.1a.36.36,0,0,0-.09-.51.37.37,0,0,0-.52.09L141.84,129l-1.93-2.79a.37.37,0,0,0-.52-.09A.36.36,0,0,0,139.3,126.6Z" class="colorb9b8f1 svgShape"></path><path fill="#d4d4d4" d="M139.3 123.28l2.15 3.1a.4.4 0 00.16.26.32.32 0 00.23.06.34.34 0 00.24-.06.35.35 0 00.15-.26l2.16-3.1a.36.36 0 00-.09-.51.37.37 0 00-.52.09l-1.94 2.79-1.93-2.79a.37.37 0 00-.52-.09A.36.36 0 00139.3 123.28zM178.19 93.21l3.61 5.19a.6.6 0 00.26.42.57.57 0 00.39.11.58.58 0 00.4-.11.62.62 0 00.25-.42l3.62-5.19a.63.63 0 00-.16-.87.62.62 0 00-.86.16l-3.25 4.67-3.24-4.67a.62.62 0 10-1 .71z" class="colorb9b8f1 svgShape"></path><path fill="#d4d4d4" d="M178.19,87.65l3.61,5.19a.58.58,0,0,0,.26.42.57.57,0,0,0,.39.11.58.58,0,0,0,.4-.11.6.6,0,0,0,.25-.42l3.62-5.19a.62.62,0,0,0-.16-.86.61.61,0,0,0-.86.15l-3.25,4.67-3.24-4.67a.62.62,0,0,0-1,.71Z" class="colorb9b8f1 svgShape"></path><path fill="#d4d4d4" d="M178,82.09l3.61,5.2a.6.6,0,0,0,.26.42.71.71,0,0,0,.4.11.7.7,0,0,0,.39-.11.63.63,0,0,0,.26-.42l3.61-5.2a.62.62,0,0,0-1-.71l-3.24,4.68L179,81.38a.62.62,0,0,0-1,.71Z" class="colorb9b8f1 svgShape"></path><path fill="#d4d4d4" d="M178 76.54l3.61 5.19a.6.6 0 00.26.42.64.64 0 00.4.11.62.62 0 00.65-.53l3.61-5.19a.63.63 0 00-.16-.87.62.62 0 00-.86.16l-3.24 4.67L179 75.83a.62.62 0 00-.86-.16A.63.63 0 00178 76.54zM167.2 85.39H140.54a3.38 3.38 0 00-3.39 3.38v14.87a3.39 3.39 0 003.39 3.38h14.31v8.33L163 107h4.18a3.38 3.38 0 003.38-3.38V88.77A3.38 3.38 0 00167.2 85.39z" class="colorb9b8f1 svgShape"></path><path fill="#2186af" d="M147 101.11l-3.86-3.87a.57.57 0 010-.8l3.76-3.76.8.8-3.36 3.36 3.47 3.46zM160.65 101.29l-.8-.8L163.4 97l-3.55-3.55.8-.8 3.95 4a.58.58 0 01.16.4.59.59 0 01-.16.4z" class="color2143af svgShape"></path><rect width="15.03" height="1.13" x="146.6" y="96.33" fill="#2186af" transform="rotate(-65.8 154.97 97.2)" class="color2143af svgShape"></rect><path fill="#d4d4d4" d="M307.86 240H48.52a1.5 1.5 0 010-3H307.86a1.5 1.5 0 010 3zM159.55 251.67h-40a1.5 1.5 0 110-3h40a1.5 1.5 0 010 3zM107.55 251.67h-10a1.5 1.5 0 110-3h10a1.5 1.5 0 010 3z" class="colorb9b8f1 svgShape"></path><path fill="#081b29" d="M132 243.69a1.62 1.62 0 01-1.32-.67L125 235.28a1.64 1.64 0 01.06-2l7.39-9a1.63 1.63 0 012.52 2.08l-6.58 8 4.9 6.71a1.64 1.64 0 01-.35 2.28A1.58 1.58 0 01132 243.69zM142.86 243.67a1.64 1.64 0 01-1-.31 1.62 1.62 0 01-.35-2.28l4.92-6.73-6.55-8a1.62 1.62 0 01.22-2.3 1.64 1.64 0 012.3.22l7.36 8.95a1.64 1.64 0 010 2L144.18 243A1.63 1.63 0 01142.86 243.67z" class="color121f55 svgShape"></path><path fill="#aaaaaa" d="M142.31,214.31a4.71,4.71,0,1,1-4.71-4.71A4.71,4.71,0,0,1,142.31,214.31Z" class="colorf7b75d svgShape"></path><polygon fill="#c9c9c9" points="139.33 220.1 139.32 224.58 139.31 227.51 135.88 227.5 136.05 220.34 136.1 218.3 139.33 220.1" class="colorf99ab6 svgShape"></polygon><path fill="#081b29" d="M132.5,227.12a4.35,4.35,0,0,1,2.47-3.4c1.87-1,4.76-.3,5.68.25a5.23,5.23,0,0,1,2.39,4.78l.11,10.44H132.06S132.47,230.3,132.5,227.12Z" class="color121f55 svgShape"></path><path fill="#c9c9c9" d="M140.06 223.71a6.49 6.49 0 00-4.85-.1l1.16 1.15a1.86 1.86 0 002.64 0zM138.5 211.62h-1.79a2.75 2.75 0 00-2.86 2.86 29.91 29.91 0 010 3.69c0 1.42 1.66 4.17 3.08 4.17h1.34c1.42 0 3.09-2.75 3.09-4.17a29.91 29.91 0 010-3.69A2.75 2.75 0 00138.5 211.62z" class="colorf99ab6 svgShape"></path><path fill="#fefefe" d="M136.16,219.79a1.47,1.47,0,0,0,2.89,0Z" class="colorfffeff svgShape"></path><path fill="#56afd3" d="M139.39,249.18h-3.57a4.06,4.06,0,0,1-4-4.85l.22-5.14h11.09l.22,5.14A4.06,4.06,0,0,1,139.39,249.18Z" class="color566cd3 svgShape"></path><path fill="#56afd3" d="M121.37,243.45,136.52,242l.43,4.53L121.8,248a2.25,2.25,0,0,1-2.46-2v-.05A2.25,2.25,0,0,1,121.37,243.45Z" class="color566cd3 svgShape"></path><path fill="#56afd3" d="M151.61,243.45,136.46,242l-.43,4.53L151.18,248a2.24,2.24,0,0,0,2.45-2v-.05A2.25,2.25,0,0,0,151.61,243.45Z" class="color566cd3 svgShape"></path><rect width="14.9" height="10.67" x="130.15" y="235.83" fill="#ffffff" rx="1.17" class="colorfff svgShape"></rect><rect width="14.9" height="10.67" x="130.15" y="236.33" fill="#d4d4d4" rx="1.17" class="colorb9b8f1 svgShape"></rect><rect width="5.2" height="1.78" x="135" y="240.77" fill="#ffffff" rx=".88" class="colorfff svgShape"></rect><path fill="#ffffff" d="M131.63,251.16l4.42-.27,0,.08a.42.42,0,1,0,.82.14l.05-.27.49,0,0,.13a.42.42,0,0,0,.82.13l.05-.31,2.78-.17.17-.09a1.92,1.92,0,0,0,.32-.09,2.46,2.46,0,1,0-1.67-4.62h0L131,249a.9.9,0,0,0-.36.25A1.17,1.17,0,0,0,131.63,251.16Z" class="colorfff svgShape"></path><g data-name="8. Right shoe" fill="#000000" class="color000 svgShape"><path fill="#aaaaaa" d="M138.38,249.54a2.46,2.46,0,1,1,3.15,1.48A2.46,2.46,0,0,1,138.38,249.54Z" class="colorf7b75d svgShape"></path><path fill="#aaaaaa" d="M131.05,249.57l8.76-3.17a1.8,1.8,0,0,1,2.29,1.07h0c.33.93-.14,3.39-1.07,3.72l-9.38.57a1.18,1.18,0,0,1-1-1.94A1,1,0,0,1,131.05,249.57Z" class="colorf7b75d svgShape"></path><path fill="#ffffff" d="M137.94 250.25h0a.42.42 0 01.42.48l-.16.94a.4.4 0 01-.39.35h0a.41.41 0 01-.42-.48l.15-.94A.42.42 0 01137.94 250.25zM136.6 250.29h0a.41.41 0 01.42.48l-.15.94a.42.42 0 01-.4.35h0a.42.42 0 01-.42-.48l.15-1A.42.42 0 01136.6 250.29z" class="colorfff svgShape"></path></g><path fill="#c9c9c9" d="M150.69,244.41l-10.24,2.75a1.85,1.85,0,0,0-1.3,2.26v0a1.85,1.85,0,0,0,2.26,1.3L151.65,248a1.84,1.84,0,0,0,1.31-2.26v0A1.84,1.84,0,0,0,150.69,244.41Z" class="colorf99ab6 svgShape"></path><path fill="#ffffff" d="M141.35,251.16l-4.42-.27,0,.08a.42.42,0,1,1-.82.14l0-.27-.49,0,0,.13a.42.42,0,1,1-.82.13l0-.31-2.78-.17-.17-.09a1.92,1.92,0,0,1-.32-.09,2.46,2.46,0,1,1,1.67-4.62h0L142,249a1,1,0,0,1,.36.25A1.17,1.17,0,0,1,141.35,251.16Z" class="colorfff svgShape"></path><g data-name="8. Right shoe" fill="#000000" class="color000 svgShape"><path fill="#aaaaaa" d="M134.6,249.54a2.46,2.46,0,1,0-3.15,1.48A2.46,2.46,0,0,0,134.6,249.54Z" class="colorf7b75d svgShape"></path><path fill="#aaaaaa" d="M141.93,249.57l-8.76-3.17a1.8,1.8,0,0,0-2.29,1.07h0c-.33.93.14,3.39,1.07,3.72l9.38.57a1.18,1.18,0,0,0,1-1.94A1,1,0,0,0,141.93,249.57Z" class="colorf7b75d svgShape"></path><path fill="#ffffff" d="M135 250.25h0a.42.42 0 00-.42.48l.16.94a.4.4 0 00.39.35h0a.41.41 0 00.42-.48l-.15-.94A.42.42 0 00135 250.25zM136.38 250.29h0a.41.41 0 00-.42.48l.15.94a.42.42 0 00.4.35h0a.42.42 0 00.42-.48l-.15-1A.42.42 0 00136.38 250.29z" class="colorfff svgShape"></path></g><path fill="#c9c9c9" d="M122.29,244.41l10.24,2.75a1.85,1.85,0,0,1,1.3,2.26v0a1.85,1.85,0,0,1-2.26,1.3L121.33,248a1.84,1.84,0,0,1-1.31-2.26v0A1.84,1.84,0,0,1,122.29,244.41Z" class="colorf99ab6 svgShape"></path><path fill="#aaaaaa" d="M137.51,209.6c-3.13,0-5.85,3.31-5.85,3.31,3.91,2.39,6.66.63,7.6-.14a1.88,1.88,0,0,0,.84-1.32Z" class="colorf7b75d svgShape"></path></g></svg></g></svg>