<svg xmlns="http://www.w3.org/2000/svg" fill-rule="evenodd" stroke-linejoin="round" stroke-miterlimit="2" clip-rule="evenodd" viewBox="0 0 64 64" id="Fullstack"><circle cx="56" cy="16" r="1" fill="#081b29" class="color000000 svgShape"></circle><circle cx="52" cy="16" r="1" fill="#081b29" class="color000000 svgShape"></circle><circle cx="48" cy="16" r="1" fill="#081b29" class="color000000 svgShape"></circle><path d="M6 53h52a3 3 0 0 0 3-3V14a3 3 0 0 0-3-3H6a3 3 0 0 0-3 3v36a3 3 0 0 0 3 3Zm53-32v29a1 1 0 0 1-1 1H6a1 1 0 0 1-1-1V21h54Zm0-2H5v-5a1 1 0 0 1 1-1h52a1 1 0 0 1 1 1v5Z" fill="#081b29" class="color000000 svgShape"></path><path d="m22.983 34.058-2.402 1.108a1 1 0 0 0 .01 1.82l2.392 1.072-2.402 1.108a1 1 0 0 0 .01 1.82l11 4.927c.26.116.558.116.818 0l11-4.927a.999.999 0 0 0 .01-1.82l-2.402-1.108 2.392-1.072a.999.999 0 0 0 .01-1.82l-2.402-1.108 2.392-1.072a.999.999 0 0 0 .01-1.82l-11-5.074a.998.998 0 0 0-.838 0l-11 5.074a1 1 0 0 0 .01 1.82l2.392 1.072Zm2.423 5.085-1.989.917L32 43.904l8.583-3.844-1.989-.917-6.185 2.77c-.26.116-.558.116-.818 0l-6.185-2.77Zm0-4-1.989.917L32 39.904l8.583-3.844-1.989-.917-6.185 2.77c-.26.116-.558.116-.818 0l-6.185-2.77Zm15.177-3.083L32 35.904l-8.583-3.844L32 28.101l8.583 3.959Z" fill="#081b29" class="color000000 svgShape"></path></svg>