<svg xmlns="http://www.w3.org/2000/svg" viewBox="0 0 512 512" id="HotelSearch"><circle cx="203.822" cy="204.327" r="112.312" fill="#ededed" transform="rotate(-45 203.822 204.327)" class="colore9f6ff svgShape"></circle><circle cx="307.688" cy="308.193" r="112.312" fill="#ededed" transform="rotate(-16.845 307.688 308.193)" class="colore9f6ff svgShape"></circle><path fill="#081b29" d="m391.294 95.346-7.105.006a23.188 23.188 0 0 0-22.956 20.163l14.171-.002a13.573 13.573 0 1 1 .003 11.2l-14.484-.001.007 69.473h53.636v-77.567a23.272 23.272 0 0 0-23.272-23.272Z" class="colorafd8f9 svgShape"></path><path fill="#dedede" d="M417.108 257.297a161.375 161.375 0 0 1-161.354 161.369v2.628a164.003 164.003 0 0 0 163.982-163.997zm-277.32-115.956a162.942 162.942 0 0 0-48.014 115.956h2.628A161.347 161.347 0 0 1 255.754 95.93v-2.628a162.894 162.894 0 0 0-115.966 48.04zm-33.444 177.004-2.431.995q.504 1.23 1.025 2.45l2.416-1.033q-.514-1.2-1.01-2.412zm2.058 4.807-2.4 1.072q.543 1.213 1.104 2.417l2.382-1.113q-.553-1.183-1.086-2.376zm9.747 18.465-2.239 1.375q.695 1.13 1.405 2.25l2.22-1.41q-.702-1.102-1.386-2.215zm-5.171-9.072-2.324 1.227q.62 1.175 1.259 2.338l2.303-1.266q-.63-1.143-1.238-2.299zm-2.365-4.66-2.362 1.152q.582 1.194 1.183 2.378l2.342-1.19q-.59-1.164-1.163-2.34zm4.878 9.238-2.283 1.303q.658 1.152 1.333 2.294l2.262-1.339q-.665-1.123-1.312-2.258zm14.696 21.53-2.045 1.651q.833 1.03 1.682 2.048l2.017-1.683q-.835-1.002-1.654-2.016zm-9.234-12.632-2.195 1.447q.73 1.107 1.478 2.202l2.171-1.482q-.735-1.077-1.454-2.167zm12.575 16.635-1.99 1.716q.867 1.003 1.747 1.993l1.962-1.75q-.868-.972-1.719-1.96zm-6.554-8.113-2.097 1.585q.8 1.057 1.616 2.102l2.07-1.619q-.802-1.027-1.59-2.068zm10.023 12.006-1.934 1.78q.897.974 1.81 1.934l1.904-1.81q-.898-.946-1.78-1.904zm-13.102-16.218-2.147 1.517q.765 1.082 1.547 2.152l2.122-1.55q-.769-1.053-1.522-2.119zm-28.748-77.419-2.616.252q.127 1.32.275 2.634l2.611-.293q-.146-1.293-.27-2.593zm.582 5.18-2.606.335q.168 1.316.358 2.625l2.601-.378q-.187-1.287-.353-2.581zm-.996-10.376-2.623.167q.085 1.324.19 2.641l2.62-.208q-.104-1.297-.187-2.6zm-.25-5.206-2.626.083q.041 1.325.105 2.646l2.625-.125q-.062-1.3-.103-2.604zm1.994 20.74-2.595.42q.212 1.31.444 2.611l2.587-.46q-.228-1.282-.436-2.57zm-2.075-25.953h-2.628q0 1.326.02 2.648l2.628-.04q-.02-1.302-.02-2.608zm4.07 36.184-2.56.587q.295 1.292.611 2.576l2.552-.626q-.31-1.265-.602-2.537zm-1.08-5.099-2.579.504q.254 1.301.529 2.595l2.57-.545q-.27-1.273-.52-2.554zm3.736 15.178-2.517.752q.379 1.271.779 2.532l2.505-.793q-.393-1.241-.767-2.49zm1.577 4.98-2.492.833q.421 1.262.864 2.516l2.478-.876q-.435-1.232-.85-2.473zm1.74 4.933-2.464.915q.463 1.246.946 2.484l2.448-.955q-.475-1.217-.93-2.444zm-4.726-14.93-2.54.669q.335 1.282.695 2.556l2.53-.71q-.352-1.254-.685-2.516zm63.273 94.015q1.09.748 2.192 1.48l1.453-2.19q-1.085-.72-2.156-1.456zm47.625 22.447q1.272.363 2.553.707l.68-2.54q-1.26-.336-2.511-.694zm-71.905-42.837q.927.945 1.869 1.875l1.847-1.87q-.928-.916-1.84-1.846zm82.18 45.413q1.294.28 2.594.54l.514-2.577q-1.278-.256-2.552-.531zm-25.32-7.68q1.23.486 2.472.952l.924-2.46q-1.22-.458-2.432-.937zm4.959 1.864q1.246.445 2.5.871l.846-2.488q-1.236-.42-2.462-.858zm5.016 1.702q1.26.405 2.529.79l.763-2.515q-1.25-.379-2.488-.777zm20.54 5.15q1.302.238 2.61.456l.43-2.593q-1.287-.213-2.567-.447zm26.373.016-.053 2.627q1.32.027 2.648.033l.01-2.628q-1.304-.006-2.605-.032zm-21.147.852q1.308.195 2.624.37l.345-2.605q-1.293-.171-2.58-.364zm15.807 1.585q1.32.069 2.647.116l.093-2.626q-1.305-.047-2.604-.114zm-10.556-.887q1.314.154 2.634.286l.261-2.615q-1.299-.13-2.59-.28zm5.271.528q1.317.11 2.641.201l.178-2.622q-1.303-.088-2.6-.198zm-26.101-4.334q1.284.321 2.574.623l.598-2.558q-1.27-.298-2.533-.614zm-61.262-30.088q1.04.818 2.091 1.619l1.593-2.091q-1.036-.79-2.06-1.593zm-4.107-3.337q1.012.851 2.04 1.686l1.657-2.04q-1.011-.822-2.007-1.658zm-7.884-7.064q.957.914 1.93 1.814l1.784-1.93q-.957-.884-1.898-1.784zm16.201 13.605q1.064.783 2.142 1.55l1.524-2.142q-1.06-.754-2.11-1.526zm-12.316-10.01q.986.884 1.986 1.751l1.722-1.985q-.984-.854-1.953-1.722zm34.772 23.894q1.175.6 2.36 1.184l1.16-2.359q-1.167-.574-2.323-1.165zm-13.74-7.895q1.112.713 2.236 1.408l1.382-2.235q-1.106-.685-2.202-1.386zm18.478 10.224q1.193.562 2.396 1.106l1.083-2.394q-1.184-.535-2.358-1.09zm4.81 2.174q1.21.524 2.43 1.028l1.004-2.428q-1.201-.496-2.391-1.012zm-14.211-6.986q1.155.64 2.322 1.26l1.235-2.32q-1.149-.61-2.284-1.24zm-4.582-2.633q1.135.676 2.28 1.336l1.31-2.28q-1.128-.648-2.244-1.313zM331.455 114.76q1.148.611 2.285 1.24l1.273-2.3q-1.156-.639-2.323-1.26zm4.55 2.517q1.127.648 2.243 1.313l1.346-2.257q-1.134-.676-2.28-1.335zm-18.639-9.163q1.201.497 2.392 1.012l1.043-2.411q-1.21-.524-2.43-1.029zm4.765 2.062q1.185.536 2.36 1.09l1.12-2.377q-1.193-.563-2.397-1.107zm4.7 2.217q1.166.573 2.321 1.165l1.198-2.34q-1.175-.601-2.36-1.184zm18.02 10.353q1.084.72 2.156 1.457l1.489-2.167q-1.09-.748-2.191-1.48zm-4.38-2.806q1.106.685 2.201 1.386l1.417-2.213q-1.112-.713-2.236-1.408zm20.944 15.405q.984.854 1.954 1.722l1.753-1.957q-.986-.883-1.986-1.75zm-12.276-9.652q1.06.755 2.11 1.526l1.556-2.117q-1.065-.783-2.141-1.55zm16.155 13.127q.957.886 1.9 1.786l1.814-1.9q-.957-.915-1.929-1.814zm-11.962-10.042q1.036.788 2.06 1.593l1.624-2.066q-1.04-.817-2.092-1.618zm4.094 3.219q1.01.82 2.007 1.657l1.69-2.012q-1.012-.85-2.04-1.685zm-59.79-30.577q1.26.338 2.512.696l.722-2.527q-1.272-.364-2.554-.707zm-25.61-4.68q1.3.13 2.592.282l.304-2.611q-1.314-.153-2.634-.285zm10.333 1.374q1.288.213 2.568.447l.472-2.585q-1.302-.238-2.61-.455zm-5.155-.77q1.294.171 2.58.364l.388-2.6q-1.307-.195-2.623-.37zM256.42 95.93q1.305.006 2.606.031l.053-2.627q-1.322-.026-2.647-.032zm5.205.103q1.305.048 2.605.114l.136-2.624q-1.32-.068-2.646-.116zm41.023 6.818q1.248.38 2.488.777l.803-2.502q-1.26-.405-2.528-.79zm9.87 3.35q1.22.458 2.432.936l.965-2.444q-1.232-.486-2.473-.953zm-25.032-7.152q1.28.255 2.552.53l.556-2.567q-1.294-.28-2.593-.54zm20.124 5.396q1.235.42 2.462.858l.884-2.475q-1.246-.445-2.5-.871zm-15.03-4.293q1.27.297 2.534.613l.639-2.549q-1.284-.321-2.574-.623zm78.329 40.397-1.847 1.87q.928.916 1.84 1.846l1.876-1.841q-.928-.945-1.87-1.875zM266.832 96.305q1.303.088 2.6.197l.218-2.62q-1.317-.11-2.64-.2zM414.984 217.95l-2.552.628q.312 1.264.603 2.535l2.561-.586q-.295-1.292-.612-2.577zm1.183 5.163-2.57.547q.27 1.273.52 2.553l2.579-.504q-.254-1.302-.53-2.596zm-2.533-10.286-2.531.711q.352 1.254.686 2.515l2.54-.67q-.337-1.282-.695-2.556zm3.548 15.486-2.587.462q.229 1.28.437 2.569l2.594-.42q-.212-1.309-.444-2.611zm-6.758-25.616-2.477.876q.434 1.232.85 2.473l2.492-.834q-.421-1.262-.865-2.515zm1.688 5.043-2.505.794q.395 1.246.77 2.501l2.518-.752q-.38-1.276-.783-2.543zm7.604 46.91-2.628.04q.02 1.301.02 2.607h2.628q0-1.326-.02-2.648zm-.168-5.295-2.625.125q.063 1.3.103 2.605l2.627-.083q-.041-1.326-.105-2.647zm-10.974-51.64-2.448.953q.474 1.218.93 2.444l2.464-.914q-.463-1.247-.946-2.484zm10.637 46.355-2.62.208q.104 1.297.186 2.6l2.623-.167q-.085-1.323-.19-2.641zm-1.183-10.528-2.6.378q.187 1.287.353 2.582l2.606-.335q-.168-1.316-.359-2.625zm.676 5.254-2.611.294q.145 1.293.27 2.592l2.616-.251q-.127-1.32-.275-2.635zm-40.499-90.569-1.962 1.75q.869.972 1.719 1.959l1.99-1.716q-.866-1.004-1.747-1.993zm9.992 12.363-2.122 1.55q.77 1.054 1.524 2.12l2.145-1.518q-.765-1.082-1.547-2.152zM385 156.361l-2.07 1.62q.803 1.026 1.59 2.067l2.096-1.585q-.8-1.058-1.616-2.102zm-3.332-4.122-2.017 1.685q.835 1 1.656 2.015l2.044-1.652q-.834-1.031-1.683-2.048zm9.59 12.682-2.17 1.481q.735 1.077 1.455 2.167l2.194-1.447q-.73-1.107-1.478-2.201zm-16.64-20.591-1.905 1.81q.898.945 1.781 1.904l1.934-1.78q-.898-.974-1.81-1.934zm29.774 43.618-2.382 1.11q.553 1.184 1.088 2.378l2.398-1.074q-.543-1.212-1.104-2.414zm-2.327-4.775-2.343 1.189q.59 1.165 1.163 2.34l2.362-1.152q-.581-1.194-1.182-2.377zm4.497 9.622-2.415 1.035q.513 1.201 1.01 2.412l2.431-.996q-.503-1.23-1.026-2.45zm-9.607-18.926-2.26 1.34q.664 1.122 1.311 2.256l2.283-1.302q-.658-1.153-1.334-2.294zm2.63 4.609-2.304 1.267q.63 1.143 1.239 2.298l2.324-1.227q-.62-1.175-1.26-2.338zm-5.404-9.13-2.22 1.41q.701 1.101 1.385 2.214l2.24-1.375q-.694-1.13-1.405-2.249z" class="colorc8dff5 svgShape"></path><path fill="#dedede" d="M319.971 141.639c-17.094-31.17-39.905-48.337-64.231-48.337v2.628c48.468 0 87.9 72.389 87.9 161.367h2.629c0-43.662-9.34-84.737-26.298-115.658zM167.863 257.297h-2.628c0 43.666 9.335 84.742 26.285 115.66 17.087 31.17 39.895 48.337 64.22 48.337v-2.628c-48.455 0-87.877-72.39-87.877-161.369zM174.617 184.417l2.536.693q.344-1.264.703-2.516l-2.526-.723q-.363 1.267-.713 2.546Zm-1.338 5.114 2.55.636q.317-1.271.648-2.531l-2.542-.666q-.334 1.274-.656 2.56Zm-2.346 10.301 2.574.532q.265-1.285.541-2.56l-2.569-.556q-.278 1.287-.546 2.584Zm-1.014 5.186 2.585.478q.239-1.29.488-2.57l-2.579-.503q-.252 1.293-.494 2.595Zm6.15-25.683 2.52.75q.373-1.257.76-2.5l-2.51-.78q-.39 1.258-.77 2.53Zm5.075-15.029 2.458.933q.464-1.226.942-2.435l-2.444-.965q-.484 1.226-.956 2.467Zm-1.815 4.97 2.48.87q.435-1.238.88-2.46l-2.469-.9q-.451 1.237-.89 2.49Zm-10.32 40.945 2.594.428q.214-1.295.437-2.58l-2.589-.451q-.226 1.296-.441 2.603Zm8.63-35.936 2.5.81q.405-1.247.82-2.48l-2.49-.84q-.42 1.247-.83 2.51Zm-10.752 51.635 2.612.278q.14-1.304.29-2.6l-2.61-.303q-.153 1.309-.292 2.625Zm-1.476 21.064 2.627.088q.044-1.309.1-2.613l-2.625-.114q-.056 1.317-.102 2.639Zm2.791-31.544 2.601.378q.188-1.298.387-2.587l-2.597-.402q-.2 1.301-.39 2.61Zm-2.967 41.857h2.628q0-1.192.01-2.38l-2.628-.022q-.01 1.2-.01 2.402Zm.403-15.588 2.624.135q.067-1.308.147-2.611l-2.622-.16q-.082 1.315-.149 2.636Zm-.361 10.552 2.628.043q.021-1.31.054-2.615l-2.626-.068q-.035 1.318-.056 2.64Zm2.218-31.586 2.607.326q.163-1.3.338-2.594l-2.604-.35q-.177 1.305-.34 2.618Zm-1.537 15.763 2.622.184q.092-1.308.194-2.61l-2.62-.206q-.103 1.313-.196 2.632Zm17.129-77.053 2.431.998q.498-1.212 1.008-2.407l-2.417-1.032q-.517 1.211-1.022 2.44Zm-16.712 71.79 2.618.231q.115-1.306.24-2.605l-2.614-.254q-.129 1.31-.244 2.629Zm5.677-36.505 2.563.583q.29-1.279.593-2.546l-2.556-.61q-.306 1.28-.6 2.573Zm13.114-40.153 2.402 1.065q.531-1.198 1.076-2.377l-2.387-1.1q-.552 1.196-1.091 2.412Zm42.475-53.192 1.333 2.264c.746-.439 1.5-.862 2.242-1.26l-1.24-2.316c-.773.413-1.559.854-2.335 1.312Zm-8.774 6.105 1.65 2.046q1.012-.816 2.036-1.588l-1.58-2.1a79.983 79.983 0 0 0-2.106 1.642Zm-4.044 3.485 1.778 1.935q.958-.88 1.931-1.718l-1.715-1.991q-1.004.865-1.994 1.774Zm17.545-12.118 1.138 2.37c.775-.374 1.562-.73 2.338-1.062l-1.032-2.417c-.812.347-1.634.72-2.444 1.11Zm15.321-4.858.414 2.595a49.466 49.466 0 0 1 2.527-.334l-.277-2.614c-.888.094-1.784.213-2.664.353Zm-10.384 2.752.919 2.462c.8-.299 1.614-.581 2.421-.839l-.8-2.503c-.847.27-1.701.566-2.54.88Zm15.734-3.318.138 2.625a48.87 48.87 0 0 1 2.563-.068v-2.628c-.895 0-1.803.024-2.701.071Zm-10.613 1.682.675 2.54c.823-.218 1.66-.419 2.488-.594l-.547-2.571c-.87.185-1.751.395-2.616.625Zm-19.288 9.164 1.502 2.156a71.47 71.47 0 0 1 2.142-1.435l-1.422-2.21c-.732.47-1.48.971-2.222 1.489Zm-33.393 40.75 2.333 1.208q.604-1.164 1.218-2.304l-2.312-1.248q-.626 1.16-1.239 2.343Zm2.516-4.665 2.293 1.284q.64-1.141 1.293-2.26l-2.269-1.325q-.665 1.138-1.317 2.301Zm2.675-4.58 2.244 1.367q.68-1.118 1.374-2.212l-2.22-1.407q-.705 1.114-1.398 2.253Zm-7.555 13.985 2.37 1.136q.567-1.182 1.146-2.343l-2.352-1.173q-.588 1.18-1.164 2.38Zm20.018-31.16 1.98 1.729q.859-.984 1.73-1.932l-1.933-1.779q-.895.973-1.777 1.982Zm-3.399 4.09 2.06 1.631q.812-1.024 1.636-2.016l-2.021-1.68q-.844 1.015-1.675 2.065Zm7.004-8.008 1.885 1.831q.91-.936 1.83-1.833l-1.833-1.883q-.947.923-1.882 1.885Zm-13.227 16.614 2.192 1.45q.723-1.092 1.457-2.156l-2.162-1.492q-.75 1.085-1.487 2.198Zm3.018-4.368 2.13 1.54q.766-1.061 1.545-2.092l-2.096-1.584q-.797 1.053-1.58 2.136Z" class="colorc8dff5 svgShape"></path><path fill="#dedede" d="M374.134 144.283a164.602 164.602 0 0 0-52.872-37.209 161.286 161.286 0 0 0-65.508-13.772c-44.936 0-86.998 18.105-118.437 50.98l-.867.907.866.908c31.4 32.92 73.462 51.05 118.438 51.05a161.173 161.173 0 0 0 65.508-13.776 164.279 164.279 0 0 0 52.873-37.275l.863-.907zM320.2 180.967a158.563 158.563 0 0 1-64.447 13.552c-43.835 0-84.86-17.508-115.664-49.328 30.842-31.776 71.868-49.261 115.664-49.261a158.674 158.674 0 0 1 64.447 13.549 161.886 161.886 0 0 1 51.16 35.712 161.569 161.569 0 0 1-51.16 35.776zm51.822 190.082a163.748 163.748 0 0 0-232.567 0l-.917.926.918.925a163.901 163.901 0 0 0 232.566 0l.919-.925zm-116.269 47.617a160.117 160.117 0 0 1-113.506-46.693 161.121 161.121 0 0 1 226.983 0 160.167 160.167 0 0 1-113.477 46.693zM93.088 255.983h325.334v2.628H93.088z" class="colorc8dff5 svgShape"></path><path fill="#dedede" d="M254.44 94.616h2.628V419.98h-2.628z" class="colorc8dff5 svgShape"></path><path fill="#dedede" d="m303.788 392.347 2.021 1.68q.844-1.015 1.675-2.064l-2.06-1.632q-.811 1.024-1.636 2.016Zm3.226-4.071 2.096 1.585q.796-1.053 1.579-2.137l-2.13-1.539q-.767 1.06-1.545 2.09Zm15.833-26.876 2.386 1.1q.552-1.196 1.092-2.411l-2.402-1.067q-.533 1.199-1.076 2.378Zm-12.788 22.661 2.162 1.495q.75-1.085 1.487-2.2l-2.191-1.45q-.723 1.092-1.458 2.155Zm-13.297 15.91 1.834 1.882q.947-.922 1.882-1.884l-1.886-1.831q-.908.935-1.83 1.832Zm16.17-20.248 2.219 1.408q.707-1.113 1.4-2.253l-2.245-1.366q-.68 1.118-1.373 2.211Zm7.66-13.62 2.352 1.172q.587-1.179 1.163-2.379l-2.369-1.137q-.567 1.182-1.146 2.344Zm-2.4 4.628 2.312 1.248q.626-1.16 1.239-2.343l-2.333-1.21q-.603 1.164-1.219 2.305Zm-2.551 4.544 2.268 1.326q.665-1.139 1.318-2.301l-2.292-1.285q-.64 1.142-1.294 2.26Zm-15.267 20.979 1.933 1.78q.895-.973 1.776-1.981l-1.977-1.73q-.86.982-1.732 1.931Zm-39.525 22.142.277 2.613a51.75 51.75 0 0 0 2.665-.352l-.414-2.595c-.835.132-1.685.245-2.528.334Zm5.04-.801.547 2.57c.87-.184 1.751-.395 2.617-.625l-.675-2.54c-.823.22-1.66.42-2.488.595Zm4.946-1.313.8 2.503a56.1 56.1 0 0 0 2.54-.88l-.92-2.461c-.801.299-1.615.58-2.42.838Zm-15.095 2.384v2.628c.899 0 1.808-.024 2.7-.071l-.138-2.624c-.847.044-1.709.067-2.562.067Zm24.524-6.398 1.239 2.316a67 67 0 0 0 2.336-1.311l-1.332-2.266c-.75.44-1.504.865-2.243 1.26Zm-4.627 2.223 1.031 2.417c.81-.345 1.632-.718 2.445-1.109l-1.138-2.369c-.778.374-1.565.731-2.338 1.061Zm13.29-7.782 1.58 2.1a79.626 79.626 0 0 0 2.107-1.641l-1.65-2.045a76.412 76.412 0 0 1-2.036 1.586Zm-4.23 2.949 1.422 2.21c.745-.479 1.493-.98 2.223-1.49l-1.503-2.155c-.704.49-1.424.973-2.141 1.435Zm8.251-6.19 1.716 1.99q1.003-.865 1.993-1.773l-1.777-1.936q-.958.88-1.932 1.718Zm35.855-56.549 2.469.902q.453-1.237.892-2.49l-2.48-.87q-.433 1.237-.88 2.458Zm13.924-66.323 2.62.206q.103-1.312.196-2.632l-2.622-.184q-.092 1.308-.194 2.61Zm-.459 5.212 2.615.254q.128-1.311.244-2.629l-2.618-.23q-.115 1.306-.24 2.605Zm-.555 5.202 2.61.303q.153-1.308.293-2.624l-2.613-.28q-.14 1.304-.29 2.6Zm-.652 5.19 2.603.353q.177-1.305.342-2.62l-2.607-.326q-.163 1.3-.338 2.593Zm2.483-31.28 2.627.067q.034-1.317.056-2.64l-2.628-.042q-.02 1.31-.055 2.615Zm-18.58 91.71 2.417 1.032q.518-1.212 1.023-2.442l-2.432-.997q-.496 1.212-1.007 2.406Zm18.677-99.333q0 1.2-.01 2.395l2.628.021q.01-1.205.01-2.416Zm-.548 18.078 2.623.16q.08-1.314.149-2.635l-2.624-.136q-.068 1.308-.148 2.611Zm.272-5.225 2.625.113q.057-1.316.102-2.638l-2.627-.089q-.044 1.31-.1 2.614Zm-3.055 31.228 2.597.401q.2-1.301.39-2.61l-2.6-.379q-.189 1.298-.387 2.588Zm-9.775 40.613 2.49.84q.42-1.248.83-2.51l-2.5-.81q-.405 1.247-.82 2.48Zm1.61-4.97 2.51.78q.39-1.257.77-2.529l-2.518-.75q-.375 1.256-.761 2.5Zm-5.196 14.78 2.444.966q.484-1.225.956-2.467l-2.457-.934q-.465 1.226-.943 2.435Zm12.51-45.263 2.588.453q.229-1.297.443-2.604l-2.593-.426q-.213 1.293-.438 2.577Zm-5.82 25.475 2.527.722q.361-1.266.712-2.545l-2.535-.694q-.346 1.264-.704 2.517Zm4.868-20.332 2.58.504q.251-1.292.494-2.594l-2.585-.48q-.239 1.29-.489 2.57Zm-1.056 5.121 2.567.558q.28-1.287.547-2.586l-2.573-.53q-.265 1.285-.541 2.558Zm-2.43 10.17 2.541.666q.334-1.275.656-2.561l-2.55-.637q-.317 1.272-.647 2.532Zm1.268-5.071 2.557.61q.305-1.28.6-2.572l-2.563-.585q-.291 1.279-.594 2.547Z" class="colorc8dff5 svgShape"></path><path fill="#ffffff" d="M330.075 182.92a105.289 105.289 0 1 0 0 148.91 105.285 105.285 0 0 0 0-148.91Z" class="colorffffff svgShape"></path><path fill="#ededed" d="M181.183 182.92a105.289 105.289 0 0 0 148.892 148.91Z" class="colore9f6ff svgShape"></path><path fill="#ededed" d="M255.631 173.226a84.15 84.15 0 1 0 84.147 84.148 84.123 84.123 0 0 0-84.147-84.148Z" class="colore9f6ff svgShape"></path><path fill="#ededed" d="m255.625 257.373-.004 84.152h.001a84.123 84.123 0 0 0 84.155-84.154Z" class="colordef4fc svgShape"></path><path fill="#ffffff" d="M196.128 197.868a84.122 84.122 0 0 0 0 119.014L315.13 197.868a84.15 84.15 0 0 0-119.002 0Z" class="colorffffff svgShape"></path><path fill="#ededed" d="M255.631 173.226a84.123 84.123 0 0 0-84.154 84.155l84.15-.004.005-84.151Z" class="colordef4fc svgShape"></path><path fill="#24a4d7" d="M331.933 181.063a107.903 107.903 0 1 0 31.618 76.313 107.2 107.2 0 0 0-31.618-76.313Zm-3.716 148.908a102.662 102.662 0 1 1 0-145.192 102.647 102.647 0 0 1 0 145.192Z" class="color2481d7 svgShape"></path><path fill="#24a4d7" d="M316.523 196.474a86.115 86.115 0 1 0 25.23 60.901 85.549 85.549 0 0 0-25.23-60.9Zm-2.787 119.014a82.181 82.181 0 1 1 0-116.227 82.174 82.174 0 0 1 0 116.227Z" class="color2481d7 svgShape"></path><path fill="#ededed" d="m324.795 337.11 10.599-10.58 23.976 24.018-10.599 10.58z" class="colordef4fc svgShape"></path><path fill="#dedede" d="m324.793 337.113 10.593-10.573 11.714 11.735-10.592 10.574z" class="colorc8dff5 svgShape"></path><path fill="#24a4d7" d="m361.241 348.671-24.006-23.983a2.628 2.628 0 0 0-3.714-.001l-10.6 10.58a2.629 2.629 0 0 0 0 3.72l24.012 23.987a2.628 2.628 0 0 0 3.714 0l10.594-10.585a2.628 2.628 0 0 0 0-3.718ZM348.79 357.4l-20.293-20.272 6.88-6.868 20.289 20.27Z" class="color2481d7 svgShape"></path><path fill="#5bbae1" d="m363.271 346.125-18.91 18.909 51.456 51.442 18.925-18.904-51.471-51.447z" class="color5ba1e1 svgShape"></path><path fill="#00abf0" d="m357.804 351.593-7.97 7.971 51.452 51.446 7.984-7.965-51.466-51.452z" class="color288de8 svgShape"></path><path fill="#24a4d7" d="m416.6 395.713-51.472-51.447a2.628 2.628 0 0 0-3.715 0l-18.91 18.91a2.629 2.629 0 0 0 0 3.717l51.456 51.441a2.628 2.628 0 0 0 3.715.001l18.926-18.904a2.628 2.628 0 0 0 0-3.718Zm-20.783 17.048-47.74-47.727 15.194-15.193 47.753 47.73Z" class="color2481d7 svgShape"></path><path fill="#24a4d7" d="M370.112 351.095a1.313 1.313 0 0 0-1.858 0l-18.91 18.909a1.314 1.314 0 1 0 1.858 1.858l18.91-18.91a1.314 1.314 0 0 0 0-1.857zm5.664 5.663a1.314 1.314 0 0 0-1.858 0l-18.91 18.91a1.314 1.314 0 1 0 1.858 1.859l18.91-18.911a1.314 1.314 0 0 0 0-1.858zm5.663 5.664a1.313 1.313 0 0 0-1.857 0l-18.91 18.91a1.314 1.314 0 1 0 1.857 1.858l18.91-18.91a1.314 1.314 0 0 0 0-1.858zm5.666 5.663a1.313 1.313 0 0 0-1.857 0l-18.913 18.911a1.314 1.314 0 1 0 1.858 1.858l18.912-18.91a1.314 1.314 0 0 0 0-1.859zm5.663 5.665a1.313 1.313 0 0 0-1.858 0L372 392.66a1.314 1.314 0 1 0 1.857 1.858l18.912-18.91a1.314 1.314 0 0 0 0-1.858zm5.665 5.663a1.313 1.313 0 0 0-1.858 0l-18.912 18.91a1.314 1.314 0 1 0 1.858 1.859l18.912-18.91a1.314 1.314 0 0 0 0-1.859zm5.664 5.664a1.313 1.313 0 0 0-1.858 0l-18.91 18.91a1.314 1.314 0 1 0 1.858 1.858l18.91-18.91a1.314 1.314 0 0 0 0-1.858zm5.662 5.665a1.313 1.313 0 0 0-1.858 0l-18.91 18.91a1.314 1.314 0 1 0 1.859 1.858l18.909-18.91a1.313 1.313 0 0 0 0-1.858zm-245.7-134.681h-4.91a1.314 1.314 0 0 0 0 2.628h4.91a1.314 1.314 0 0 0 0-2.628zm188.043-.001h-4.91a1.314 1.314 0 0 0 0 2.628h4.91a1.314 1.314 0 1 0 0-2.628zm-160.296-64.363-3.472-3.473a1.314 1.314 0 1 0-1.858 1.858l3.472 3.473a1.314 1.314 0 1 0 1.858-1.858zm132.967 132.967-3.471-3.47a1.314 1.314 0 1 0-1.858 1.857l3.471 3.471a1.314 1.314 0 0 0 1.858-1.858zm-69.148-165.08a1.314 1.314 0 0 0-1.314 1.313v4.909a1.314 1.314 0 1 0 2.628 0v-4.909a1.314 1.314 0 0 0-1.314-1.314zm0 188.042a1.314 1.314 0 0 0-1.314 1.314v4.911a1.314 1.314 0 1 0 2.628 0v-4.91a1.314 1.314 0 0 0-1.314-1.315zm69.148-159.401a1.314 1.314 0 0 0-1.858 0l-3.471 3.471a1.314 1.314 0 1 0 1.858 1.859l3.471-3.472a1.314 1.314 0 0 0 0-1.858zM191.806 321.193a1.313 1.313 0 0 0-1.858 0l-3.471 3.471a1.314 1.314 0 1 0 1.858 1.858l3.47-3.47a1.313 1.313 0 0 0 0-1.859z" class="color2481d7 svgShape"></path><path fill="#dedede" d="M115.357 194.467h30.467v2.628h-30.467zM115.357 203.352h22.876v2.628h-22.876zM115.357 212.236h30.467v2.628h-30.467zM115.357 221.121h22.876v2.628h-22.876zM115.357 230.005h30.467v2.628h-30.467zM365.686 279.886h30.467v2.628h-30.467zM365.686 288.771h22.876v2.628h-22.876zM365.686 297.655h30.467v2.628h-30.467zM365.686 306.54h22.876v2.628h-22.876zM365.686 315.425h30.467v2.628h-30.467zM138.193 362.592a35.31 35.31 0 0 0-35.31 35.305H173.5a35.31 35.31 0 0 0-35.306-35.305Z" class="colorc8dff5 svgShape"></path><path fill="#081b29" d="M138.192 371.25a26.65 26.65 0 0 0-26.65 26.647h53.298a26.65 26.65 0 0 0-26.648-26.647ZM97.706 397.897h80.972v10.812H97.706z" class="colorafd8f9 svgShape"></path><path fill="#5bbae1" d="M93.472 408.709h89.438v10.82H93.472z" class="color5ba1e1 svgShape"></path><path fill="#081b29" d="m114.767 387.094 23.426-15.02a25.813 25.813 0 0 0-23.426 15.02Z" class="colorafd8f9 svgShape"></path><path fill="#24a4d7" d="M138.193 360.621a37.32 37.32 0 0 0-37.28 37.276 1.971 1.971 0 0 0 1.97 1.971H173.5a1.97 1.97 0 0 0 1.97-1.97 37.318 37.318 0 0 0-37.276-37.277Zm-33.28 35.305a33.338 33.338 0 0 1 66.557 0Z" class="color2481d7 svgShape"></path><path fill="#24a4d7" d="M138.193 352.26a1.971 1.971 0 0 0-1.97 1.972v8.36a1.971 1.971 0 1 0 3.941 0v-8.36a1.97 1.97 0 0 0-1.97-1.971Z" class="color2481d7 svgShape"></path><path fill="#24a4d7" d="M142.37 350.909h-8.352a1.971 1.971 0 0 0 0 3.942h8.353a1.971 1.971 0 1 0 0-3.942zm36.308 45.017H97.706a1.97 1.97 0 0 0-1.97 1.971v10.812a1.97 1.97 0 0 0 1.97 1.971h80.972a1.971 1.971 0 0 0 1.97-1.97v-10.813a1.971 1.971 0 0 0-1.97-1.97zm-1.971 10.812h-77.03v-6.87h77.03z" class="color2481d7 svgShape"></path><path fill="#24a4d7" d="M182.91 406.738H93.471a1.971 1.971 0 0 0-1.972 1.971v10.82a1.971 1.971 0 0 0 1.972 1.97h89.437a1.97 1.97 0 0 0 1.97-1.97v-10.82a1.97 1.97 0 0 0-1.97-1.97zm-1.972 10.82H95.442v-6.878h85.496zm-42.745-93.39a1.971 1.971 0 0 0-1.97 1.971v7.336a1.971 1.971 0 0 0 3.941 0v-7.336a1.97 1.97 0 0 0-1.97-1.97zm24.05 9.967a1.972 1.972 0 0 0-2.788.003l-5.174 5.186a1.971 1.971 0 0 0 2.79 2.785l5.175-5.186a1.971 1.971 0 0 0-.003-2.788zm7.995 22.089h-7.329a1.971 1.971 0 1 0 0 3.942h7.33a1.971 1.971 0 1 0 0-3.942zm-56.77 0h-7.33a1.971 1.971 0 0 0 0 3.942h7.33a1.971 1.971 0 0 0 0-3.942zm8.637-16.9-5.184-5.19a1.97 1.97 0 1 0-2.788 2.786l5.183 5.19a1.97 1.97 0 1 0 2.789-2.786z" class="color2481d7 svgShape"></path><path fill="#dedede" d="M228.18 197.132h73.657v129.045H228.18z" class="colorc8dff5 svgShape"></path><path fill="#081b29" d="M228.18 204.327h73.657v121.85H228.18z" class="colorafd8f9 svgShape"></path><path fill="#5bbae1" d="M250.603 304.391h28.805v21.786h-28.805z" class="color5ba1e1 svgShape"></path><path fill="#6ac2e5" d="M207.805 262.001h20.375v64.176h-20.375z" class="color6ab0e5 svgShape"></path><path fill="#5bbae1" d="M207.805 273.967h20.375v52.21h-20.375z" class="color5ba1e1 svgShape"></path><path fill="#24a4d7" d="M301.837 195.161H228.18a1.97 1.97 0 0 0-1.971 1.971v129.045a1.97 1.97 0 0 0 1.97 1.971h73.658a1.97 1.97 0 0 0 1.97-1.971V197.132a1.97 1.97 0 0 0-1.97-1.97Zm-1.97 129.045H230.15V199.103h69.715Z" class="color2481d7 svgShape"></path><path fill="#24a4d7" d="M279.408 302.42h-28.805a1.97 1.97 0 0 0-1.97 1.971v21.786a1.97 1.97 0 0 0 1.97 1.971h28.805a1.971 1.971 0 0 0 1.97-1.971v-21.786a1.971 1.971 0 0 0-1.97-1.97Zm-1.971 21.786h-24.863v-17.844h24.863Z" class="color2481d7 svgShape"></path><path fill="#24a4d7" d="M265.004 302.42a1.971 1.971 0 0 0-1.97 1.971v21.786a1.971 1.971 0 1 0 3.941 0v-21.786a1.97 1.97 0 0 0-1.97-1.97zm-21.23-11.005h-3.327a1.971 1.971 0 0 0 0 3.942h3.327a1.971 1.971 0 0 0 0-3.942zm15.27 0h-3.325a1.971 1.971 0 1 0 0 3.942h3.325a1.971 1.971 0 0 0 0-3.942zm15.26 0h-3.325a1.971 1.971 0 0 0 0 3.942h3.324a1.971 1.971 0 1 0 0-3.942zm15.258 0h-3.313a1.971 1.971 0 1 0 0 3.942h3.313a1.971 1.971 0 1 0 0-3.942zm-45.788-15.693h-3.327a1.971 1.971 0 0 0 0 3.942h3.327a1.971 1.971 0 0 0 0-3.942zm15.27 0h-3.325a1.971 1.971 0 1 0 0 3.942h3.325a1.971 1.971 0 0 0 0-3.942zm15.26 0h-3.325a1.971 1.971 0 0 0 0 3.942h3.324a1.971 1.971 0 1 0 0-3.942zm15.258 0h-3.313a1.971 1.971 0 1 0 0 3.942h3.313a1.971 1.971 0 1 0 0-3.942zm-45.788-15.692h-3.327a1.971 1.971 0 0 0 0 3.942h3.327a1.971 1.971 0 0 0 0-3.942zm15.27 0h-3.325a1.971 1.971 0 1 0 0 3.942h3.325a1.971 1.971 0 0 0 0-3.942zm15.26 0h-3.325a1.971 1.971 0 0 0 0 3.942h3.324a1.971 1.971 0 1 0 0-3.942zm15.258 0h-3.313a1.971 1.971 0 1 0 0 3.942h3.313a1.971 1.971 0 1 0 0-3.942zm-45.788-15.693h-3.327a1.971 1.971 0 0 0 0 3.942h3.327a1.971 1.971 0 0 0 0-3.942zm15.27 0h-3.325a1.971 1.971 0 1 0 0 3.942h3.325a1.971 1.971 0 0 0 0-3.942zm15.26 0h-3.325a1.971 1.971 0 0 0 0 3.942h3.324a1.971 1.971 0 1 0 0-3.942zm15.258 0h-3.313a1.971 1.971 0 1 0 0 3.942h3.313a1.971 1.971 0 1 0 0-3.942zm-45.788-15.693h-3.327a1.971 1.971 0 0 0 0 3.942h3.327a1.971 1.971 0 0 0 0-3.942zm15.27 0h-3.325a1.971 1.971 0 1 0 0 3.942h3.325a1.971 1.971 0 0 0 0-3.942zm15.26 0h-3.325a1.971 1.971 0 0 0 0 3.942h3.324a1.971 1.971 0 1 0 0-3.942zm15.258 0h-3.313a1.971 1.971 0 1 0 0 3.942h3.313a1.971 1.971 0 1 0 0-3.942zm-45.788-15.694h-3.327a1.971 1.971 0 0 0 0 3.942h3.327a1.971 1.971 0 0 0 0-3.942zm15.27 0h-3.325a1.971 1.971 0 1 0 0 3.942h3.325a1.971 1.971 0 0 0 0-3.942zm15.26 0h-3.325a1.971 1.971 0 0 0 0 3.942h3.324a1.971 1.971 0 1 0 0-3.942zm15.258 0h-3.313a1.971 1.971 0 1 0 0 3.942h3.313a1.971 1.971 0 1 0 0-3.942zm-61.382 47.08h-20.375a1.971 1.971 0 0 0-1.971 1.97v64.177a1.971 1.971 0 0 0 1.971 1.971h20.375a1.971 1.971 0 0 0 1.97-1.971v-64.176a1.971 1.971 0 0 0-1.97-1.971zm-1.971 64.176h-16.433v-60.234h16.433zM203.167 216.35a1.97 1.97 0 0 0-1.97 1.97v1.303a1.971 1.971 0 1 0 3.941 0v-1.302a1.971 1.971 0 0 0-1.971-1.971zm12.112 5.004a1.971 1.971 0 0 0-2.787.034l-.912.935a1.97 1.97 0 1 0 2.82 2.753l.912-.935a1.971 1.971 0 0 0-.033-2.787zm3.081 10.184h-1.322a1.971 1.971 0 0 0 0 3.942h1.322a1.971 1.971 0 1 0 0-3.942zm-29.062 0h-1.314a1.971 1.971 0 0 0 0 3.942h1.314a1.971 1.971 0 1 0 0-3.942zm5.461-9.22-.92-.935a1.97 1.97 0 1 0-2.81 2.764l.92.934a1.97 1.97 0 0 0 2.81-2.764zm8.408 23.087a1.97 1.97 0 0 0-1.97 1.97v1.319a1.971 1.971 0 1 0 3.941 0v-1.318a1.971 1.971 0 0 0-1.971-1.971zm-8.417-3.47a1.971 1.971 0 0 0-2.787-.004l-.92.916a1.97 1.97 0 1 0 2.783 2.792l.92-.916a1.97 1.97 0 0 0 .004-2.788z" class="color2481d7 svgShape"></path><path fill="#24a4d7" d="M189.298 231.538h-1.314a1.971 1.971 0 0 0 0 3.942h1.314a1.971 1.971 0 1 0 0-3.942zm29.062 0h-1.322a1.971 1.971 0 0 0 0 3.942h1.322a1.971 1.971 0 1 0 0-3.942zm-3.061 11.314-.913-.916a1.971 1.971 0 1 0-2.793 2.781l.912.917a1.971 1.971 0 1 0 2.794-2.782zm-12.14-17.97a8.63 8.63 0 1 0 8.641 8.627 8.635 8.635 0 0 0-8.64-8.628zm0 13.318a4.688 4.688 0 1 1 4.7-4.69 4.691 4.691 0 0 1-4.7 4.69z" class="color2481d7 svgShape"></path><path fill="#dedede" d="m138.9 97.664-11.34-.003a30.24 30.24 0 0 0-30.232 30.234v11.344a30.243 30.243 0 0 0 30.233 30.237l11.34-.003a30.236 30.236 0 0 0 30.24-30.238v-11.334a30.245 30.245 0 0 0-30.24-30.237Z" class="colorc8dff5 svgShape"></path><path fill="#081b29" d="m138.9 106.143-11.34-.004a30.24 30.24 0 0 0-30.232 30.234v2.866a30.243 30.243 0 0 0 30.233 30.237l11.34-.003a30.236 30.236 0 0 0 30.24-30.238v-2.855a30.245 30.245 0 0 0-30.24-30.237Z" class="colorafd8f9 svgShape"></path><path fill="#081b29" d="M123.823 144h18.803a13.27 13.27 0 0 0-18.803 0zm9.405 4.754a1.556 1.556 0 1 0 1.555 1.555 1.556 1.556 0 0 0-1.555-1.555zm-16.566-11.93 33.145.007a23.457 23.457 0 0 0-33.145-.007z" class="colorafd8f9 svgShape"></path><path fill="#081b29" d="m109.321 129.491 47.826.012a33.823 33.823 0 0 0-47.826-.012Z" class="colorafd8f9 svgShape"></path><path fill="#24a4d7" d="M138.907 95.693h-.006l-11.34-.003a32.241 32.241 0 0 0-32.205 32.205v11.345a32.253 32.253 0 0 0 32.205 32.207l11.34-.003a32.246 32.246 0 0 0 32.21-32.208V127.9a32.248 32.248 0 0 0-32.204-32.208Zm28.262 43.543a28.3 28.3 0 0 1-28.27 28.266l-11.338.003a28.307 28.307 0 0 1-28.263-28.266v-11.344a28.294 28.294 0 0 1 28.262-28.263l11.34.003h.006a28.303 28.303 0 0 1 28.263 28.266Z" class="color2481d7 svgShape"></path><path fill="#24a4d7" d="M144.023 142.609a15.13 15.13 0 0 0-10.784-4.485h-.01a15.163 15.163 0 0 0-10.8 4.483 1.971 1.971 0 0 0 2.789 2.785 11.246 11.246 0 0 1 8.011-3.327h.007a11.214 11.214 0 0 1 7.994 3.325 1.971 1.971 0 1 0 2.793-2.781zm-10.795 4.174a3.527 3.527 0 1 0 3.525 3.526 3.532 3.532 0 0 0-3.525-3.526zm0 3.942a.415.415 0 1 1 .41-.416.417.417 0 0 1-.41.416z" class="color2481d7 svgShape"></path><path fill="#24a4d7" d="M151.199 135.436a25.466 25.466 0 0 0-35.93-.006 1.971 1.971 0 0 0 2.786 2.789 21.517 21.517 0 0 1 30.36.007 1.971 1.971 0 1 0 2.784-2.79Z" class="color2481d7 svgShape"></path><path fill="#24a4d7" d="M158.54 128.11a35.852 35.852 0 0 0-50.612-.013 1.971 1.971 0 0 0 2.786 2.789 31.905 31.905 0 0 1 45.04.011 1.97 1.97 0 1 0 2.787-2.788Z" class="color2481d7 svgShape"></path><path fill="#dedede" d="m391.294 95.346-7.105.006a23.188 23.188 0 0 0-22.956 20.163l14.171-.002a13.573 13.573 0 1 1 .003 11.2l-14.484-.001.007 69.473h53.636v-77.567a23.272 23.272 0 0 0-23.272-23.272Z" class="colorc8dff5 svgShape"></path><path fill="#081b29" d="m391.294 101.666-7.105.006a23.116 23.116 0 0 0-21.172 13.843l12.387-.002a13.549 13.549 0 0 1 25.524 8.756 13.551 13.551 0 0 1-25.521 8.763h-14.483l.006 63.153h53.636v-71.247a23.272 23.272 0 0 0-23.272-23.272Z" class="colorafd8f9 svgShape"></path><path fill="#6ac2e5" d="M393.24 150.817a7.631 7.631 0 0 0-5.471 2.238 7.632 7.632 0 0 0-5.483-2.236c-4.022 0-7.296 2.965-7.296 6.62a6.115 6.115 0 0 0 1.28 3.755c.039.051.066.097.107.146a.341.341 0 0 1 .07.065l10.096 11.95a1.613 1.613 0 0 0 1.225.567 1.591 1.591 0 0 0 1.21-.568l10.093-11.938a.744.744 0 0 0 .076-.075 1.164 1.164 0 0 0 .12-.167 6.109 6.109 0 0 0 1.28-3.733c.006-3.658-3.284-6.626-7.307-6.624Z" class="color6ab0e5 svgShape"></path><path fill="#5bbae1" d="M391.762 157.059a5.568 5.568 0 0 0-3.993 1.633 5.573 5.573 0 0 0-4.002-1.632 5.101 5.101 0 0 0-5.326 4.831 4.46 4.46 0 0 0 .935 2.741c.028.038.048.07.078.107a.22.22 0 0 1 .05.048l7.37 8.72a1.177 1.177 0 0 0 .894.415 1.16 1.16 0 0 0 .883-.414l7.367-8.714a.612.612 0 0 0 .055-.055.817.817 0 0 0 .088-.121 4.46 4.46 0 0 0 .934-2.725 5.104 5.104 0 0 0-5.333-4.834Z" class="color5ba1e1 svgShape"></path><path fill="#24a4d7" d="M391.295 93.375h-.003l-7.103.006h-.007a25.252 25.252 0 0 0-24.902 21.872 1.971 1.971 0 0 0 1.954 2.233l14.17-.002a1.97 1.97 0 0 0 1.793-1.154 11.638 11.638 0 0 1 10.55-6.816h.003a11.6 11.6 0 0 1-.004 23.199h-.006a11.636 11.636 0 0 1-10.54-6.819 1.971 1.971 0 0 0-1.793-1.152l-14.484-.001a1.97 1.97 0 0 0-1.97 1.971l.006 69.473a1.971 1.971 0 0 0 1.971 1.971h53.636a1.97 1.97 0 0 0 1.971-1.972v-77.566a25.276 25.276 0 0 0-25.242-25.243Zm21.3 100.838-49.694.001-.007-65.531h11.304a15.584 15.584 0 0 0 13.54 7.971h.008a15.541 15.541 0 0 0 .003-31.082h-.004a15.585 15.585 0 0 0-13.55 7.97l-10.587.002a21.294 21.294 0 0 1 20.577-16.22h.005l7.105-.007a21.33 21.33 0 0 1 21.3 21.301Z" class="color2481d7 svgShape"></path><path fill="#24a4d7" d="M399.59 152.071a9 9 0 0 0-6.345-2.568h-.006a9.096 9.096 0 0 0-5.47 1.805 9.096 9.096 0 0 0-5.475-1.803h-.008c-4.748 0-8.61 3.56-8.61 7.93A7.433 7.433 0 0 0 375.23 162c.042.06.084.118.135.18a1.445 1.445 0 0 0 .122.126l10.065 11.912a2.904 2.904 0 0 0 4.43-.016l10.036-11.872a.26.26 0 0 0 .035-.039 1.288 1.288 0 0 0 .111-.119 2.77 2.77 0 0 0 .19-.257 7.401 7.401 0 0 0 1.505-4.472 7.563 7.563 0 0 0-2.27-5.372Zm-1.47 8.46.012-.02Zm.104-.154a1.329 1.329 0 0 0-.068.096 1.114 1.114 0 0 0-.088.094l-10.094 11.94a.276.276 0 0 1-.204.101.281.281 0 0 1-.223-.102L377.47 160.58a1.633 1.633 0 0 0-.117-.13l-.04-.055a4.814 4.814 0 0 1-1.01-2.957c0-2.925 2.684-5.305 5.984-5.305h.006a6.32 6.32 0 0 1 4.533 1.837 1.314 1.314 0 0 0 .942.4 1.314 1.314 0 0 0 .942-.399 6.328 6.328 0 0 1 4.53-1.84h.005a6.354 6.354 0 0 1 4.485 1.797 4.95 4.95 0 0 1 1.502 3.513 4.805 4.805 0 0 1-1.008 2.936Z" class="color2481d7 svgShape"></path><path fill="#dedede" d="m114.919 282.573-2.398 1.074a4.24 4.24 0 0 0 2.83 2.368l.631-2.551a1.596 1.596 0 0 1-1.063-.89zm-2.275-2.615 2.32 1.231a1.595 1.595 0 0 1 1.121-.819l-.46-2.587a4.241 4.241 0 0 0-2.981 2.175zm6.527-1.168-1.752 1.958a1.59 1.59 0 0 1 .528 1.18 1.572 1.572 0 0 1-.609 1.246l1.621 2.07a4.21 4.21 0 0 0 .212-6.454zm6.996 28.289a8.241 8.241 0 0 0 1.968 2.4l1.685-2.017a5.647 5.647 0 0 1-1.344-1.639zm1.627-3.948a5.643 5.643 0 0 1 .185-1.44l-2.542-.668a8.274 8.274 0 0 0-.271 2.105 8.1 8.1 0 0 0 .058.991l2.609-.313a5.528 5.528 0 0 1-.039-.675zm10.241-3.264 2.142-1.523a8.28 8.28 0 0 0-2.24-2.149l-1.433 2.203a5.653 5.653 0 0 1 1.531 1.47zm-11.254-1.646 2.113 1.562a5.66 5.66 0 0 1 1.557-1.44l-1.392-2.23a8.273 8.273 0 0 0-2.278 2.108zm4.891 10.27-.822 2.497a8.265 8.265 0 0 0 2.588.412q.247 0 .49-.015l-.153-2.623a5.63 5.63 0 0 1-2.103-.27zm4.153-.249 1.114 2.38a8.234 8.234 0 0 0 2.514-1.821l-1.911-1.802a5.64 5.64 0 0 1-1.717 1.243zm5.644-7.073-2.554.622a5.678 5.678 0 0 1-.235 3.421l2.443.97a8.316 8.316 0 0 0 .346-5.013zm-8.04-6.306a8.32 8.32 0 0 0-1.472.131l.468 2.586a5.658 5.658 0 0 1 1.005-.09h.005a5.645 5.645 0 0 1 1.108.11l.518-2.577a8.276 8.276 0 0 0-1.625-.16zm259.626-82.188-.207-2.62a10.916 10.916 0 0 0-2.908.637l.907 2.466a8.293 8.293 0 0 1 2.208-.483zm-5.758 13.594-2.027 1.673a11.015 11.015 0 0 0 2.185 2.017l1.505-2.153a8.38 8.38 0 0 1-1.663-1.537zm-1.815-4.096-2.6.376a10.901 10.901 0 0 0 .823 2.861l2.402-1.065a8.29 8.29 0 0 1-.625-2.172zm3.37-7.952-1.54-2.13a11.001 11.001 0 0 0-2.153 2.053l2.055 1.639a8.367 8.367 0 0 1 1.639-1.562zm-2.797 3.505-2.42-1.026a10.896 10.896 0 0 0-.777 2.876l2.607.332a8.255 8.255 0 0 1 .59-2.182zm15.993 3.116 2.628-.041a10.979 10.979 0 0 0-.448-2.942l-2.52.746a8.306 8.306 0 0 1 .34 2.237zm-2.63 6.207 1.798 1.916a10.986 10.986 0 0 0 1.875-2.31l-2.245-1.365a8.39 8.39 0 0 1-1.428 1.759zm2.632-6.074a8.37 8.37 0 0 1-.305 2.242l2.532.705a10.99 10.99 0 0 0 .4-2.947zm.95-5.828a10.966 10.966 0 0 0-1.911-2.28l-1.767 1.944a8.355 8.355 0 0 1 1.453 1.734zm-7.553 13.976.541 2.571a10.913 10.913 0 0 0 2.804-1.006l-1.218-2.329a8.277 8.277 0 0 1-2.127.764zm3.19-17.942a10.892 10.892 0 0 0-2.82-.96l-.5 2.58a8.257 8.257 0 0 1 2.139.729zm-8.533 20.136a10.913 10.913 0 0 0 2.918.59l.166-2.623a8.266 8.266 0 0 1-2.214-.447zm-10.297 12.268-2.577-.52a5.263 5.263 0 0 0 .464 3.41l2.343-1.19a2.628 2.628 0 0 1-.23-1.7zm1.467 2.895-1.106 2.383a5.196 5.196 0 0 0 2.205.486 5.261 5.261 0 0 0 1.219-.143l-.61-2.556a2.64 2.64 0 0 1-1.708-.17zm1.006-4.994-.092-2.626a5.261 5.261 0 0 0-3.209 1.243l1.702 2.003a2.587 2.587 0 0 1 1.6-.62zm2.711 2.617a2.588 2.588 0 0 1-.562 1.621l2.062 1.63a5.266 5.266 0 0 0 1.128-3.25zm2.44-1.4a5.268 5.268 0 0 0-1.955-2.83l-1.556 2.118a2.63 2.63 0 0 1 .977 1.412zm-15.37-15.78a2.355 2.355 0 0 1 .203-.961l-2.404-1.064a5.02 5.02 0 0 0-.21 3.482l2.514-.764a2.383 2.383 0 0 1-.102-.693zm1.108 2.01-1.406 2.22a4.992 4.992 0 0 0 2.679.776 5.144 5.144 0 0 0 .731-.054l-.381-2.6a2.402 2.402 0 0 1-1.623-.341zm-.876-6.532 1.128 2.373a2.4 2.4 0 0 1 1.651-.143l.695-2.534a5.026 5.026 0 0 0-3.474.304zm6.304 1.735-2.182 1.465a2.378 2.378 0 0 1-.175 2.875l1.99 1.716a5.006 5.006 0 0 0 .367-6.056zm-157.683-100.9v8.05h8.05v-8.05zm5.422 5.422h-2.794v-2.795h2.794zm41.579-5.423v16.11h16.109v-16.11zm13.481 13.482h-10.854v-10.854h10.854zm-6.741 238.304v10.427h10.428v-10.427zm7.8 7.8h-5.172v-5.172h5.172zm-7.8 11.326v6.42h6.42v-6.42zm3.792 3.792h-1.164v-1.164h1.164z" class="colorc8dff5 svgShape"></path><path fill="#6ac2e5" d="M118.119 230.492a26.805 26.805 0 1 0 26.804 26.805 26.807 26.807 0 0 0-26.804-26.805Z" class="color6ab0e5 svgShape"></path><path fill="#dedede" d="M118.119 229.179a28.119 28.119 0 1 0 28.118 28.118 28.152 28.152 0 0 0-28.118-28.118Zm0 53.61a25.491 25.491 0 1 1 25.49-25.492 25.52 25.52 0 0 1-25.49 25.492Z" class="colorc8dff5 svgShape"></path><path fill="#dedede" d="M111.053 245.224a5.008 5.008 0 0 0-.012 10.017.05.05 0 0 0 .013 0 5.015 5.015 0 0 0 5.007-5.005v-.004a5.024 5.024 0 0 0-5.008-5.008zm1.68 6.69a2.365 2.365 0 0 1-1.683.699h-.006a2.38 2.38 0 0 1 .009-4.76 2.392 2.392 0 0 1 2.38 2.385 2.36 2.36 0 0 1-.7 1.677zm12.45 7.445a5.006 5.006 0 1 0 5.008 4.999 4.977 4.977 0 0 0-5.007-5zm0 7.384a2.378 2.378 0 1 1 2.38-2.385 2.385 2.385 0 0 1-2.38 2.385zM108.277 265.282l17.826-17.824 1.858 1.858-17.826 17.824z" class="colorc8dff5 svgShape"></path></svg>