<svg xmlns="http://www.w3.org/2000/svg" viewBox="0 0 3000 3000" id="MaleHTMLdeveloper"><path fill="#ededed" d="M616.18 2454.75s-466.66-766.979-119.04-1314.59c347.61-547.62 630.69-419.53 1034.38 42.61 403.7 462.14 798.931 224.05 1022.74 547.859 223.801 323.8-109.529 724.12-109.529 724.12H616.18zm671.8-1681.85s85.76 321.329 588.09 473.8c502.32 152.47 989.71-480.94 380.57-578.561C1647.5 570.52 1237.98 494.33 1287.98 772.9z" class="colorf0f7fa svgShape"></path><path fill="#67b1cf" d="M1672.109 2454.75c4.381-37.04 16.4-108.8 46.451-150.18 41.789-57.55 103.149-28.65 184.319-127.98 81.181-99.319 159.5-57.3 225.39-78.31 65.9-21.01 132.76 28.649 239.721-11.46 0 0-97.41 78.31-187.19 131.79-89.771 53.479-203.42 39.16-290.33 91.68-58.86 35.58-72.16 103.99-74.61 144.46h-143.751z" class="color67cfb0 svgShape"></path><path fill="#274e69" d="M1737.828 2456.835a2.085 2.085 0 0 1-2.077-1.932c-1.611-21.899 1.646-44.476 9.421-65.288 10.958-29.334 30.801-55.923 58.976-79.027 52.626-43.148 90.056-58.515 126.254-73.376 29.729-12.204 57.808-23.732 92.524-49.877 43.969-33.112 95.206-37.858 144.756-42.448 39.414-3.65 76.643-7.099 110.574-23.65a2.085 2.085 0 1 1 1.828 3.748c-34.616 16.886-73.965 20.53-112.018 24.055-48.971 4.536-99.608 9.227-142.633 41.626-35.145 26.468-63.465 38.095-93.449 50.404-35.913 14.744-73.05 29.99-125.192 72.743-63.383 51.975-69.109 110.515-66.883 140.784a2.084 2.084 0 0 1-2.081 2.238z" class="color276169 svgShape"></path><path fill="#c2c2c2" d="M597.35 2340.37s68.761 21.97 159.49-64.939c90.73-86.91 131.79-87.86 223.48-40.11 91.68 47.75 271.5-26.24 389.31 219.43h-190.94s-22.64-83.82-108.6-62.81c-85.95 21.02-115.55-68.761-186.229-62.07-70.672 6.679-125.111 139.429-286.511 10.499z" class="color9fe6d1 svgShape"></path><path fill="#274e69" d="M1274.162 2456.836c-.775 0-1.52-.435-1.879-1.18-63.977-132.641-139.497-131.145-212.524-129.693-9.188.183-18.689.372-27.893.262-34.786-.416-63.611-20.541-89.042-38.297-33.989-23.728-63.342-44.224-96.663-11.96-31.395 30.398-66.437 44.777-90.305 51.486-25.885 7.276-44.093 7.36-44.855 7.36a2.084 2.084 0 0 1-.001-4.17c.728-.001 73.434-.713 132.261-57.673 16.379-15.858 32.774-21.022 51.597-16.255 16.551 4.193 32.97 15.656 50.354 27.792 24.938 17.411 53.204 37.146 86.705 37.546 9.141.109 18.605-.079 27.76-.261 36.487-.727 74.221-1.474 111.114 14.883 41.713 18.491 76.14 56.817 105.249 117.167a2.085 2.085 0 0 1-1.878 2.993z" class="color276169 svgShape"></path><path fill="#67b1cf" d="M767.35 1943.08s-21.97 115.56 62.08 163.31c84.04 47.75 113.82 11.65 155.67 114.601 41.84 102.95 200.551 103.649 259.771 233.76h215.83s-97.41-265.28-297.97-322.58c-200.561-57.3-197.69-36.29-271.7-117.95-74.021-81.651-123.681-71.141-123.681-71.141z" class="color67cfb0 svgShape"></path><path fill="#274e69" d="M1347.249 2456.836a2.086 2.086 0 0 1-2.012-1.544c-49.308-183.265-237.456-270.753-338.535-317.755-19.794-9.204-36.889-17.153-49.365-24.085-76.734-42.628-151.592-119.931-152.339-120.706a2.084 2.084 0 1 1 3.004-2.892c.743.771 75.18 77.634 151.36 119.954 12.345 6.858 29.376 14.778 49.098 23.948 52.677 24.495 124.821 58.042 190.706 108.88 36.073 27.834 66.495 58.15 90.419 90.105 27.962 37.349 48.041 78.216 59.678 121.467a2.086 2.086 0 0 1-2.014 2.628z" class="color276169 svgShape"></path><path fill="#c2c2c2" d="M1625.4 2454.75c8.97-34.63 21.09-101.79 23.439-217.03 3.83-187.189 230.17-249.27 261.69-323.76 0 0 6.68 74.49-47.761 140.39-54.43 65.9-93.59 125.11-106 213.931-7.76 55.449 5.711 134.729 16.931 186.47H1625.4v-.001z" class="color9fe6d1 svgShape"></path><path fill="#274e69" d="M1699.759 2456.835a2.084 2.084 0 0 1-2.083-2.032c-1.354-54.018-3.379-152.941-1.729-208.564 1.596-53.572 65.551-129.881 116.939-191.196 27.408-32.702 51.079-60.946 62.388-81.459a2.086 2.086 0 0 1 3.652 2.014c-11.504 20.867-35.296 49.255-62.844 82.124-50.976 60.821-114.415 136.516-115.968 188.642-1.646 55.523.377 154.361 1.729 208.336a2.085 2.085 0 0 1-2.031 2.136l-.053-.001z" class="color276169 svgShape"></path><path fill="#112e42" d="M548.7 1685.42h674.39c27.69 0 50.351-22.649 50.351-50.35v-397.19c0-27.689-22.66-50.34-50.351-50.34H548.7c-27.69 0-50.34 22.65-50.34 50.34v397.19c0 27.701 22.65 50.35 50.34 50.35z" class="color353640 svgShape"></path><path fill="#8b8b8b" d="M1273.439 1265.59v-27.71c0-27.689-22.659-50.34-50.34-50.34H548.7c-27.69 0-50.34 22.65-50.34 50.34v27.71h775.079z" class="colorffaf18 svgShape"></path><path fill="#d2d2d2" d="M564.63 1319.74h138.6v12.11h-138.6zm180.309 0H852.61v12.11H744.939zm144.661 0h73.33v12.11H889.6zm215.97 0h101.6v12.11h-101.6zm-540.94 99.57h138.6v12.11h-138.6zm0 199.16h138.6v12.11h-138.6zm180.309-248.94H953.52v12.11H744.939zm0 49.78H901.05v12.11H744.939zm0 49.79H953.52v12.11H744.939zm0 49.79h72.681V1531h-72.681zm0 49.79H915.84v12.11H744.939zm0 49.79h117.75v12.11h-117.75zm245.581-248.94h73.34v12.11h-73.34zm-59.89 49.78h140.64v12.11H930.63zm59.89 49.79h73.34v12.11h-73.34zm-136.91 49.79h193.44V1531H853.61zm100.24 49.79h108v12.11h-108zm-72.33 49.79h199.16v12.11H881.52zm224.05-248.94h101.6v12.11h-101.6zm0 49.78h101.6v12.11h-101.6zm0 49.79h101.6v12.11h-101.6zm0 49.79h101.6V1531h-101.6zm-21.53 49.79h66.61v12.11h-66.61zm21.53 49.79h53.83v12.11h-53.83zm-122.45-298.73h101.6v12.11h-101.6z" class="colord0d3d4 svgShape"></path><path fill="#00abf0" d="M1436.7 545.25h819.94v421.729H1436.7z" class="color7da3fb svgShape"></path><path fill="#ffffff" d="M1700.26 683.69v144.86h-35.279v-59.64h-54.891v59.64h-35.29V683.69h35.29v56.739h54.891V683.69h35.279zm129.59 0v28.27h-38.38v116.59h-35.29V711.96h-38.38v-28.27h112.05zm181.8 0v144.86h-35.28v-86.88l-32.4 86.88h-28.479l-32.6-87.08v87.08H1847.6V683.69h41.681l40.659 100.289 40.24-100.289h41.47zm60.67 117.62h46.229v27.24h-81.52V683.69h35.29v117.62z" class="colorffffff svgShape"></path><path fill="#e3e3e3" d="M2378.11 1047.5c121.569 0 220.12 98.56 220.12 220.12 0 121.57-98.551 220.12-220.121 220.12-121.569 0-220.119-98.55-220.119-220.12 0-121.56 98.55-220.12 220.12-220.12z" class="colorcad9fc svgShape"></path><path fill="#ffffff" d="M2378.11 1434.266c-91.889 0-166.646-74.757-166.646-166.646s74.757-166.646 166.646-166.646c91.888 0 166.645 74.757 166.645 166.646s-74.757 166.646-166.645 166.646zm0-329.121c-89.589 0-162.476 72.886-162.476 162.476s72.887 162.476 162.476 162.476 162.475-72.886 162.475-162.476-72.886-162.476-162.475-162.476z" class="colorffffff svgShape"></path><path fill="#ffffff" d="M2281.271 1402.755a2.085 2.085 0 0 1-1.231-3.769c28.633-20.876 62.544-31.91 98.068-31.91s69.436 11.034 98.069 31.91a2.084 2.084 0 1 1-2.457 3.369c-27.915-20.352-60.977-31.109-95.612-31.109s-67.697 10.757-95.611 31.109c-.37.27-.8.4-1.226.4zm96.838-234.58c-35.53 0-69.441-11.038-98.068-31.92a2.084 2.084 0 1 1 2.457-3.369c27.909 20.358 60.971 31.119 95.611 31.119 34.642 0 67.703-10.761 95.612-31.119a2.084 2.084 0 1 1 2.457 3.369c-28.626 20.882-62.538 31.92-98.069 31.92z" class="colorffffff svgShape"></path><path fill="#ffffff" d="M2378.11 1434.266c-26.949 0-52.202-17.478-71.108-49.214-18.705-31.399-29.007-73.104-29.007-117.431 0-44.324 10.301-86.027 29.006-117.427 18.907-31.739 44.161-49.218 71.109-49.218 26.949 0 52.204 17.479 71.113 49.218 18.709 31.401 29.012 73.104 29.012 117.427 0 44.327-10.303 86.031-29.012 117.431-18.908 31.736-44.163 49.214-71.113 49.214zm0-329.121c-52.904 0-95.945 72.886-95.945 162.476s43.041 162.476 95.945 162.476c52.91 0 95.955-72.886 95.955-162.476s-43.044-162.476-95.955-162.476z" class="colorffffff svgShape"></path><path fill="#ffffff" d="M2378.11 1434.265a2.086 2.086 0 0 1-2.085-2.085v-329.12a2.086 2.086 0 0 1 4.17 0v329.12a2.085 2.085 0 0 1-2.085 2.085z" class="colorffffff svgShape"></path><path fill="#ffffff" d="M2542.67 1269.705h-329.12a2.086 2.086 0 0 1 0-4.17h329.12a2.086 2.086 0 0 1 0 4.17z" class="colorffffff svgShape"></path><path fill="#112e42" d="M1951.4 1615.79H2299v196.189h-347.6z" class="color353640 svgShape"></path><path fill="#ffffff" d="m2057.93 1747.12-26.72-29.09 26.72-29.09h28.301l-26.851 29.09 26.851 29.09h-28.301zm96.62-108.08-35.28 149.68h-21.72l35.28-149.68h21.72zm9.61 49.9h28.311l26.72 29.09-26.72 29.09h-28.311l26.86-29.09-26.86-29.09z" class="colorffffff svgShape"></path><path fill="#112e42" d="M2501.64 2456.835H498.36a2.086 2.086 0 0 1 0-4.17h2003.28a2.086 2.086 0 0 1 0 4.17z" class="color353640 svgShape"></path><path fill="#112e42" d="M1222.4 2111.03s-52.65 81.82-78.84 343.72h599.989l-53.05-343.72c.001 0-211.229-41.99-468.099 0z" class="color353640 svgShape"></path><path fill="#081b29" d="M1353.66 2454.75h55.81l-39.72-135.71-45.24-2.391 35.71 32.741z" class="color2a1d19 svgShape"></path><path fill="#dfdfdf" d="m1323.61 876.51 82.14 15.47 21.43-44.05s38.69-25 63.69-52.38-11.91-29.76-27.38-17.26c-15.48 12.5-26.79 16.07-26.79 16.07V653.29c0-41.07-75.591 67.26-113.09 223.22z" class="colorfccac3 svgShape"></path><path fill="#c1c1c1" d="m1323.61 876.51 82.14 15.47 20.96-43.079c-28.33-6.891-67.26-7.74-93.87-7.311a816.004 816.004 0 0 0-9.23 34.92z" class="colorf59a8e svgShape"></path><path fill="#3eaffd" d="M1324.2 840.79s-77.97 240.48-117.261 338.09c-39.279 97.62-8.329 217.86 2.381 292.86 10.72 75 32.14 217.859 32.14 217.859l145.24-186.909-41.16-258.12 79.26-378.78-100.6-25z" class="colorfd3e42 svgShape"></path><path fill="#c1c1c1" d="M1409.311 1383.07H1522.4v106.55h-113.089z" class="colorf59a8e svgShape"></path><path fill="#dfdfdf" d="M1535.48 1182.771s27.379 82.14 34.52 130.949c7.141 48.811 1.189 110.71-116.07 113.69-117.26 2.979-145.83-115.47-105.35-188.681 40.47-73.219 154.16-72.029 186.9-55.958z" class="colorfccac3 svgShape"></path><path fill="#112e42" d="M1309.29 1223.25s-19.04-67.26 70.24-75c89.29-7.74 126.79-55.96 157.14-57.15 30.36-1.189 74.41 122.62 4.77 145.841-69.649 23.209-83.34 82.14-72.029 105.949 11.311 23.811 27.98 73.811-32.73 99.4-60.721 25.6-232.741-169.04-127.391-219.04z" class="color353640 svgShape"></path><path fill="#dfdfdf" d="M1492.79 1298.24c-111.33-56.58-91.2 103.83 4.86 45.76l-4.86-45.76z" class="colorfccac3 svgShape"></path><path fill="#c1c1c1" d="M1476.47 1327.66c-62.96 21.15-19.97-59.9 0 0z" class="colorf59a8e svgShape"></path><path fill="#3eaffd" d="m1222.4 2111.03 19.06-421.43c4.58-101.091 5.351-148.2 81.54-212.49 0 0 38.1-16.66 136.311-16.66 98.209 0 155.359 38.68 155.359 38.68s84.52 102.931 84.52 244.04c0 141.12-4.739 316.48-8.689 367.86H1222.4z" class="colorfd3e42 svgShape"></path><path fill="#207dbd" d="m1222.4 2111.03 3.369-74.38s181.291 82.05 322.961 26.1c141.66-55.95 129.75-313.68 123.8-349.99-5.95-36.31-91.671-62.5-91.671-62.5l85.11-62.25c17.72 41.33 33.22 94.74 33.22 155.16 0 141.12-4.739 316.48-8.689 367.86h-468.1z" class="colorbd2022 svgShape"></path><path fill="#dfdfdf" d="m1888.49 1048.53 1.49-27.98s-14.891-20.229-6.25-43.45c8.629-23.21 22.02-52.68 29.76-62.199 7.74-9.53 29.46-11.011 24.4 8.029-5.061 19.051-11.011 44.051-11.011 44.051h161.01c34.521 0 17.86 21.72-27.38 30.649s-91.07 19.05-91.07 19.05l-3.579 41.971c0-.001-55.95 9.819-77.37-10.121z" class="colorfccac3 svgShape"></path><path fill="#c1c1c1" d="m1888.49 1048.53 1.49-27.98s41.1 9.03 78.25 10.26l-2.371 27.841c0-.001-55.949 9.819-77.369-10.121z" class="colorf59a8e svgShape"></path><path fill="#3eaffd" d="m1521.109 1497.07 272.19-120.021 90.021-349.35 89.479 13.39s-12.86 176.82-18.22 300.06c-5.35 123.23-4.82 142.521-115.189 206.82-110.381 64.301-247.551 134.49-247.551 134.49s-161.819-45.009-70.73-185.389z" class="colorfd3e42 svgShape"></path></svg>