<svg xmlns="http://www.w3.org/2000/svg" viewBox="0 0 155 155" id="Coding"><circle cx="77.5" cy="77.5" r="77.5" fill="#00abf0" class="color495057 svgShape"></circle><path fill="#112e42" d="M119.145 44.41c0-.01-.01-.02-.02-.03-.012-.01-.031-.03-.041-.04a3 3 0 0 0-2.08-.84h-79c-.77 0-1.54.29-2.13.88a2.99 2.99 0 0 0-.87 2.12v62c0 .77.29 1.54.87 2.12l44.311 44.312c40.66-1.388 73.354-34.078 74.746-74.734L119.145 44.41z" class="color343b43 svgShape"></path><path fill="#081b29" d="M120 108.5c0 .768-.293 1.536-.879 2.121a2.991 2.991 0 0 1-2.121.879H38a2.99 2.99 0 0 1-2.121-.879A2.988 2.988 0 0 1 35 108.5V58.8h85v49.7z" class="color8fdef6 svgShape"></path><path fill="#ededed" d="M120 58.8H35V46.5c0-.768.293-1.535.879-2.121S37.233 43.5 38 43.5h79c.768 0 1.535.293 2.121.879S120 45.732 120 46.5v12.3zM66.323 95.875 55.597 85.15l10.726-10.726 2.828 2.828-7.897 7.898 7.897 7.897zM88.676 95.875l-2.828-2.828 7.898-7.897-7.898-7.898 2.828-2.828L99.402 85.15zM79.833 69.603l3.848 1.092-8.51 29.999-3.849-1.092z" class="colorffffff svgShape"></path><circle cx="42.5" cy="51.15" r="2.5" fill="#b3b3b3" class="colorfd8369 svgShape"></circle><circle cx="50" cy="51.15" r="2.5" fill="#b2b2b2" class="colorfece66 svgShape"></circle><circle cx="57.5" cy="51.15" r="2.5" fill="#081b29" class="color8fdef6 svgShape"></circle></svg>