<svg xmlns="http://www.w3.org/2000/svg" viewBox="0 0 200 150" id="Websitewithjigsawpuzzle"><defs><linearGradient id="a" x1="100" x2="100" y1="36.52" y2="109.19" gradientUnits="userSpaceOnUse"><stop offset="0" stop-color="#c6c6c6" class="stopColor8eff99 svgShape"></stop><stop offset=".13" stop-color="#c3c3c3" class="stopColor8cfa9c svgShape"></stop><stop offset=".28" stop-color="#b9b9b9" class="stopColor86eca4 svgShape"></stop><stop offset=".45" stop-color="#a8a8a8" class="stopColor7cd4b2 svgShape"></stop><stop offset=".62" stop-color="#6dacc6" class="stopColor6db3c6 svgShape"></stop><stop offset=".8" stop-color="#00abf0" class="stopColor5b88df svgShape"></stop><stop offset=".99" stop-color="#45c9fe" class="stopColor4554fe svgShape"></stop><stop offset=".99" stop-color="#44c9ff" class="stopColor4452ff svgShape"></stop></linearGradient></defs><g data-name="Layer 1" fill="#000000" class="color000000 svgShape"><rect width="97.58" height="85.73" x="51.21" y="26.5" fill="url(#a)" rx="9.46"></rect><path d="M139.33,26.27H60.67A9.7,9.7,0,0,0,51,36v66.82a9.7,9.7,0,0,0,9.69,9.69h78.66a9.7,9.7,0,0,0,9.69-9.69V36A9.7,9.7,0,0,0,139.33,26.27Zm9.23,76.51a9.24,9.24,0,0,1-9.23,9.22H60.67a9.24,9.24,0,0,1-9.23-9.22V36a9.23,9.23,0,0,1,9.23-9.22h78.66A9.23,9.23,0,0,1,148.56,36Z" fill="#000000" class="color000000 svgShape"></path><path fill="#081b29" d="M109.84,46.05a4.91,4.91,0,0,0-3.48,1.19c-.26.25-.85.75-1.73,1.49a2.29,2.29,0,0,1-2.54.35,3,3,0,0,1-1.63-2.76V35.8H100V46.32a3.43,3.43,0,0,0,1.89,3.19,2.81,2.81,0,0,0,3-.42c.89-.74,1.48-1.25,1.76-1.52a4.4,4.4,0,0,1,3.12-1,5.06,5.06,0,0,1,3.63,2c2.75,3.28,2.07,9.56,1.23,12.75a5,5,0,0,1-4,3.38,2.63,2.63,0,0,1-2.74-.93,27.65,27.65,0,0,0-2.69-3.22,2.81,2.81,0,0,0-3.17-.78A3.43,3.43,0,0,0,100,63V73.8H83a1.94,1.94,0,0,1-1.7-1,2.55,2.55,0,0,1,0-2.56c1.58-2.69,2.38-4.85,2.38-6.4,0-4.32-3.06-6.9-8.2-6.9a7.06,7.06,0,0,0-7.41,7.26c0,1.11,1,3.11,2.81,5.95a2.55,2.55,0,0,1,.1,2.6,2,2,0,0,1-1.73,1.1H51.57v.47H69.29a2.46,2.46,0,0,0,2.14-1.35,3,3,0,0,0-.12-3.08c-1.79-2.72-2.73-4.69-2.73-5.69a6.61,6.61,0,0,1,6.94-6.79c4.92,0,7.74,2.34,7.74,6.43,0,1.45-.81,3.58-2.33,6.16a3,3,0,0,0,0,3A2.42,2.42,0,0,0,83,74.27h17.44V63a3,3,0,0,1,1.77-2.83,2.36,2.36,0,0,1,2.66.66A25.56,25.56,0,0,1,107.52,64a3.09,3.09,0,0,0,3.21,1.14,5.45,5.45,0,0,0,4.39-3.72c.86-3.28,1.55-9.74-1.32-13.17A5.52,5.52,0,0,0,109.84,46.05Z" class="color00162c svgShape"></path><path fill="#081b29" d="M129,75.15a3,3,0,0,0,.11,3.08c1.79,2.72,2.73,4.69,2.73,5.7a6.61,6.61,0,0,1-6.94,6.79c-4.92,0-7.74-2.35-7.74-6.43,0-1.45.81-3.59,2.33-6.16a3,3,0,0,0,0-3,2.42,2.42,0,0,0-2.1-1.28H100V86.94a1.93,1.93,0,0,1-1.16,1.85,1.52,1.52,0,0,1-1.72-.43c-.83-.91-1.58-1.66-2.2-2.23a6.23,6.23,0,0,0-5.28-1.61,5.59,5.59,0,0,0-4,3.37c-1.57,3.32-1.76,8.63,1,11.94a5.52,5.52,0,0,0,4,2.19,4.91,4.91,0,0,0,3.48-1.18c.26-.26.85-.76,1.73-1.49A2.31,2.31,0,0,1,98.37,99a3,3,0,0,1,1.63,2.77v10.52h.47V101.76a3.44,3.44,0,0,0-1.9-3.19,2.79,2.79,0,0,0-3,.42c-.89.74-1.48,1.25-1.75,1.51a4.4,4.4,0,0,1-3.13,1.06,5.13,5.13,0,0,1-3.63-2c-2.64-3.16-2.46-8.25-.94-11.44A5.17,5.17,0,0,1,89.73,85a5.79,5.79,0,0,1,4.87,1.49c.62.57,1.35,1.31,2.18,2.2a2,2,0,0,0,2.23.56,2.42,2.42,0,0,0,1.46-2.29V74.27h17a2,2,0,0,1,1.7,1,2.59,2.59,0,0,1,0,2.57c-1.59,2.69-2.39,4.84-2.39,6.4,0,4.32,3.06,6.89,8.2,6.89a7.06,7.06,0,0,0,7.41-7.25c0-1.11-.95-3.12-2.81-6a2.55,2.55,0,0,1-.09-2.6,2,2,0,0,1,1.72-1.11h17.72v-.46H131.17A2.42,2.42,0,0,0,129,75.15Z" class="color00162c svgShape"></path><path fill="#ededed" d="M139.33,26.5H60.67A9.46,9.46,0,0,0,51.21,36h97.58A9.46,9.46,0,0,0,139.33,26.5Z" class="colorffffff svgShape"></path><path fill="#081b29" d="M139.33,26.27H60.67A9.7,9.7,0,0,0,51,36a.23.23,0,0,0,.23.24h97.58A.23.23,0,0,0,149,36,9.7,9.7,0,0,0,139.33,26.27ZM51.45,35.73a9.23,9.23,0,0,1,9.22-9h78.66a9.23,9.23,0,0,1,9.22,9Z" class="color00162c svgShape"></path><rect width=".47" height="3.5" x="58.49" y="30.84" fill="#171c20" transform="rotate(-45 58.727 32.585)" class="color20171f svgShape"></rect><rect width="3.5" height=".47" x="56.98" y="32.36" fill="#171c20" transform="rotate(-45.09 58.72 32.595)" class="color20171f svgShape"></rect><path fill="#171c20" d="M63.68,31a1.65,1.65,0,1,0,1.64,1.64A1.65,1.65,0,0,0,63.68,31Zm0,2.82a1.18,1.18,0,1,1,1.18-1.18A1.18,1.18,0,0,1,63.68,33.78Z" class="color20171f svgShape"></path><rect width="2.51" height=".47" x="66.39" y="33.78" fill="#171c20" class="color20171f svgShape"></rect><path fill="#ededed" d="M132.74,28.13H79a3,3,0,1,0,0,6h53.74a3,3,0,0,0,0-6Z" class="colorffffff svgShape"></path><path fill="#081b29" d="M132.74,27.89H79a3.26,3.26,0,0,0,0,6.51h53.74a3.26,3.26,0,0,0,0-6.51Zm0,6H79a2.79,2.79,0,1,1,0-5.57h53.74a2.79,2.79,0,0,1,0,5.57Z" class="color00162c svgShape"></path><polygon points="92.19 112.23 107.43 112.23 143.72 41.75 131.54 35.65 92.19 112.23" style="mix-blend-mode:multiply" fill="#5b8495" class="color5b7895 svgShape"></polygon><rect width="105.14" height="15.44" x="58.87" y="67.28" fill="#ededed" transform="rotate(-63.35 111.451 74.999)" class="colorffffff svgShape"></rect><path fill="#081b29" d="M142,31.27l-13.8-6.93a.24.24,0,0,0-.31.11l-47.15,94a.23.23,0,0,0,.1.31l13.8,6.93.1,0h.07a.24.24,0,0,0,.14-.12l47.15-94A.23.23,0,0,0,142,31.27ZM94.66,125.13l-13.38-6.71,46.94-93.55,13.38,6.71Z" class="color00162c svgShape"></path><rect width=".47" height="3.76" x="84.71" y="112.83" fill="#081b29" transform="rotate(-63.35 84.938 114.706)" class="color00162c svgShape"></rect><rect width=".47" height="3.76" x="86.51" y="109.24" fill="#081b29" transform="rotate(-63.35 86.738 111.117)" class="color00162c svgShape"></rect><rect width=".47" height="7.1" x="89.8" y="104.72" fill="#081b29" transform="rotate(-63.36 90.03 108.277)" class="color00162c svgShape"></rect><rect width=".47" height="3.76" x="90.25" y="101.77" fill="#081b29" transform="rotate(-63.36 90.491 103.65)" class="color00162c svgShape"></rect><rect width=".47" height="3.76" x="92.05" y="98.18" fill="#081b29" transform="rotate(-63.36 92.292 100.062)" class="color00162c svgShape"></rect><rect width=".47" height="7.1" x="95.35" y="93.67" fill="#081b29" transform="rotate(-63.35 95.582 97.218)" class="color00162c svgShape"></rect><rect width=".47" height="3.76" x="95.8" y="90.72" fill="#081b29" transform="rotate(-63.35 96.03 92.594)" class="color00162c svgShape"></rect><polygon fill="#081b29" points="96.05 88.37 99.41 90.06 99.62 89.64 96.26 87.96 96.05 88.37" class="color00162c svgShape"></polygon><rect width=".47" height="7.1" x="100.9" y="82.62" fill="#081b29" transform="rotate(-63.35 101.129 86.162)" class="color00162c svgShape"></rect><rect width=".47" height="3.76" x="101.35" y="79.66" fill="#081b29" transform="rotate(-63.35 101.571 81.546)" class="color00162c svgShape"></rect><rect width=".47" height="3.76" x="103.15" y="76.07" fill="#081b29" transform="rotate(-63.35 103.376 77.95)" class="color00162c svgShape"></rect><rect width=".47" height="7.1" x="106.44" y="71.56" fill="#081b29" transform="rotate(-63.35 106.675 75.106)" class="color00162c svgShape"></rect><rect width=".47" height="3.76" x="106.89" y="68.61" fill="#081b29" transform="rotate(-63.35 107.118 70.49)" class="color00162c svgShape"></rect><rect width=".47" height="3.76" x="108.7" y="65.02" fill="#081b29" transform="rotate(-63.35 108.939 66.903)" class="color00162c svgShape"></rect><rect width=".47" height="7.1" x="111.99" y="60.51" fill="#081b29" transform="rotate(-63.35 112.23 64.055)" class="color00162c svgShape"></rect><rect width=".47" height="3.76" x="112.44" y="57.55" fill="#081b29" transform="rotate(-63.35 112.685 59.436)" class="color00162c svgShape"></rect><polygon fill="#081b29" points="112.69 55.21 116.05 56.9 116.26 56.48 112.9 54.79 112.69 55.21" class="color00162c svgShape"></polygon><rect width=".47" height="7.1" x="117.54" y="49.45" fill="#081b29" transform="rotate(-63.35 117.775 52.999)" class="color00162c svgShape"></rect><rect width=".47" height="3.76" x="117.99" y="46.5" fill="#081b29" transform="rotate(-63.35 118.231 48.38)" class="color00162c svgShape"></rect><rect width=".47" height="3.76" x="119.79" y="42.91" fill="#081b29" transform="rotate(-63.35 120.031 44.791)" class="color00162c svgShape"></rect><rect width=".47" height="7.1" x="123.08" y="38.4" fill="#081b29" transform="rotate(-63.35 123.316 41.95)" class="color00162c svgShape"></rect><rect width=".47" height="3.76" x="123.53" y="35.45" fill="#081b29" transform="rotate(-63.35 123.764 37.327)" class="color00162c svgShape"></rect><rect width=".47" height="3.76" x="125.34" y="31.86" fill="#081b29" transform="rotate(-63.35 125.564 33.738)" class="color00162c svgShape"></rect><rect width=".47" height="7.1" x="128.63" y="27.34" fill="#081b29" transform="rotate(-63.35 128.876 30.892)" class="color00162c svgShape"></rect><path fill="#081b29" d="M79.44,29.78a1,1,0,1,0,1,1A1,1,0,0,0,79.44,29.78Zm0,1.63a.58.58,0,1,1,.58-.58A.58.58,0,0,1,79.44,31.41Z" class="color00162c svgShape"></path><rect width=".47" height="1.41" x="80.34" y="31.22" fill="#081b29" transform="rotate(-45.03 80.564 31.926)" class="color00162c svgShape"></rect><rect width="33.54" height=".47" x="82.96" y="32.11" fill="#081b29" class="color00162c svgShape"></rect></g></svg>