<svg xmlns="http://www.w3.org/2000/svg" data-name="Web Design and Development" viewBox="0 0 900 700" id="WebsiteDevelopment"><rect width="329.563" height="312.308" x="393.294" y="100.273" fill="#c8c8c8" class="colora5c9eb svgShape"></rect><ellipse cx="761.231" cy="608.369" fill="#ededed" rx="55.755" ry="9.445" class="colorf2f2f2 svgShape"></ellipse><path fill="#39617c" d="M774.2713,490.13735c-.1541,1.5707-.385,3.2881-.7162,5.1899-3.7654,21.4765-9.0403,45.2092-9.0403,45.2092s-10.1722-23.7327-11.3041-45.9639c-1.1319-22.2232-16.2017-30.8862-11.2965-46.7106,4.6741-15.1081,7.9776-34.7827,8.2626-36.5307.0153-.0771.023-.1231.023-.1231s18.0806,24.9724,18.0806,44.5622C768.2804,473.62755,775.7883,473.95855,774.2713,490.13735Z" class="color397c77 svgShape"></path><path fill="#497c90" d="M774.2713,490.13735a135.47927,135.47927,0,0,1-12.2514,14.8079c5.8524-8.5476,4.0504-20.6372-1.8019-29.1847-4.3892-6.4068-11.0038-11.9048-12.0742-19.5898-.5776-4.1275.5775-8.2625,1.44-12.3361,2.2408-10.5958,3.6577-22.3697.593-32.5034.0153-.0771.023-.1231.023-.1231s18.0806,24.9724,18.0806,44.5622C768.2804,473.62755,775.7883,473.95855,774.2713,490.13735Z" class="color49908c svgShape"></path><path fill="#39617c" d="M801.7815,504.98905c-.0077.0077-.0077.0077-.0077.0153a31.22061,31.22061,0,0,1-1.0934,6.222c-5.6522,19.2895-38.0478,41.3666-38.0478,41.3666a.13477.13477,0,0,1,.0077-.0385c3.3959-35.3834,28.9997-47.4345,24.8569-73.1-4.0812-25.3113,12.7057-45.3477,13.1754-45.8944C791.8557,450.20825,803.5449,484.31335,801.7815,504.98905Z" class="color397c77 svgShape"></path><path fill="#2d5672" d="M801.7738,505.00435a31.22061,31.22061,0,0,1-1.0934,6.222c-5.6522,19.2895-38.0478,41.3666-38.0478,41.3666a.13477.13477,0,0,1,.0077-.0385c.1309-.8394,2.5026-14.4691,19.6591-26.7051C797.246,515.18435,800.9729,507.22985,801.7738,505.00435Z" class="color2d726d svgShape"></path><path fill="#5d9ab3" d="M728.7244,389.46555s-21.0975,61.7855,0,100.2131,29.7625,62.9157,29.7625,62.9157,4.5209-30.1393-8.665-58.0181S730.2314,414.70715,728.7244,389.46555Z" class="color5db3ab svgShape"></path><path fill="#497c90" d="M793.9006,488.54835s-21.4743,9.7953-19.2138,41.4415-2.2605,39.5578-2.2605,39.5578l-10.172-21.851s-9.0417-27.8788,7.9116-51.2367Z" class="color49908c svgShape"></path><path fill="#5b98b1" d="M830.8212,411.31655s-15.0697,4.8976-16.1999,25.6183,1.1302,41.0648-20.7207,51.6135-39.9346,23.358-31.6463,59.1483c0,0-10.9254-25.2416,7.5349-59.1483s12.6129-24.4881,25.1435-35.4136S815.3748,409.05605,830.8212,411.31655Z" class="color5bb1a8 svgShape"></path><path fill="#497c90" d="M719.912,433.56005s-10.0265,34.544,1.7715,54.9883,24.4096,51.5026,26.8506,64.0446,6.5092,3.9986,6.5092,3.9986,14.4126-17.9574-11.2706-47.4926C714.9718,475.97875,719.912,433.56005,719.912,433.56005Z" class="color49908c svgShape"></path><path fill="#a4a4a4" d="M723.9336,536.40165v50.6645a25.80678,25.80678,0,0,0,25.8068,25.8067h22.9812a25.80676,25.80676,0,0,0,25.8067-25.8067v-50.6645Z" class="colore6a562 svgShape"></path><path fill="#1c5882" d="M635.5723,517.48155H181.1997c-4.629,0-9.2673,1.1389-10.3692,2.556L91.6373,628.38975c-1.737,2.2327,1.6166,4.0624,7.5094,4.0624h621.524c5.8927,0,9.1844-1.8297,7.3719-4.0624l-82.0147-108.3522C644.8781,518.62045,640.2014,517.48155,635.5723,517.48155Z" class="color3c1c82 svgShape"></path><polygon fill="#1c5882" points="729.764 622.889 728.505 629.913 724.09 630.058 724.67 624.422 729.764 622.889" class="color3c1c82 svgShape"></polygon><polygon fill="#1c5882" points="88.545 623.176 91.268 630.043 96.552 624.804 88.545 623.176" class="color3c1c82 svgShape"></polygon><path fill="#c4c4c4" d="M636.6822,513.48065H178.8745c-4.6641,0-9.3361,1.1137-10.4447,2.4994L88.8173,621.41175c-1.7446,2.1798,1.6348,3.966,7.5671,3.966H721.8105c5.9323,0,9.2551-1.7862,7.4414-3.966l-82.046-105.4317C646.0535,514.59435,641.3462,513.48065,636.6822,513.48065Z" class="colorb29bee svgShape"></path><path fill="#ffffff" d="M218.6613 527.59765H181.7234c-1.8472 0-3.0057-.46-2.5889-1.0256l4.4665-6.0607c.3989-.5413 2.1792-.9787 3.9776-.9787h35.9613c1.7984 0 2.9965.4374 2.6751.9787l-3.5997 6.0607C222.2794 527.13765 220.5086 527.59765 218.6613 527.59765zM250.6548 527.59765H229.7136c-1.8472 0-3.0781-.46-2.7502-1.0256l3.5129-6.0607c.3138-.5413 2.0252-.9787 3.8236-.9787h20.3875c1.7985 0 3.0425.4374 2.7778.9787l-2.964 6.0607C254.2246 527.13765 252.5021 527.59765 250.6548 527.59765zM282.6236 527.59765H261.6824c-1.8473 0-3.1263-.46-2.8578-1.0256l2.8778-6.0607c.257-.5413 1.9226-.9787 3.721-.9787h20.3875c1.7985 0 3.0883.4374 2.8803.9787l-2.3288 6.0607C286.1451 527.13765 284.4708 527.59765 282.6236 527.59765zM314.5923 527.59765H293.6511c-1.8472 0-3.1745-.46-2.9652-1.0256l2.2426-6.0607c.2003-.5413 1.82-.9787 3.6184-.9787h20.3875c1.7985 0 3.1342.4374 2.9829.9787l-1.6936 6.0607C318.0656 527.13765 316.4396 527.59765 314.5923 527.59765zM346.5611 527.59765H325.6199c-1.8473 0-3.2228-.46-3.0728-1.0256l1.6075-6.0607c.1435-.5413 1.7174-.9787 3.5158-.9787h20.3875c1.7985 0 3.18.4374 3.0855.9787l-1.0585 6.0607C349.9862 527.13765 348.4083 527.59765 346.5611 527.59765zM378.5298 527.59765H357.5886c-1.8472 0-3.2709-.46-3.1802-1.0256l.9722-6.0607c.0869-.5413 1.6149-.9787 3.4134-.9787h20.3874c1.7985 0 3.2258.4374 3.188.9787l-.4232 6.0607C381.9067 527.13765 380.3771 527.59765 378.5298 527.59765zM410.4986 527.59765H389.5574c-1.8473 0-3.3192-.46-3.2878-1.0256l.3371-6.0607c.0301-.5413 1.5123-.9787 3.3108-.9787h20.3874c1.7985 0 3.2717.4374 3.2906.9787l.212 6.0607C413.8272 527.13765 412.3458 527.59765 410.4986 527.59765zM442.4673 527.59765H421.5261c-1.8472 0-3.3674-.46-3.3952-1.0256l-.2981-6.0607c-.0267-.5413 1.4097-.9787 3.2082-.9787h20.3875c1.7984 0 3.3174.4374 3.3931.9787l.8471 6.0607C445.7478 527.13765 444.3146 527.59765 442.4673 527.59765zM474.4361 527.59765H453.4949c-1.8473 0-3.4156-.46-3.5027-1.0256l-.9334-6.0607c-.0833-.5413 1.3072-.9787 3.1057-.9787H472.552c1.7984 0 3.3633.4374 3.4956.9787l1.4824 6.0607C477.6683 527.13765 476.2833 527.59765 474.4361 527.59765zM506.4048 527.59765H485.4636c-1.8472 0-3.4638-.46-3.6102-1.0256l-1.5685-6.0607c-.1401-.5413 1.2046-.9787 3.0031-.9787h20.3875c1.7984 0 3.4091.4374 3.5982.9787l2.1175 6.0607C509.5888 527.13765 508.2521 527.59765 506.4048 527.59765zM538.3735 527.59765H517.4324c-1.8473 0-3.5121-.46-3.7177-1.0256l-2.2037-6.0607c-.1968-.5413 1.102-.9787 2.9005-.9787H534.799c1.7984 0 3.4549.4374 3.7008.9787l2.7527 6.0607C541.5094 527.13765 540.2208 527.59765 538.3735 527.59765zM570.3423 527.59765H549.4011c-1.8472 0-3.5602-.46-3.8252-1.0256l-2.8389-6.0607c-.2535-.5413.9995-.9787 2.798-.9787h20.3875c1.7984 0 3.5008.4374 3.8034.9787l3.3878 6.0607C573.4299 527.13765 572.1896 527.59765 570.3423 527.59765zM602.311 527.59765H581.3699c-1.8473 0-3.6085-.46-3.9327-1.0256l-3.4741-6.0607c-.3103-.5413.8969-.9787 2.6954-.9787H597.046c1.7984 0 3.5466.4374 3.9059.9787l4.0231 6.0607C605.3504 527.13765 604.1583 527.59765 602.311 527.59765zM634.2798 527.59765H613.3386c-1.8472 0-3.6567-.46-4.0402-1.0256l-4.1092-6.0607c-.367-.5413.7943-.9787 2.5928-.9787h20.3875c1.7984 0 3.5925.4374 4.0085.9787l4.6582 6.0607C637.271 527.13765 636.1271 527.59765 634.2798 527.59765zM209.0446 559.10185H158.8515c-2.038 0-3.2776-.5599-2.7705-1.2481l5.4219-7.357c.4831-.6556 2.4775-1.1851 4.4563-1.1851h48.7329c1.9787 0 3.2832.5295 2.9122 1.1851l-4.1633 7.357C213.0516 558.542 211.0826 559.10185 209.0446 559.10185zM658.1485 559.10185H607.9554c-2.038 0-4.0247-.5599-4.4359-1.2481l-4.396-7.357c-.3918-.6556.8959-1.1851 2.8747-1.1851h48.7329c1.9787 0 3.9899.5295 4.4937 1.1851l5.6547 7.357C661.4084 558.542 660.1865 559.10185 658.1485 559.10185zM243.6994 559.10185h-23.104c-2.0381 0-3.3803-.5599-2.9995-1.2481l4.0721-7.357c.3629-.6556 2.2601-1.1851 4.2388-1.1851h22.4319c1.9788 0 3.3378.5295 3.0343 1.1851l-3.4057 7.357C247.6488 558.542 245.7374 559.10185 243.6994 559.10185zM278.9699 559.10185h-23.104c-2.0381 0-3.439-.5599-3.1302-1.2481l3.301-7.357c.2941-.6556 2.1358-1.1851 4.1146-1.1851h22.4319c1.9788 0 3.3932.5295 3.1585 1.1851l-2.6346 7.357C282.8606 558.542 281.008 559.10185 278.9699 559.10185zM314.2404 559.10185h-23.104c-2.038 0-3.4977-.5599-3.261-1.2481l2.53-7.357c.2254-.6556 2.0116-1.1851 3.9904-1.1851h22.4319c1.9787 0 3.4487.5295 3.2826 1.1851l-1.8635 7.357C318.0725 558.542 316.2785 559.10185 314.2404 559.10185zM349.511 559.10185H326.4069c-2.038 0-3.5563-.5599-3.3918-1.2481l1.7589-7.357c.1568-.6556 1.8875-1.1851 3.8662-1.1851h22.4319c1.9788 0 3.5043.5295 3.4069 1.1851l-1.0925 7.357C353.2843 558.542 351.549 559.10185 349.511 559.10185zM384.7815 559.10185h-23.104c-2.0381 0-3.6151-.5599-3.5227-1.2481l.9879-7.357c.088-.6556 1.7632-1.1851 3.742-1.1851h22.4319c1.9788 0 3.5597.5295 3.5311 1.1851l-.3215 7.357C388.4962 558.542 386.8195 559.10185 384.7815 559.10185zM420.052 559.10185H396.948c-2.0381 0-3.6737-.5599-3.6534-1.2481l.2168-7.357c.0193-.6556 1.639-1.1851 3.6178-1.1851h22.4319c1.9787 0 3.6152.5295 3.6553 1.1851l.4496 7.357C423.708 558.542 422.0901 559.10185 420.052 559.10185zM455.3225 559.10185h-23.104c-2.038 0-3.7324-.5599-3.7842-1.2481l-.5542-7.357c-.0494-.6556 1.5148-1.1851 3.4935-1.1851h22.4319c1.9788 0 3.6708.5295 3.7795 1.1851l1.2207 7.357C458.9199 558.542 457.3606 559.10185 455.3225 559.10185zM490.5931 559.10185H467.489c-2.038 0-3.791-.5599-3.915-1.2481l-1.3253-7.357c-.1181-.6556 1.3906-1.1851 3.3694-1.1851H488.05c1.9788 0 3.7262.5295 3.9037 1.1851l1.9917 7.357C494.1317 558.542 492.6311 559.10185 490.5931 559.10185zM525.8636 559.10185h-23.104c-2.0381 0-3.8498-.5599-4.0459-1.2481l-2.0963-7.357c-.1868-.6556 1.2664-1.1851 3.2452-1.1851h22.4319c1.9787 0 3.7817.5295 4.0279 1.1851l2.7627 7.357C529.3435 558.542 527.9016 559.10185 525.8636 559.10185zM561.1341 559.10185h-23.104c-2.0381 0-3.9085-.5599-4.1767-1.2481l-2.8673-7.357c-.2555-.6556 1.1422-1.1851 3.1209-1.1851h22.4319c1.9788 0 3.8373.5295 4.1522 1.1851l3.5338 7.357C564.5554 558.542 563.1722 559.10185 561.1341 559.10185zM596.4046 559.10185h-23.104c-2.038 0-3.9671-.5599-4.3074-1.2481l-3.6384-7.357c-.3243-.6556 1.0179-1.1851 2.9967-1.1851h22.4319c1.9788 0 3.8927.5295 4.2763 1.1851l4.3049 7.357C599.7672 558.542 598.4427 559.10185 596.4046 559.10185zM219.8125 571.10305H150.1386c-2.1107 0-3.3792-.6005-2.8354-1.3384l5.8094-7.8829c.5172-.7019 2.5946-1.2687 4.6418-1.2687h67.5768c2.0472 0 3.4148.5668 3.0533 1.2687l-4.0607 7.8829C223.9436 570.50255 221.9232 571.10305 219.8125 571.10305zM667.2411 571.10305H597.5672c-2.1107 0-4.1501-.6005-4.5536-1.3384l-4.3101-7.8829c-.3838-.7019.9659-1.2687 3.0131-1.2687h67.5768c2.0472 0 4.1425.5668 4.682 1.2687l6.0587 7.8829C670.6013 570.50255 669.3518 571.10305 667.2411 571.10305zM256.2764 571.10305H232.3485c-2.1107 0-3.5209-.6005-3.1511-1.3384l3.95-7.8829c.3517-.7019 2.2953-1.2687 4.3426-1.2687h23.2077c2.0472 0 3.4741.5668 3.186 1.2687l-3.236 7.8829C260.3448 570.50255 258.3872 571.10305 256.2764 571.10305zM292.8047 571.10305H268.8768c-2.1107 0-3.5838-.6005-3.2914-1.3384l3.1239-7.8829c.2781-.7019 2.1624-1.2687 4.2096-1.2687h23.2077c2.0472 0 3.5335.5668 3.319 1.2687l-2.4099 7.8829C296.8101 570.50255 294.9155 571.10305 292.8047 571.10305zM329.333 571.10305H305.4051c-2.1107 0-3.6468-.6005-3.4317-1.3384l2.2978-7.8829c.2045-.7019 2.0294-1.2687 4.0766-1.2687h23.2077c2.0472 0 3.5929.5668 3.4519 1.2687l-1.5836 7.8829C333.2755 570.50255 331.4438 571.10305 329.333 571.10305zM365.8614 571.10305h-23.928c-2.1107 0-3.7097-.6005-3.5719-1.3384l1.4715-7.8829c.1311-.7019 1.8965-1.2687 3.9437-1.2687h23.2077c2.0472 0 3.6523.5668 3.5849 1.2687l-.7575 7.8829C369.7409 570.50255 367.9721 571.10305 365.8614 571.10305zM402.3897 571.10305h-23.928c-2.1107 0-3.7726-.6005-3.7122-1.3384l.6454-7.8829c.0575-.7019 1.7635-1.2687 3.8107-1.2687h23.2077c2.0472 0 3.7118.5668 3.7179 1.2687l.0686 7.8829C406.2063 570.50255 404.5004 571.10305 402.3897 571.10305zM438.918 571.10305H414.99c-2.1107 0-3.8355-.6005-3.8525-1.3384l-.1807-7.8829c-.0161-.7019 1.6305-1.2687 3.6777-1.2687h23.2077c2.0472 0 3.7712.5668 3.8508 1.2687l.8949 7.8829C442.6716 570.50255 441.0287 571.10305 438.918 571.10305zM475.4463 571.10305H451.5184c-2.1108 0-3.8986-.6005-3.9928-1.3384l-1.007-7.8829c-.0896-.7019 1.4976-1.2687 3.5448-1.2687h23.2077c2.0472 0 3.8306.5668 3.9838 1.2687l1.721 7.8829C479.137 570.50255 477.557 571.10305 475.4463 571.10305zM511.9746 571.10305H488.0467c-2.1108 0-3.9615-.6005-4.1331-1.3384l-1.8331-7.8829c-.1632-.7019 1.3646-1.2687 3.4118-1.2687H508.7c2.0473 0 3.89.5668 4.1168 1.2687l2.5471 7.8829C515.6024 570.50255 514.0853 571.10305 511.9746 571.10305zM548.5029 571.10305H524.575c-2.1108 0-4.0244-.6005-4.2734-1.3384l-2.6592-7.8829c-.2368-.7019 1.2316-1.2687 3.2788-1.2687H544.129c2.0472 0 3.9493.5668 4.2497 1.2687l3.3732 7.8829C552.0677 570.50255 550.6136 571.10305 548.5029 571.10305zM585.0312 571.10305H561.1033c-2.1108 0-4.0874-.6005-4.4136-1.3384l-3.4854-7.8829c-.3104-.7019 1.0986-1.2687 3.1458-1.2687h23.2078c2.0472 0 4.0087.5668 4.3826 1.2687l4.1995 7.8829C588.5331 570.50255 587.1419 571.10305 585.0312 571.10305zM165.5941 583.992H140.7814c-2.1888 0-3.4873-.6457-2.9026-1.4391l6.24-8.4672c.555-.7532 2.7223-1.3614 4.8429-1.3614h24.0392c2.1205 0 3.4464.6082 2.9596 1.3614l-5.473 8.4672C169.9747 583.34625 167.7829 583.992 165.5941 583.992zM203.4733 583.992H178.6605c-2.1888 0-3.555-.6457-3.0534-1.4391l5.3525-8.4672c.4762-.7532 2.5797-1.3614 4.7003-1.3614h24.0392c2.1206 0 3.5102.6082 3.1023 1.3614l-4.5856 8.4672C207.7861 583.34625 205.662 583.992 203.4733 583.992zM241.3524 583.992H216.5396c-2.1888 0-3.6226-.6457-3.2042-1.4391l4.4651-8.4672c.3973-.7532 2.437-1.3614 4.5576-1.3614h24.0392c2.1206 0 3.574.6082 3.245 1.3614l-3.6982 8.4672C245.5976 583.34625 243.5412 583.992 241.3524 583.992zM562.9802 583.992H538.1675c-2.1888 0-4.1973-.6457-4.4849-1.4391l-3.0696-8.4672c-.2731-.7532 1.2255-1.3614 3.346-1.3614h24.0393c2.1205 0 4.1151.6082 4.4564 1.3614l3.8366 8.4672C566.6508 583.34625 565.169 583.992 562.9802 583.992zM600.9889 583.992H576.1761c-2.1888 0-4.2652-.6457-4.6362-1.4391l-3.96-8.4672c-.3523-.7532 1.0823-1.3614 3.2028-1.3614h24.0392c2.1206 0 4.1792.6082 4.5997 1.3614l4.727 8.4672C604.5915 583.34625 603.1777 583.992 600.9889 583.992zM677.0061 583.992H652.1934c-2.1888 0-4.401-.6457-4.9389-1.4391l-5.7409-8.4672c-.5107-.7532.796-1.3614 2.9165-1.3614h24.0392c2.1206 0 4.3071.6082 4.886 1.3614l6.5079 8.4672C680.473 583.34625 679.1949 583.992 677.0061 583.992zM288.7232 583.992H254.4187c-2.1888 0-3.6903-.6457-3.355-1.4391l3.5777-8.4672c.3183-.7532 2.2944-1.3614 4.4149-1.3614h33.2351c2.1205 0 3.6536.6082 3.4234 1.3614l-2.5885 8.4672C292.8838 583.34625 290.912 583.992 288.7232 583.992zM478.1188 583.992H301.7896c-2.1888 0-3.775-.6457-3.5437-1.4391l2.468-8.4672c.2196-.7532 2.1159-1.3614 4.2365-1.3614h170.832c2.1206 0 3.9724.6082 4.1369 1.3614l1.8485 8.4672C481.941 583.34625 480.3076 583.992 478.1188 583.992zM524.4636 583.992H490.1591c-2.1888 0-4.1114-.6457-4.2937-1.4391l-1.9449-8.4672c-.173-.7532 1.4063-1.3614 3.5269-1.3614h33.235c2.1206 0 4.0504.6082 4.3114 1.3614l2.9343 8.4672C528.203 583.34625 526.6524 583.992 524.4636 583.992zM206.3495 547.95115H166.9469c-1.9706 0-3.1822-.5235-2.7081-1.1669l5.0735-6.8842c.4524-.614 2.3704-1.1099 4.2854-1.1099H211.891c1.915 0 3.1729.4959 2.8083 1.1099l-4.0888 6.8842C210.2283 547.42765 208.32 547.95115 206.3495 547.95115zM240.4777 547.95115H218.1392c-1.9705 0-3.2645-.5235-2.8916-1.1669l3.9904-6.8842c.3558-.614 2.1958-1.1099 4.1108-1.1099h21.7096c1.915 0 3.2249.4959 2.9247 1.1099l-3.3668 6.8842C244.3017 547.42765 242.4483 547.95115 240.4777 547.95115zM274.5796 547.95115H252.2411c-1.9705 0-3.3194-.5235-3.0139-1.1669l3.2689-6.8842c.2915-.614 2.0794-1.1099 3.9945-1.1099h21.7096c1.915 0 3.2769.4959 3.041 1.1099l-2.6453 6.8842C278.3487 547.42765 276.5501 547.95115 274.5796 547.95115zM308.6815 547.95115H286.343c-1.9705 0-3.3743-.5235-3.1362-1.1669l2.5474-6.8842c.2271-.614 1.9631-1.1099 3.8782-1.1099h21.7095c1.9151 0 3.3289.4959 3.1574 1.1099l-1.9238 6.8842C312.3957 547.42765 310.652 547.95115 308.6815 547.95115zM342.7834 547.95115H320.4449c-1.9705 0-3.4291-.5235-3.2585-1.1669l1.8259-6.8842c.1628-.614 1.8468-1.1099 3.7618-1.1099h21.7096c1.915 0 3.3809.4959 3.2737 1.1099l-1.2023 6.8842C346.4427 547.42765 344.7539 547.95115 342.7834 547.95115zM376.8853 547.95115H354.5468c-1.9706 0-3.484-.5235-3.3808-1.1669l1.1043-6.8842c.0985-.614 1.7306-1.1099 3.6456-1.1099h21.7096c1.915 0 3.4328.4959 3.39 1.1099l-.4808 6.8842C380.4898 547.42765 378.8558 547.95115 376.8853 547.95115zM410.9871 547.95115H388.6487c-1.9706 0-3.5389-.5235-3.5031-1.1669l.3828-6.8842c.0342-.614 1.6142-1.1099 3.5293-1.1099h21.7095c1.9151 0 3.4849.4959 3.5063 1.1099l.2408 6.8842C414.5368 547.42765 412.9577 547.95115 410.9871 547.95115zM445.089 547.95115H422.7505c-1.9705 0-3.5937-.5235-3.6253-1.1669l-.3387-6.8842c-.0302-.614 1.4979-1.1099 3.4129-1.1099H443.909c1.915 0 3.5368.4959 3.6226 1.1099l.9623 6.8842C448.5838 547.42765 447.0596 547.95115 445.089 547.95115zM479.1909 547.95115H456.8524c-1.9705 0-3.6485-.5235-3.7476-1.1669l-1.0602-6.8842c-.0945-.614 1.3816-1.1099 3.2966-1.1099h21.7096c1.915 0 3.5888.4959 3.7389 1.1099l1.6838 6.8842C482.6308 547.42765 481.1614 547.95115 479.1909 547.95115zM513.2928 547.95115H490.9543c-1.9705 0-3.7034-.5235-3.8699-1.1669l-1.7817-6.8842c-.1589-.614 1.2652-1.1099 3.1803-1.1099h21.7095c1.9151 0 3.6408.4959 3.8553 1.1099l2.4053 6.8842C516.6779 547.42765 515.2633 547.95115 513.2928 547.95115zM547.3947 547.95115H525.0562c-1.9705 0-3.7583-.5235-3.9922-1.1669l-2.5032-6.8842c-.2232-.614 1.1489-1.1099 3.0639-1.1099h21.7096c1.9151 0 3.6928.4959 3.9716 1.1099l3.1268 6.8842C550.7249 547.42765 549.3652 547.95115 547.3947 547.95115zM581.4966 547.95115H559.1581c-1.9706 0-3.8132-.5235-4.1145-1.1669l-3.2247-6.8842c-.2876-.614 1.0326-1.1099 2.9476-1.1099h21.7096c1.915 0 3.7447.4959 4.0879 1.1099l3.8483 6.8842C584.7719 547.42765 583.4671 547.95115 581.4966 547.95115zM615.5984 547.95115H593.26c-1.9706 0-3.868-.5235-4.2369-1.1669l-3.9461-6.8842c-.3519-.614.9162-1.1099 2.8313-1.1099h21.7095c1.9151 0 3.7968.4959 4.2043 1.1099l4.5697 6.8842C618.8189 547.42765 617.569 547.95115 615.5984 547.95115zM649.7003 547.95115H627.3618c-1.9705 0-3.9228-.5235-4.3591-1.1669l-4.6676-6.8842c-.4163-.614.7999-1.1099 2.7149-1.1099h21.7096c1.9151 0 3.8487.4959 4.3206 1.1099l5.2912 6.8842C652.866 547.42765 651.6709 547.95115 649.7003 547.95115zM641.8033 537.52785H603.6629c-1.9074 0-3.7605-.4905-4.1377-1.0934l-4.0388-6.4561c-.3605-.5762.8524-1.0417 2.7078-1.0417h37.1c1.8554 0 3.7173.4655 4.1601 1.0417l4.9622 6.4561C644.8799 537.03735 643.7107 537.52785 641.8033 537.52785zM196.1371 537.52785H174.5142c-1.9074 0-3.0922-.4905-2.6479-1.0934l4.7579-6.4561c.4247-.5762 2.2718-1.0417 4.1272-1.0417h21.0331c1.8553 0 3.0585.4655 2.6861 1.0417l-4.1731 6.4561C199.9078 537.03735 198.0445 537.52785 196.1371 537.52785zM229.1465 537.52785H207.5236c-1.9074 0-3.1436-.4905-2.7624-1.0934l4.0813-6.4561c.3642-.5762 2.1626-1.0417 4.018-1.0417h21.033c1.8554 0 3.1074.4655 2.7953 1.0417l-3.4964 6.4561C232.8658 537.03735 231.0539 537.52785 229.1465 537.52785zM262.156 537.52785H240.5331c-1.9074 0-3.195-.4905-2.877-1.0934l3.4046-6.4561c.3039-.5762 2.0535-1.0417 3.9088-1.0417h21.0331c1.8554 0 3.1562.4655 2.9045 1.0417l-2.8199 6.4561C265.8239 537.03735 264.0634 537.52785 262.156 537.52785zM295.1655 537.52785H273.5426c-1.9074 0-3.2464-.4905-2.9917-1.0934l2.7281-6.4561c.2434-.5762 1.9442-1.0417 3.7996-1.0417h21.0331c1.8554 0 3.2049.4655 3.0136 1.0417l-2.1432 6.4561C298.782 537.03735 297.0729 537.52785 295.1655 537.52785zM328.175 537.52785H306.5521c-1.9074 0-3.2979-.4905-3.1063-1.0934l2.0514-6.4561c.1831-.5762 1.8351-1.0417 3.6905-1.0417h21.0331c1.8553 0 3.2537.4655 3.1228 1.0417l-1.4666 6.4561C331.74 537.03735 330.0824 537.52785 328.175 537.52785zM361.1844 537.52785H339.5615c-1.9074 0-3.3492-.4905-3.2208-1.0934l1.3748-6.4561c.1227-.5762 1.7259-1.0417 3.5813-1.0417h21.033c1.8554 0 3.3025.4655 3.232 1.0417l-.7899 6.4561C364.6981 537.03735 363.0918 537.52785 361.1844 537.52785zM394.1939 537.52785H372.571c-1.9074 0-3.4006-.4905-3.3354-1.0934l.6981-6.4561c.0623-.5762 1.6168-1.0417 3.4721-1.0417h21.0331c1.8554 0 3.3513.4655 3.3412 1.0417l-.1133 6.4561C397.6562 537.03735 396.1013 537.52785 394.1939 537.52785zM427.2034 537.52785H405.5805c-1.9074 0-3.452-.4905-3.45-1.0934l.0215-6.4561c.0019-.5762 1.5075-1.0417 3.3629-1.0417H426.548c1.8554 0 3.4001.4655 3.4503 1.0417l.5633 6.4561C430.6143 537.03735 429.1108 537.52785 427.2034 537.52785zM460.2129 537.52785H438.59c-1.9074 0-3.5035-.4905-3.5647-1.0934l-.6551-6.4561c-.0584-.5762 1.3984-1.0417 3.2538-1.0417h21.0331c1.8553 0 3.4488.4655 3.5595 1.0417l1.2399 6.4561C463.5723 537.03735 462.1203 537.52785 460.2129 537.52785zM493.2223 537.52785H471.5994c-1.9074 0-3.5548-.4905-3.6792-1.0934l-1.3317-6.4561c-.1189-.5762 1.2892-1.0417 3.1445-1.0417h21.0331c1.8554 0 3.4977.4655 3.6687 1.0417l1.9166 6.4561C496.5304 537.03735 495.1297 537.52785 493.2223 537.52785zM526.2318 537.52785H504.6089c-1.9074 0-3.6062-.4905-3.7938-1.0934l-2.0084-6.4561c-.1792-.5762 1.18-1.0417 3.0354-1.0417h21.0331c1.8554 0 3.5465.4655 3.7779 1.0417l2.5932 6.4561C529.4885 537.03735 528.1392 537.52785 526.2318 537.52785zM559.2413 537.52785H537.6184c-1.9074 0-3.6577-.4905-3.9084-1.0934l-2.685-6.4561c-.2397-.5762 1.0708-1.0417 2.9262-1.0417h21.0331c1.8554 0 3.5952.4655 3.887 1.0417l3.2699 6.4561C562.4465 537.03735 561.1487 537.52785 559.2413 537.52785zM592.2508 537.52785H570.6279c-1.9074 0-3.7091-.4905-4.023-1.0934l-3.3617-6.4561c-.3-.5762.9617-1.0417 2.8171-1.0417h21.0331c1.8553 0 3.644.4655 3.9962 1.0417l3.9464 6.4561C595.4046 537.03735 594.1582 537.52785 592.2508 537.52785zM606.565 577.609h32.1609l-2.3374-3.5232c-.4997-.7533-2.6223-1.3615-4.7429-1.3615H607.6064c-2.1205 0-3.4911.6082-3.0597 1.3615zM642.0059 582.55285l-2.4048-3.6248H607.3207l2.0765 3.6248c.4545.7933 2.5988 1.4391 4.7875 1.4391h24.8128C641.1863 583.992 642.5322 583.34615 642.0059 582.55285z" class="colorffffff svgShape"></path><path fill="#1c5882" d="M190.6188,206.49635H628.9153a20.4065,20.4065,0,0,1,20.4065,20.4065v266.1716a20.4062,20.4062,0,0,1-20.4062,20.4062H190.6191a20.4065,20.4065,0,0,1-20.4065-20.4065V226.90255A20.4062,20.4062,0,0,1,190.6188,206.49635Z" class="color3c1c82 svgShape"></path><rect width="447.148" height="275.024" x="186.193" y="222.477" fill="#ededed" rx="4.426" class="colorf2f2f2 svgShape"></rect><rect width="447.148" height="275.024" x="69.179" y="127.383" fill="#ededed" rx="4.426" class="colorf2f2f2 svgShape"></rect><path fill="#69b8d8" d="M516.327,154.49335v-24.1029a3.01047,3.01047,0,0,0-3.0068-3.0074H72.1858a3.01051,3.01051,0,0,0-3.007,3.0074v24.1029Z" class="color6988d8 svgShape"></path><path fill="#ededed" d="M91.7434 140.93815a5.29645 5.29645 0 11-5.2964-5.2964A5.29645 5.29645 0 0191.7434 140.93815zM110.8921 140.93815a5.29645 5.29645 0 11-5.2964-5.2964A5.29645 5.29645 0 01110.8921 140.93815zM130.0408 140.93815a5.29645 5.29645 0 11-5.2964-5.2964A5.29645 5.29645 0 01130.0408 140.93815z" class="colorf2f2f2 svgShape"></path><rect width="284.437" height="119.889" x="76.385" y="164.173" fill="#d1d1d1" class="colorcfb0f3 svgShape"></rect><rect width="136.138" height="99.754" x="76.385" y="294.798" fill="#00abf0" class="color31c9ce svgShape"></rect><rect width="136.138" height="99.754" x="224.684" y="294.798" fill="#69b8d8" class="color6988d8 svgShape"></rect><rect width="136.138" height="230.379" x="372.982" y="164.173" fill="#e6e6e6" class="colorcde7fe svgShape"></rect><rect width="32.436" height="5.232" x="380.396" y="172.103" fill="#c8c8c8" class="colora5c9eb svgShape"></rect><rect width="19.74" height="5.232" x="417.484" y="172.103" fill="#ffffff" class="colorffffff svgShape"></rect><rect width="19.74" height="5.232" x="443.991" y="172.103" fill="#808080" class="colorffcc00 svgShape"></rect><rect width="54.767" height="5.232" x="380.396" y="186.055" fill="#808080" class="colorffcc00 svgShape"></rect><rect width="26.055" height="5.232" x="439.815" y="186.055" fill="#c8c8c8" class="colora5c9eb svgShape"></rect><rect width="27.65" height="5.232" x="469.67" y="186.055" fill="#ffffff" class="colorffffff svgShape"></rect><rect width="40.411" height="5.232" x="380.396" y="200.008" fill="#ffffff" class="colorffffff svgShape"></rect><rect width="18.08" height="5.232" x="425.459" y="200.008" fill="#c8c8c8" class="colora5c9eb svgShape"></rect><rect width="18.08" height="5.232" x="452.741" y="200.008" fill="#808080" class="colorffcc00 svgShape"></rect><rect width="46.791" height="5.232" x="380.396" y="213.96" fill="#6fb3ce" class="color6fcece svgShape"></rect><rect width="32.594" height="5.232" x="459.678" y="213.96" fill="#c8c8c8" class="colora5c9eb svgShape"></rect><rect width="19.264" height="5.232" x="434.407" y="213.96" fill="#ffffff" class="colorffffff svgShape"></rect><rect width="26.055" height="5.232" x="380.396" y="227.913" fill="#c8c8c8" class="colora5c9eb svgShape"></rect><rect width="25.797" height="5.232" x="411.103" y="227.913" fill="#ffffff" class="colorffffff svgShape"></rect><rect width="19.718" height="5.232" x="439.846" y="227.913" fill="#c8c8c8" class="colora5c9eb svgShape"></rect><rect width="15.667" height="5.232" x="462.964" y="227.913" fill="#808080" class="colorffcc00 svgShape"></rect><rect width="77.098" height="5.232" x="380.396" y="241.865" fill="#c8c8c8" class="colora5c9eb svgShape"></rect><rect width="22.865" height="5.232" x="462.146" y="241.865" fill="#ffffff" class="colorffffff svgShape"></rect><rect width="62.742" height="5.232" x="431.839" y="255.818" fill="#c8c8c8" class="colora5c9eb svgShape"></rect><rect width="46.791" height="5.232" x="443.22" y="269.77" fill="#ffffff" class="colorffffff svgShape"></rect><rect width="46.791" height="5.232" x="380.396" y="283.723" fill="#808080" class="colorffcc00 svgShape"></rect><rect width="57.957" height="5.232" x="380.396" y="297.675" fill="#c8c8c8" class="colora5c9eb svgShape"></rect><rect width="21.259" height="5.232" x="442.634" y="297.675" fill="#ffffff" class="colorffffff svgShape"></rect><rect width="21.259" height="5.232" x="468.595" y="297.675" fill="#808080" class="colorffcc00 svgShape"></rect><rect width="82.791" height="5.232" x="412.698" y="311.628" fill="#c8c8c8" class="colora5c9eb svgShape"></rect><rect width="76.84" height="5.232" x="418.649" y="325.58" fill="#ffffff" class="colorffffff svgShape"></rect><rect width="46.791" height="5.232" x="380.396" y="339.533" fill="#c8c8c8" class="colora5c9eb svgShape"></rect><rect width="32.436" height="5.232" x="380.396" y="353.485" fill="#ffffff" class="colorffffff svgShape"></rect><rect width="19.675" height="5.232" x="417.484" y="353.485" fill="#c8c8c8" class="colora5c9eb svgShape"></rect><rect width="19.675" height="5.232" x="445.842" y="353.485" fill="#808080" class="colorffcc00 svgShape"></rect><rect width="42.006" height="5.232" x="380.396" y="367.438" fill="#808080" class="colorffcc00 svgShape"></rect><rect width="42.006" height="5.232" x="459.7" y="367.438" fill="#c8c8c8" class="colora5c9eb svgShape"></rect><rect width="29.245" height="5.232" x="427.054" y="367.438" fill="#ffffff" class="colorffffff svgShape"></rect><rect width="46.791" height="5.232" x="380.396" y="381.39" fill="#c8c8c8" class="colora5c9eb svgShape"></rect><rect width="16.485" height="5.232" x="431.839" y="381.39" fill="#c8c8c8" class="colora5c9eb svgShape"></rect><rect width="16.485" height="5.232" x="455.086" y="381.39" fill="#ffffff" class="colorffffff svgShape"></rect><polygon fill="#ededed" points="155.003 341.434 143.236 353.201 135.426 345.39 125.947 354.869 125.947 363.183 162.962 363.183 162.962 349.393 155.003 341.434" class="colorf2f2f2 svgShape"></polygon><path fill="#ededed" d="M121.2173,321.43755v46.4748h46.4746v-46.4748Zm42.8051,28.2252v14.5798H124.8873v-39.1352h39.1351Z" class="colorf2f2f2 svgShape"></path><path fill="#ededed" d="M146.2864,333.972a3.7657,3.7657,0,1,1-3.7657-3.7657A3.76566,3.76566,0,0,1,146.2864,333.972Z" class="colorf2f2f2 svgShape"></path><polygon fill="#ededed" points="303.302 341.434 291.534 353.201 283.724 345.39 274.246 354.869 274.246 363.183 311.261 363.183 311.261 349.393 303.302 341.434" class="colorf2f2f2 svgShape"></polygon><path fill="#ededed" d="M269.5156,321.43755v46.4748h46.4746v-46.4748Zm42.8051,28.2252v14.5798H273.1855v-39.1352h39.1352Z" class="colorf2f2f2 svgShape"></path><path fill="#ededed" d="M294.5847,333.972a3.7657,3.7657,0,1,1-3.7657-3.7657A3.76566,3.76566,0,0,1,294.5847,333.972Z" class="colorf2f2f2 svgShape"></path><rect width="199.868" height="10.486" x="97.255" y="180.844" fill="#2d7aaf" class="color6c2daf svgShape"></rect><rect width="147.067" height="6.941" x="97.255" y="201.162" fill="#ededed" class="colorf2f2f2 svgShape"></rect><rect width="70.814" height="7.475" x="97.255" y="236.937" fill="#ededed" class="colorf2f2f2 svgShape"></rect><rect width="70.814" height="7.475" x="183.989" y="236.937" fill="#ededed" class="colorf2f2f2 svgShape"></rect><rect width="70.814" height="7.475" x="270.724" y="236.937" fill="#ededed" class="colorf2f2f2 svgShape"></rect><rect width="40.071" height="7.475" x="97.255" y="254.695" fill="#ededed" class="colorf2f2f2 svgShape"></rect><rect width="40.071" height="7.475" x="183.989" y="254.695" fill="#ededed" class="colorf2f2f2 svgShape"></rect><rect width="40.071" height="7.475" x="270.724" y="254.695" fill="#ededed" class="colorf2f2f2 svgShape"></rect><polygon fill="#44a4e7" points="538.713 285.258 524.539 271.083 538.713 256.908 540.808 259.002 528.728 271.083 540.808 283.163 538.713 285.258" class="colore74445 svgShape"></polygon><polygon fill="#44a4e7" points="564.501 285.258 562.406 283.163 574.488 271.083 562.408 259.002 564.503 256.908 578.677 271.083 564.501 285.258" class="colore74445 svgShape"></polygon><rect width="36.438" height="2.962" x="533.388" y="269.602" fill="#44a4e7" transform="rotate(-67.682 551.607 271.083)" class="colore74445 svgShape"></rect><path fill="#1e5174" d="M512.2041,256.74635c-.5711-1.9721-1.5732-3.9904-3.4009-4.9256-2.0899-1.0692-4.6706-.4139-6.7138.7419-3.3736,1.9083-5.9538,5.0604-9.4509,6.7316-3.5671,1.7047-7.6734,1.6845-11.6192,1.9319s-8.1498.9204-11.0422,3.6155a13.22554,13.22554,0,0,0-2.8575,4.1202,26.30316,26.30316,0,0,0-1.8751,14.5095A56.93322,56.93322,0,0,0,469.41,297.659a25.68689,25.68689,0,0,0,3.5776,6.5898,9.86773,9.86773,0,0,0,6.292,3.7795c2.8426.3275,5.6508-1.0151,7.8479-2.8482a69.4641,69.4641,0,0,0,5.8858-6.2373,39.16592,39.16592,0,0,1,6.8856-5.8399,21.78319,21.78319,0,0,0,3.1926-2.3356c4.5876-4.4484,1.7807-11.0411,5.276-15.711C512.2968,269.80665,514.0665,263.17805,512.2041,256.74635Z" class="color481e74 svgShape"></path><path fill="#bbbbbb" d="M438.796,419.66665s2.0464,6.5328,2.0464,9.6811-7.3198,19.9131,13.6952,25.1078l.6296-24.3207s-4.3289-4.329-6.454-14.01S438.796,419.66665,438.796,419.66665Z" class="coloree9089 svgShape"></path><path fill="#112e42" d="M523.7721,586.68365a7.85609,7.85609,0,0,1,8.0176,2.1647c3.9286,3.7683,5.0511,9.3004.4009,13.0687s-6.0132,2.8061-7.8572,6.0131-5.2115,4.5701-9.7013,4.9709-7.6167-1.1224-7.8572-2.6458.1603-12.1867.6414-13.5497.8819-2.6458.8819-2.6458Z" class="color1e2047 svgShape"></path><path fill="#081b29" d="M532.1906,600.14045c-4.6501,3.3557-6.0134,2.2726-7.8571,5.316-1.8443,3.0434-5.2116,4.1076-9.7013,4.11-4.4898.0026-7.6169-1.7983-7.8574-3.343-.0139-.0884-.0247-.214-.0345-.3585a38.98333,38.98333,0,0,0,.0345,4.3903c.2405,1.5234,3.3676,3.0467,7.8574,2.6458s7.857-1.7638,9.7013-4.9709c1.8437-3.207,3.207-2.2449,7.8571-6.0132a7.40458,7.40458,0,0,0,2.9918-6.7121A6.82632,6.82632,0,0,1,532.1906,600.14045Z" class="color0e112b svgShape"></path><path fill="#112e42" d="M464.5222,589.30245a7.85618,7.85618,0,0,0-8.0175,2.1647c-3.9287,3.7683-5.0511,9.3004-.4009,13.0687s6.0132,2.8061,7.8572,6.0132,5.2114,4.57,9.7013,4.9709,7.6167-1.1225,7.8572-2.6458-.1603-12.1868-.6414-13.5497-.8819-2.6459-.8819-2.6459Z" class="color1e2047 svgShape"></path><path fill="#081b29" d="M456.1038,602.75935c4.6501,3.3556,6.0134,2.2725,7.857,5.316,1.8444,3.0433,5.2117,4.1075,9.7014,4.11s7.6168-1.7984,7.8574-3.3431c.0138-.0883.0247-.214.0345-.3585a39.034,39.034,0,0,1-.0345,4.3903c-.2406,1.5234-3.3677,3.0467-7.8574,2.6458s-7.857-1.7638-9.7014-4.9708c-1.8436-3.2071-3.2069-2.245-7.857-6.0132a7.40452,7.40452,0,0,1-2.9918-6.7122A6.82618,6.82618,0,0,0,456.1038,602.75935Z" class="color0e112b svgShape"></path><path fill="#175077" d="M526.3137,421.94465s9.0045,28.852,0,91.2016c0,0-2.8436,13.0615,0,22.0661s-1.2638,59.2404-1.2638,59.2404H507.8307s-6.161-38.8617-6.161-53.5533-2.3697-11.1861-2.8436-22.4174-.8077-23.8731-2.7735-35.5613a209.68739,209.68739,0,0,0-6.4563-25.4319s-.2487,31.6147-2.6183,44.0058-4.2653,24.7131-3.7914,29.9263-3.7913,30.805-2.3696,41.7052-.2915,24.6441-.2915,24.6441H463.2819s-2.8436-34.1225-4.2654-47.8663a123.77559,123.77559,0,0,1,0-29.8651c.9479-8.5227-10.5421-54.2263-3.8493-89.904Z" class="color173e77 svgShape"></path><path fill="#d1d1d1" d="M506.3998 273.64445a29.81928 29.81928 0 011.189 21.0583c-.3686 1.1542-.8077 2.2843-1.2466 3.4136q-.792 2.038-1.584 4.076a3.67835 3.67835 0 01-.8223 1.429c-1.4817 1.3661-4.1555-.296-5.8123.8515-1.038.719-1.1583 2.1816-1.1626 3.4444q-.01125 3.23535.1128 6.4692c-4.3369-2.3871-9.3271-1.6938-14.2775-1.7286a49.91893 49.91893 0 01-9.4069-.9622 27.449 27.449 0 001.5892-6.0328 5.66178 5.66178 0 015.9183-4.9092l.056.004a8.18658 8.18658 0 002.5544-.0805 7.26481 7.26481 0 002.5447-1.3723 31.99074 31.99074 0 009.8694-12.2847 7.83846 7.83846 0 012.0961-3.2461c1.0442-.7796 2.8205-.7396 3.3966.4293.2562.5198.2525 1.1924.6584 1.5911a1.23007 1.23007 0 001.8364-.3517 3.55844 3.55844 0 00.4059-2.1678C504.2201 280.01185 504.4796 276.28445 506.3998 273.64445zM550.6532 308.73425a5.55421 5.55421 0 00-1.0006-2.7328 7.59561 7.59561 0 01-1.1108-5.3923 6.29212 6.29212 0 01.815-1.8007 3.39049 3.39049 0 012.5641-1.831 17.289 17.289 0 004.8714-5.4957 24.41661 24.41661 0 011.3325-2.919 2.25945 2.25945 0 01.9539-.889 1.09714 1.09714 0 011.2234.2022 1.31658 1.31658 0 01.2812.6602c.2328 1.3132-.4509 2.5883-.8875 3.8486s-.5301 2.8913.532 3.698a8.18506 8.18506 0 011.0934.7265c.7833.826.2353 2.3294.9532 3.2128.1618.1991.3779.3502.5297.557a2.33447 2.33447 0 01.3287 1.2239q.11235 1.4424.2249 2.8847a6.68853 6.68853 0 01.0199 1.234c-.2211 2.0577-2.1925 3.3998-3.3608 5.108a14.29011 14.29011 0 00-1.7711 4.5931c-1.8347-.9899-3.7308-1.9513-5.5655-2.9412a11.44777 11.44777 0 01-1.2817-.7654 2.6367 2.6367 0 01-.9927-1.1755C550.2071 310.19375 550.6339 309.31585 550.6532 308.73425z" class="colorffaca3 svgShape"></path><path fill="#808080" d="M442.24,322.61325s-9.8578,50.621-10.3906,64.2087,7.1935,35.4347,7.1935,35.4347l11.1899-4.2628s.2664-18.6498,0-26.909,3.9964-28.5076,3.9964-28.5076,3.7299,9.3249,3.9964,25.8433-5.595,45.8253-5.595,45.8253,11.1899,8.7921,40.2304,4.7957,38.8982-11.1899,38.8982-11.1899-9.3249-26.9091-8.792-44.4932a311.23029,311.23029,0,0,1,3.7299-36.5004s20.5149-4.5292,27.9748-8.2592,5.3285-24.2124,5.3285-24.2124l-9.5946-3.6458s-3.7267,12.4055-5.5917,13.7376-10.9235-.5329-14.9199-5.8614-3.7299-7.7597-7.1935-7.8762-23.9783,1.7484-23.9783,1.7484l-1.7614-4.5718-22.2099-.93-4.5363,5.7682S446.1292,318.64265,442.24,322.61325Z" class="colorffcc00 svgShape"></path><path fill="#e2e2e2" d="M619.5493,67.54785H815.5017a15.3195,15.3195,0,0,1,15.3195,15.3195v195.9524a15.3197,15.3197,0,0,1-15.3197,15.3197H619.5493A15.3195,15.3195,0,0,1,604.2298,278.82V82.86735A15.3195,15.3195,0,0,1,619.5493,67.54785Z" class="colorc6f4fe svgShape"></path><rect width="50.722" height="37.223" x="750.277" y="162.232" fill="#69b8d8" class="color6988d8 svgShape"></rect><path fill="#ffffff" d="M788.7755 181.50825c-1.9253 0-2.1969 1.1658-2.1969 2.0059a15.10915 15.10915 0 00.2175 2.197 15.46507 15.46507 0 01.2164 2.2234c0 2.7389-1.7079 3.7148-3.9313 3.7148h-.5696V190.158h.4614c1.518-.0265 2.1694-.8402 2.1694-2.3592a16.543 16.543 0 00-.1899-1.9519 12.23487 12.23487 0 01-.2175-2.0611c0-1.7354.7595-2.6573 1.9529-2.9553v-.0552c-1.1934-.3246-1.9529-1.1923-1.9529-2.9278a12.53722 12.53722 0 01.2175-2.0611 16.10942 16.10942 0 00.1899-1.9253c0-1.4639-.5697-2.3051-2.1429-2.3316h-.4879V170.038h.542c2.3051 0 3.9589 1.0576 3.9589 3.5515a15.84689 15.84689 0 01-.2164 2.251 16.23448 16.23448 0 00-.2175 2.2775c0 .9494.2716 2.007 2.1969 2.007zM762.5008 180.125c1.9253 0 2.1969-1.0576 2.1969-2.007a16.23448 16.23448 0 00-.2175-2.2775 15.84689 15.84689 0 01-.2164-2.251c0-2.4939 1.6538-3.5515 3.9589-3.5515h.542v1.4915h-.4879c-1.5732.0265-2.1429.8677-2.1429 2.3316a16.10942 16.10942 0 00.1899 1.9253 12.53722 12.53722 0 01.2175 2.0611c0 1.7355-.7595 2.6032-1.9529 2.9278v.0552c1.1934.298 1.9529 1.2199 1.9529 2.9553a12.23487 12.23487 0 01-.2175 2.0611 16.543 16.543 0 00-.1899 1.9519c0 1.519.6514 2.3327 2.1694 2.3592h.4614v1.4914h-.5696c-2.2234 0-3.9313-.9759-3.9313-3.7148a15.46507 15.46507 0 01.2164-2.2234 15.10915 15.10915 0 00.2175-2.197c0-.8401-.2716-2.0059-2.1969-2.0059z" class="colorffffff svgShape"></path><rect width="78.354" height="37.223" x="736.461" y="93.2" fill="#69b8d8" class="color6988d8 svgShape"></rect><path fill="#ededed" d="M757.6496 120.22615v-6.2568h-8.0049v6.2568h-2.5459v-15.103h2.5459v6.559h8.0049v-6.559h2.5459v15.103zM769.6915 107.41025v12.8159h-2.5459v-12.8159h-4.768v-2.2871h12.104v2.2871zM790.277 120.22615l-.022-11.2842-4.768 9.709h-1.6612l-4.7685-9.709v11.2842h-2.395v-15.103h3.0209l4.9839 10.0327 4.9624-10.0327h2.9991v15.103zM805.7067 117.91755v2.3086h-9.0835v-15.103h2.5459v12.7944z" class="colorf2f2f2 svgShape"></path><rect width="64.004" height="37.223" x="743.636" y="231.264" fill="#69b8d8" class="color6988d8 svgShape"></rect><path fill="#ededed" d="M769.1081 245.42785l-1.4888 1.8559a5.89687 5.89687 0 00-4.207-1.9204 5.31888 5.31888 0 100 10.6367 6.24433 6.24433 0 004.207-1.7905l1.5102 1.6826a8.57347 8.57347 0 01-5.8466 2.4815 7.64232 7.64232 0 11.0859-15.2759A8.3362 8.3362 0 01769.1081 245.42785zM781.9699 244.608l-1.0572 2.2442a9.02469 9.02469 0 00-4.4228-1.4024c-1.4888 0-2.46.5611-2.46 1.5747 0 3.3013 8.1558 1.5323 8.1343 6.9693 0 2.6967-2.3735 4.3584-5.6958 4.3584a9.29008 9.29008 0 01-6.1709-2.3951l1.1001-2.2006a7.96493 7.96493 0 005.1138 2.2006c1.769 0 2.8261-.6689 2.8261-1.8339 0-3.3658-8.1552-1.4888-8.1552-6.8614 0-2.5888 2.2221-4.207 5.5014-4.207A9.83666 9.83666 0 01781.9699 244.608zM795.3922 244.608l-1.0571 2.2442a9.02469 9.02469 0 00-4.4228-1.4024c-1.4888 0-2.46.5611-2.46 1.5747 0 3.3013 8.1558 1.5323 8.1343 6.9693 0 2.6967-2.3736 4.3584-5.6963 4.3584a9.28958 9.28958 0 01-6.1704-2.3951l1.1001-2.2006a7.9649 7.9649 0 005.1137 2.2006c1.7691 0 2.8262-.6689 2.8262-1.8339 0-3.3658-8.1553-1.4888-8.1553-6.8614 0-2.5888 2.2222-4.207 5.5015-4.207A9.836 9.836 0 01795.3922 244.608z" class="colorf2f2f2 svgShape"></path><rect width="90.741" height="33.857" x="621.025" y="93.526" fill="#bcbcbc" class="color9edbd9 svgShape"></rect><rect width="90.741" height="11.469" x="621.025" y="116.836" fill="#bcbcbc" class="color9edbd9 svgShape"></rect><rect width="90.741" height="11.469" x="621.025" y="140.145" fill="#bcbcbc" class="color9edbd9 svgShape"></rect><rect width="90.741" height="11.469" x="621.025" y="163.454" fill="#bcbcbc" class="color9edbd9 svgShape"></rect><rect width="90.741" height="11.469" x="621.025" y="186.764" fill="#bcbcbc" class="color9edbd9 svgShape"></rect><rect width="90.741" height="11.469" x="621.025" y="210.073" fill="#bcbcbc" class="color9edbd9 svgShape"></rect><rect width="90.741" height="11.469" x="621.025" y="233.382" fill="#bcbcbc" class="color9edbd9 svgShape"></rect><rect width="47.044" height="11.469" x="621.025" y="256.692" fill="#bcbcbc" class="color9edbd9 svgShape"></rect></svg>