<svg xmlns="http://www.w3.org/2000/svg" enable-background="new 0 0 1920 1080" viewBox="0 0 1920 1080" id="WebsiteUIUX"><path stroke="#112e42" stroke-miterlimit="10" stroke-width="2" d="M1338.77,891.89H376.61c-23.1,0-41.82-18.72-41.82-41.82v-558.6c0-23.1,18.72-41.82,41.82-41.82h962.16
		c23.1,0,41.82,18.72,41.82,41.82v558.6C1380.59,873.17,1361.87,891.89,1338.77,891.89z" class="colorStroke000000 svgStroke"></path><path stroke="#112e42" stroke-miterlimit="10" stroke-width="2" d="M603.94,339.34h776.65v515.81c0,20.29-16.45,36.74-36.74,36.74H371.53c-20.29,0-36.74-16.45-36.74-36.74
		V339.34H440.6" class="colorStroke000000 svgStroke"></path><path fill="#00abf0" stroke="#112e42" stroke-miterlimit="10" stroke-width="2" d="M1307.38,861.89H332c-19.45,0-35.21-15.76-35.21-35.21V249.71c0-19.45,15.76-35.21,35.21-35.21h975.37
	c19.45,0,35.21,15.76,35.21,35.21v576.97C1342.59,846.13,1326.83,861.89,1307.38,861.89z" class="colorb5b5b5 svgShape colorStroke000000 svgStroke"></path><path fill="#ededed" stroke="#112e42" stroke-miterlimit="10" stroke-width="2" d="M565.94,309.34h776.65v515.81c0,20.29-16.45,36.74-36.74,36.74H333.53c-20.29,0-36.74-16.45-36.74-36.74V309.34
	H402.6" class="colorffffff svgShape colorStroke000000 svgStroke"></path><polygon fill="#ededed" stroke="#112e42" stroke-miterlimit="10" stroke-width="2" points="544.14 264.5 843.56 264.5 843.56 309.34 567.28 309.34" class="colorffffff svgShape colorStroke000000 svgStroke"></polygon><polyline fill="#ededed" stroke="#000" stroke-miterlimit="10" stroke-width="2" points="296.79 309.34 401.37 309.34 401.37 264.5 544.14 264.5 567.44 309.34 1342.59 309.34" class="colorffffff svgShape"></polyline><line x1="655.2" x2="655.2" y1="264.5" y2="309.34" fill="#fff" stroke="#112e42" stroke-miterlimit="10" stroke-width="2" class="colorStroke000000 svgStroke"></line><line x1="751.63" x2="751.63" y1="264.5" y2="309.34" fill="#fff" stroke="#112e42" stroke-miterlimit="10" stroke-width="2" class="colorStroke000000 svgStroke"></line><circle cx="331.17" cy="243.7" r="7.23" fill="#ededed" stroke="#112e42" stroke-miterlimit="10" stroke-width="2" class="colorffffff svgShape colorStroke000000 svgStroke"></circle><circle cx="364.44" cy="243.7" r="7.23" fill="#ededed" stroke="#112e42" stroke-miterlimit="10" stroke-width="2" class="colorffffff svgShape colorStroke000000 svgStroke"></circle><circle cx="397.71" cy="243.7" r="7.23" fill="#ededed" stroke="#112e42" stroke-miterlimit="10" stroke-width="2" class="colorffffff svgShape colorStroke000000 svgStroke"></circle><path fill="#ededed" stroke="#112e42" stroke-miterlimit="10" stroke-width="2" d="M1270.27,378.77h-675.5c-9.59,0-17.36-7.77-17.36-17.36v0c0-9.59,7.77-17.36,17.36-17.36h675.5
	c9.59,0,17.36,7.77,17.36,17.36v0C1287.62,371,1279.85,378.77,1270.27,378.77z" class="colorffffff svgShape colorStroke000000 svgStroke"></path><path fill="#ededed" d="M513.05,375.81c-3.32,4.02-8.34,6.58-13.95,6.58c-9.99,0-18.08-8.1-18.08-18.08
				c0-9.99,8.1-18.08,18.08-18.08c5.54,0,10.5,2.49,13.81,6.41c0.89,1.05,1.66,2.21,2.29,3.45" class="colorffffff svgShape"></path><path fill="none" stroke="#112e42" stroke-miterlimit="10" stroke-width="2" d="M513.05,375.81c-3.32,4.02-8.34,6.58-13.95,6.58c-9.99,0-18.08-8.1-18.08-18.08
				c0-9.99,8.1-18.08,18.08-18.08c5.54,0,10.5,2.49,13.81,6.41c0.89,1.05,1.66,2.21,2.29,3.45" class="colorStroke000000 svgStroke"></path><polygon stroke="#112e42" stroke-miterlimit="10" stroke-width="2" points="517.14 358.84 509.75 355.23 516.57 350.64" class="colorStroke000000 svgStroke"></polygon><polygon stroke="#112e42" stroke-miterlimit="10" stroke-width="2" points="429.2 365.03 420.44 370.09 420.44 359.97" class="colorStroke000000 svgStroke"></polygon><line x1="387.92" x2="421.19" y1="365.2" y2="365.2" fill="#fff" stroke="#112e42" stroke-miterlimit="10" stroke-width="2" class="colorStroke000000 svgStroke"></line><polygon stroke="#112e42" stroke-miterlimit="10" stroke-width="2" points="319.94 365.03 328.7 370.09 328.7 359.97" class="colorStroke000000 svgStroke"></polygon><line x1="360.44" x2="327.95" y1="365.2" y2="365.2" fill="#fff" stroke="#112e42" stroke-miterlimit="10" stroke-width="2" class="colorStroke000000 svgStroke"></line><path fill="#00abf0" stroke="#112e42" stroke-miterlimit="10" stroke-width="2" d="M755.44,681.08H390.7c-1.53,0-2.78-1.24-2.78-2.78V456.77c0-1.53,1.24-2.78,2.78-2.78h364.74
	c1.53,0,2.78,1.24,2.78,2.78v221.54C758.22,679.84,756.97,681.08,755.44,681.08z" class="colorb5b5b5 svgShape colorStroke000000 svgStroke"></path><path stroke="#112e42" stroke-miterlimit="10" stroke-width="2" d="M1273.94,685.42H926.68c-1.17,0-2.12-0.95-2.12-2.12v-55.07c0-1.17,0.95-2.12,2.12-2.12h347.26
	c1.17,0,2.12,0.95,2.12,2.12v55.07C1276.05,684.48,1275.11,685.42,1273.94,685.42z" class="colorStroke000000 svgStroke"></path><path fill="#ededed" stroke="#112e42" stroke-miterlimit="10" stroke-width="2" d="M925.6,454.77" class="colorffffff svgShape colorStroke000000 svgStroke"></path><path fill="#ededed" d="M1273.94,578.38H926.68c-1.17,0-2.12-0.95-2.12-2.12V441.64c0-1.17,0.95-2.12,2.12-2.12h347.26
				c1.17,0,2.12,0.95,2.12,2.12v134.63C1276.05,577.44,1275.11,578.38,1273.94,578.38z" class="colorffffff svgShape"></path><path fill="none" stroke="#112e42" stroke-miterlimit="10" stroke-width="2" d="M1273.94,578.38H926.68c-1.17,0-2.12-0.95-2.12-2.12V441.64c0-1.17,0.95-2.12,2.12-2.12h347.26
				c1.17,0,2.12,0.95,2.12,2.12v134.63C1276.05,577.44,1275.11,578.38,1273.94,578.38z" class="colorStroke000000 svgStroke"></path><line x1="926.01" x2="1276.05" y1="440.97" y2="576.94" fill="#fff" stroke="#112e42" stroke-miterlimit="10" stroke-width="2" class="colorStroke000000 svgStroke"></line><line x1="1276.05" x2="926.01" y1="440.97" y2="576.94" fill="#fff" stroke="#112e42" stroke-miterlimit="10" stroke-width="2" class="colorStroke000000 svgStroke"></line><path fill="#ededed" stroke="#112e42" stroke-miterlimit="10" stroke-width="2" d="M474.82 815.39H390.7c-1.53 0-2.78-1.24-2.78-2.78v-67.78c0-1.53 1.24-2.78 2.78-2.78h84.13c1.53 0 2.78 1.24 2.78 2.78v67.78C477.6 814.14 476.36 815.39 474.82 815.39zM580.66 767.87h-80.28c-3 0-5.43-2.43-5.43-5.43v-15.18c0-3 2.43-5.43 5.43-5.43h80.28c3 0 5.43 2.43 5.43 5.43v15.18C586.09 765.44 583.66 767.87 580.66 767.87zM618.2 791.02H497.56c-1.44 0-2.6-1.16-2.6-2.6v-4.09c0-1.44 1.16-2.6 2.6-2.6H618.2c1.44 0 2.6 1.16 2.6 2.6v4.09C620.8 789.85 619.64 791.02 618.2 791.02zM697.76 791.02h-61.33c-1.44 0-2.6-1.16-2.6-2.6v-4.09c0-1.44 1.16-2.6 2.6-2.6h61.33c1.44 0 2.6 1.16 2.6 2.6v4.09C700.36 789.85 699.19 791.02 697.76 791.02zM654.36 812.71h-156.8c-1.44 0-2.6-1.16-2.6-2.6v-4.09c0-1.44 1.16-2.6 2.6-2.6h156.8c1.44 0 2.6 1.16 2.6 2.6v4.09C656.96 811.55 655.8 812.71 654.36 812.71z" class="colorffffff svgShape colorStroke000000 svgStroke"></path><g fill="#081b29" class="color000000 svgShape"><text transform="translate(944.066 663.893)"><tspan x="0" y="0" fill="#fff" font-family="ArialMT" font-size="27.165">&lt;/-</tspan><tspan x="32.46" y="0" fill="#fff" font-family="Code-Bold" font-size="27.165">a</tspan><tspan x="45.55" y="0" fill="#fff" font-family="ArialMT" font-size="27.165">- </tspan><tspan x="62.14" y="0" fill="#fff" font-family="Code-Bold" font-size="27.165">92</tspan><tspan x="90.01" y="0" fill="#fff" font-family="ArialMT" font-size="27.165">---</tspan><tspan x="117.15" y="0" fill="#fff" font-family="Code-Bold" font-size="27.165">z</tspan><tspan x="128.78" y="0" fill="#fff" font-family="ArialMT" font-size="27.165">---xi--529--</tspan><tspan x="257.04" y="0" fill="#fff" font-family="Code-Bold" font-size="27.165">b</tspan><tspan x="272.5" y="0" fill="#fff" font-family="ArialMT" font-size="27.165">-&gt;</tspan></text></g><g fill="#081b29" class="color000000 svgShape"><path fill="#ededed" stroke="#112e42" stroke-miterlimit="10" stroke-width="2" d="M1437.09,545.13h-346.98c-1.19,0-2.16-0.96-2.16-2.16V408.43c0-1.19,0.96-2.15,2.16-2.15h346.98
			c1.19,0,2.16,0.96,2.16,2.15v134.55C1439.24,544.17,1438.28,545.13,1437.09,545.13z" class="colorffffff svgShape colorStroke000000 svgStroke"></path><path d="M1101.44,485.55L1226.71,453l112.25,36.43l86.59-18.21v61.12c0,1.3-3.06,2.35-6.83,2.35h-310.26
				c-3.77,0-6.83-1.05-6.83-2.35v-41.31L1101.44,485.55z" fill="#081b29" class="color000000 svgShape"></path><path fill="none" stroke="#112e42" stroke-miterlimit="10" stroke-width="2" d="M1101.44,485.55L1226.71,453l112.25,36.43l86.59-18.21v61.12c0,1.3-3.06,2.35-6.83,2.35h-310.26
				c-3.77,0-6.83-1.05-6.83-2.35v-41.31L1101.44,485.55z" class="colorStroke000000 svgStroke"></path><circle cx="1325.04" cy="439.01" r="11.75" fill="#ededed" class="colorffffff svgShape"></circle><circle cx="1325.04" cy="439.01" r="11.75" fill="none" stroke="#112e42" stroke-miterlimit="10" stroke-width="2" class="colorStroke000000 svgStroke"></circle></g><g fill="#081b29" class="color000000 svgShape"><path fill="#ededed" stroke="#112e42" stroke-miterlimit="10" stroke-width="2" d="M1405.22,521.12l15.83,40.85c0.84,2.17,3.64,2.74,5.26,1.08l7.21-7.46l19,18.3
				c1.26,1.23,3.28,1.21,4.51-0.05l3.09-3.2l4-4.11c1.23-1.26,1.21-3.28-0.05-4.51l-19.95-17.48l7.59-7.51
				c1.62-1.66,0.98-4.45-1.2-5.23l-41.22-14.85C1406.7,516.03,1404.23,518.57,1405.22,521.12z" class="colorffffff svgShape colorStroke000000 svgStroke"></path><path fill="#ededed" stroke="#112e42" stroke-miterlimit="10" stroke-width="2" d="M1407.24,518.86l15.21,39.26c0.81,2.08,3.5,2.63,5.06,1.03l6.93-7.17l18.84,18.17
				c1.21,1.18,3.15,1.16,4.34-0.05l2.97-3.07l3.05-3.16c1.18-1.21,1.16-3.15-0.05-4.34l-18.96-18.17l7.29-7.21
				c1.56-1.6,0.94-4.27-1.16-5.03l-39.61-14.27C1408.67,513.97,1406.29,516.4,1407.24,518.86z" class="colorffffff svgShape colorStroke000000 svgStroke"></path></g></svg>